<svg width="24" height="18" viewBox="0 0 24 18" fill="none" xmlns="http://www.w3.org/2000/svg">
<path d="M1.07051 17.1453H22.9473C23.3146 17.1668 23.6645 16.973 23.8576 16.6368C24.0475 16.3039 24.0475 15.8833 23.8576 15.5504C23.6677 15.2142 23.3146 15.0188 22.9473 15.0419H1.07051C0.703275 15.0204 0.350167 15.2175 0.160273 15.5504C-0.029621 15.8833 -0.029621 16.3039 0.160273 16.6368C0.350167 16.973 0.703275 17.1684 1.07051 17.1453Z" fill="#1E2341"/>
<path d="M1.05266 9.81326H16.9383C17.3056 9.83645 17.6555 9.63937 17.8486 9.30483C18.0385 8.97194 18.0385 8.55128 17.8486 8.21839C17.6587 7.88219 17.3056 7.68677 16.9383 7.70995H1.05266C0.685423 7.68842 0.332314 7.88551 0.14242 8.21839C-0.0474735 8.55128 -0.0474735 8.97194 0.14242 9.30483C0.332314 9.64102 0.685423 9.83645 1.05266 9.81326Z" fill="#1E2341"/>
<path d="M1.05266 2.10517H22.3634C22.7306 2.1267 23.0806 1.92962 23.2736 1.59673C23.4635 1.26384 23.4635 0.843181 23.2736 0.510295C23.0837 0.174096 22.7306 -0.02133 22.3634 0.00185613H1.05266C0.685423 -0.0196738 0.332314 0.177408 0.14242 0.510295C-0.0474735 0.843181 -0.0474735 1.26384 0.14242 1.59673C0.332314 1.93293 0.685423 2.12835 1.05266 2.10517Z" fill="#1E2341"/>
</svg>
