<svg width="176" height="44" viewBox="0 0 176 44" fill="none" xmlns="http://www.w3.org/2000/svg">
<path d="M7.74444 42.8897C10.203 43.9138 10.6708 43.9305 14.3725 43.9957C19.2069 44.0809 23.0389 42.8897 25.8662 40.6776C28.6935 38.4246 30.1072 35.3727 30.1072 31.5221C30.1072 28.9413 29.4311 26.8521 28.0789 25.2545C26.7677 23.616 25.272 22.387 23.592 21.5677C21.953 20.7484 19.6788 19.8063 16.7695 18.7412C14.1471 17.799 14.1162 17.0617 12.8459 16.5291C11.6167 15.9556 10.6742 15.3207 10.0186 14.6243C9.40397 13.9279 9.09665 13.0676 9.09665 12.0435C9.09665 10.6098 9.35635 9.30868 10.4217 8.48939C11.5281 7.6701 11.4017 7.43503 13.3276 7.43503C15.7861 7.43503 17.712 8.0495 19.1052 9.27843C20.5393 10.4664 21.2564 11.9206 21.2564 13.6411V14.1327C21.2564 14.3375 21.3179 14.5219 21.4408 14.6857C21.6047 14.8086 21.5 15 22 15.5C24.05 16.9643 26.8386 16.8239 28.7311 15.161L29.0623 14.8701C29.1616 14.7861 29.2473 14.7044 29.322 14.6262C29.6762 14.2553 29.7999 13.7238 29.7999 13.211C29.7999 10.5893 29.1033 8.29528 27.7101 6.32899C26.3579 4.32174 24.4525 2.76509 21.994 1.65905C19.5764 0.553018 18.3538 0 13.6964 0C11.5245 -0.000222295 10.0596 0.491572 7.80591 1.47472C5.55223 2.45786 3.79027 3.87113 2.52002 5.71453C1.24977 7.55792 0.614643 9.70855 0.614643 12.1664C0.614643 14.6652 1.24977 16.7749 2.52002 18.4954C3.83125 20.1749 5.42931 21.5063 7.3142 22.4894C9.24006 23.4726 9.66024 24.4352 12.4056 25.3774C14.8642 26.2786 16.6466 26.9955 17.753 27.5281C18.9003 28.0196 19.8018 28.6136 20.4574 29.31C21.113 29.9654 21.4408 30.7847 21.4408 31.7679C21.4408 33.1197 20.9081 34.2667 19.8427 35.2089C18.7774 36.1101 17.1588 36.5607 14.9871 36.5607C12.4056 36.5607 12.2723 36.0077 10.7562 34.9016C9.24006 33.7546 8.48201 32.3618 8.48201 30.7233V29.8016C8.48201 29.5968 8.40006 29.4329 8.23615 29.31C8.11323 29.1462 7.94932 29.0642 7.74444 29.0642L6.02534 27.6983C4.03531 26.1171 1.08199 26.9321 0.184397 29.31C0 30.5 -0.000109213 30.743 5.41361e-06 31.1534C5.41361e-06 33.7342 0.655619 36.0077 1.96685 37.974C3.31905 39.8993 5.28589 41.8246 7.74444 42.8897Z" fill="url(#paint0_linear)"/>
<g filter="url(#filter0_d)">
<path d="M7 13.683C7 9.43978 10.4398 6 14.683 6C18.9262 6 22.3659 9.43978 22.3659 13.683V31.6006C22.3659 35.8438 18.9262 39.2836 14.683 39.2836C10.4398 39.2836 7 35.8438 7 31.6006V13.683Z" fill="white"/>
</g>
<ellipse cx="14.8599" cy="13.8588" rx="3.8599" ry="3.85881" fill="#6171D9"/>
<path d="M50.607 28.2585C50.7183 27.139 50.4057 26.2761 49.6691 25.6697C48.9443 25.0633 47.5814 24.4511 45.5803 23.8331C43.5793 23.215 42.0071 22.527 40.8637 21.769C38.6767 20.3114 37.6997 18.4106 37.9329 16.0667C38.137 14.0143 39.1431 12.3234 40.9511 10.9941C42.7708 9.66469 45.0224 9 47.706 9C49.4873 9 51.0427 9.32651 52.3723 9.97954C53.7019 10.6326 54.7048 11.5655 55.381 12.7782C55.7392 13.4133 55.9822 14.0858 56.1102 14.7958C56.3111 15.9106 55.315 16.7839 54.1823 16.7839C52.8789 16.7839 51.9836 15.563 51.3614 14.4176C51.212 14.1424 51.0223 13.8934 50.7923 13.6703C50.0357 12.9123 48.878 12.5333 47.3194 12.5333C45.8663 12.5333 44.7047 12.8424 43.8347 13.4604C42.9763 14.0785 42.492 14.9414 42.3819 16.0492C42.2891 16.9821 42.645 17.7634 43.4495 18.3931C44.2552 19.0112 45.6246 19.6175 47.5576 20.2123C49.4918 20.7953 51.0248 21.4658 52.1564 22.2238C53.2892 22.9701 54.0881 23.8331 54.5532 24.8126C55.0195 25.7805 55.1876 26.9175 55.0577 28.2235C54.8466 30.3458 53.8581 32.0367 52.0923 33.2961C50.3392 34.5439 48.0623 35.1678 45.2616 35.1678C43.41 35.1678 41.7386 34.8296 40.2472 34.1532C38.7688 33.4652 37.6557 32.5207 36.908 31.3196C36.4964 30.6479 36.2248 29.9143 36.093 29.1187C35.9073 27.9967 36.9086 27.1215 38.0459 27.1215C39.3545 27.1215 40.2606 28.3366 40.8483 29.5058C41.0325 29.8721 41.282 30.1968 41.597 30.48C42.479 31.2729 43.8165 31.6694 45.6095 31.6694C47.1564 31.6694 48.3473 31.3604 49.1822 30.7423C50.03 30.1126 50.5049 29.2847 50.607 28.2585Z" fill="url(#paint1_linear)"/>
<path d="M80.4447 28.5209L85.8407 10.8204C86.107 9.94676 86.913 9.34984 87.8263 9.34984C89.2417 9.34984 90.242 10.7352 89.7968 12.0787L82.8761 32.964C82.5093 34.0708 81.4746 34.8179 80.3087 34.8179C78.9823 34.8179 77.8516 33.8561 77.639 32.5468L74.9881 16.2241L68.8167 33.0397C68.4247 34.1079 67.4077 34.8179 66.2699 34.8179C64.9093 34.8179 63.7591 33.8101 63.5805 32.4612L60.8437 11.798C60.6719 10.5013 61.6809 9.34984 62.9889 9.34984C64.094 9.34984 65.0216 10.1825 65.1404 11.2812L67.0009 28.4859L73.2286 10.9346C73.5657 9.98461 74.4645 9.34984 75.4725 9.34984C76.6487 9.34984 77.6486 10.2087 77.8262 11.3714L80.4447 28.5209Z" fill="url(#paint2_linear)"/>
<path d="M97.7508 32.8321C97.6387 33.9593 96.6904 34.8179 95.5577 34.8179C94.2542 34.8179 93.2355 33.6929 93.3645 32.3958L95.4592 11.3357C95.5713 10.2085 96.5196 9.34984 97.6523 9.34984C98.9558 9.34984 99.9745 10.4749 99.8455 11.7719L97.7508 32.8321Z" fill="url(#paint3_linear)"/>
<path d="M125.29 11.3106C125.2 12.2231 124.432 12.9182 123.515 12.9182H117.15L115.169 32.84C115.057 33.9627 114.112 34.8179 112.984 34.8179C111.686 34.8179 110.671 33.6973 110.8 32.4054L112.738 12.9182H106.798C105.743 12.9182 104.918 12.0074 105.023 10.9574C105.114 10.0449 105.881 9.34984 106.798 9.34984H123.515C124.57 9.34984 125.395 10.2606 125.29 11.3106Z" fill="url(#paint4_linear)"/>
<path d="M144.956 26.5268C146.342 26.5268 147.403 27.8073 146.856 29.0801C146.197 30.6117 145.236 31.883 143.972 32.8938C142.064 34.4098 139.65 35.1678 136.733 35.1678C134.693 35.1678 132.942 34.6896 131.479 33.7334C130.028 32.7656 128.969 31.3954 128.302 29.6229C127.634 27.8503 127.399 25.7921 127.597 23.4482L127.834 21.0694C128.073 18.6671 128.711 16.5506 129.749 14.7198C130.786 12.889 132.151 11.478 133.844 10.4868C135.548 9.4956 137.448 9 139.546 9C142.37 9 144.568 9.76381 146.139 11.2914C147.263 12.3851 147.986 13.8016 148.308 15.5408C148.532 16.7535 147.5 17.7634 146.267 17.7634C145.049 17.7634 144.119 16.7653 143.798 15.59C143.594 14.8434 143.277 14.2501 142.847 13.8103C142.073 12.994 140.854 12.5858 139.189 12.5858C137.256 12.5858 135.697 13.2913 134.514 14.7023C133.344 16.1017 132.612 18.1599 132.318 20.8769L132.094 23.1334C131.82 25.8854 132.103 27.9845 132.944 29.4304C133.796 30.8764 135.177 31.5994 137.087 31.5994C138.834 31.5994 140.185 31.2088 141.141 30.4275C141.773 29.9121 142.286 29.1708 142.681 28.2038C143.07 27.2523 143.928 26.5268 144.956 26.5268Z" fill="url(#paint5_linear)"/>
<path d="M172.752 32.8321C172.64 33.9593 171.692 34.8179 170.559 34.8179C169.256 34.8179 168.237 33.6929 168.366 32.3958L169.251 23.5007H157.808L156.88 32.8242C156.768 33.9559 155.816 34.8179 154.678 34.8179C153.37 34.8179 152.347 33.6884 152.477 32.3862L154.569 11.3436C154.682 10.2119 155.634 9.34984 156.771 9.34984C158.08 9.34984 159.103 10.4794 158.973 11.7815L158.161 19.9499H169.604L170.461 11.3357C170.573 10.2085 171.521 9.34984 172.654 9.34984C173.957 9.34984 174.976 10.4749 174.847 11.7719L172.752 32.8321Z" fill="url(#paint6_linear)"/>
<defs>
<filter id="filter0_d" x="3.91208" y="3.68406" width="21.5418" height="39.4594" filterUnits="userSpaceOnUse" color-interpolation-filters="sRGB">
<feFlood flood-opacity="0" result="BackgroundImageFix"/>
<feColorMatrix in="SourceAlpha" type="matrix" values="0 0 0 0 0 0 0 0 0 0 0 0 0 0 0 0 0 0 127 0"/>
<feOffset dy="0.771979"/>
<feGaussianBlur stdDeviation="1.54396"/>
<feColorMatrix type="matrix" values="0 0 0 0 0.384314 0 0 0 0 0.443137 0 0 0 0 0.85098 0 0 0 1 0"/>
<feBlend mode="normal" in2="BackgroundImageFix" result="effect1_dropShadow"/>
<feBlend mode="normal" in="SourceGraphic" in2="effect1_dropShadow" result="shape"/>
</filter>
<linearGradient id="paint0_linear" x1="15.0536" y1="0" x2="15.0536" y2="44" gradientUnits="userSpaceOnUse">
<stop stop-color="#6B6FD0"/>
<stop offset="1" stop-color="#4676F2"/>
</linearGradient>
<linearGradient id="paint1_linear" x1="105.544" y1="9" x2="105.544" y2="35.1678" gradientUnits="userSpaceOnUse">
<stop stop-color="#4D76C7"/>
<stop offset="1" stop-color="#5376F3"/>
</linearGradient>
<linearGradient id="paint2_linear" x1="105.544" y1="9" x2="105.544" y2="35.1678" gradientUnits="userSpaceOnUse">
<stop stop-color="#4D76C7"/>
<stop offset="1" stop-color="#5376F3"/>
</linearGradient>
<linearGradient id="paint3_linear" x1="105.544" y1="9" x2="105.544" y2="35.1678" gradientUnits="userSpaceOnUse">
<stop stop-color="#4D76C7"/>
<stop offset="1" stop-color="#5376F3"/>
</linearGradient>
<linearGradient id="paint4_linear" x1="105.544" y1="9" x2="105.544" y2="35.1678" gradientUnits="userSpaceOnUse">
<stop stop-color="#4D76C7"/>
<stop offset="1" stop-color="#5376F3"/>
</linearGradient>
<linearGradient id="paint5_linear" x1="105.544" y1="9" x2="105.544" y2="35.1678" gradientUnits="userSpaceOnUse">
<stop stop-color="#4D76C7"/>
<stop offset="1" stop-color="#5376F3"/>
</linearGradient>
<linearGradient id="paint6_linear" x1="105.544" y1="9" x2="105.544" y2="35.1678" gradientUnits="userSpaceOnUse">
<stop stop-color="#4D76C7"/>
<stop offset="1" stop-color="#5376F3"/>
</linearGradient>
</defs>
</svg>
