<svg width="180" height="58" viewBox="0 0 180 58" fill="none" xmlns="http://www.w3.org/2000/svg">
<path d="M93.9218 2.53552C92.988 2.99959 91.9745 3.50329 90.8656 3.92231C86.4399 5.59449 78.9089 9.23952 75.6886 10.8576L75.5202 10.9422L75.3379 10.8935C73.3224 10.3552 70.1765 9.54778 67.291 8.87527C65.8479 8.53894 64.4738 8.23726 63.3404 8.01996C62.1911 7.79958 61.333 7.67497 60.8966 7.67497C60.5128 7.67497 59.8468 7.86036 58.9582 8.22225C58.0918 8.57507 57.0796 9.06728 56.0328 9.61964C53.9403 10.7238 51.7746 12.8456 50.3913 13.7301L50.2122 13.8446L50.0054 13.7935C46.2987 12.8777 37.718 10.3166 33.3444 8.22106C32.1504 7.64901 30.958 7.73435 29.7197 8.20678C28.4633 8.68618 27.202 9.54837 25.9088 10.4815C25.7491 10.5967 25.5888 10.7131 25.428 10.8299C24.3095 11.6421 23.1671 11.877 22.0415 12.4446C20.7478 13.097 19.3812 14.0722 18.0106 13.6052C14.2442 12.3217 9.09393 21.1009 3.57024 19.8579L2.5735 19.4339C8.07232 20.6713 14.5016 10.7644 18.3309 12.0692C19.334 12.411 20.4025 12.1814 21.595 11.5801C22.6439 11.0512 23.715 10.2739 24.8425 9.45567C25.0037 9.33872 25.166 9.22094 25.3296 9.10292C26.6146 8.17574 27.9726 7.23825 29.366 6.70661C30.7777 6.16799 32.2658 6.0309 33.7729 6.75299C37.9655 8.76175 46.1927 11.055 50.0054 12.006C51.4108 11.1138 53.536 9.8368 55.5701 8.76345C56.631 8.20366 57.6752 7.69493 58.584 7.32486C59.4704 6.96385 60.2983 6.70437 60.8966 6.70437C61.4424 6.70437 62.3919 6.84937 63.5275 7.06712C64.6792 7.28793 66.0675 7.59289 67.5165 7.93059C70.3294 8.58617 73.3852 9.36858 75.4118 9.90793C78.7194 8.25069 86.1115 4.67945 90.5148 3.01572C91.5728 2.61594 92.528 2.14139 93.4556 1.68054C93.7234 1.54745 93.989 1.41551 94.2541 1.28684C95.4186 0.721603 96.5751 0.219252 97.7857 0.0561211C100.293 -0.28179 102.82 0.851795 106.134 4.94529C111.25 11.2643 116.468 10.8482 118.309 9.98644L118.325 9.97879L124.817 7.50046C125.386 7.28321 126.009 7.24614 126.6 7.39437L136.42 9.85659C137.355 8.2037 140.257 6.38228 145.858 8.3501C151.793 10.4353 155 13.573 155.914 14.9925L157.171 16.3803C156.145 16.2909 155.444 15.9774 155.128 15.576L155.113 15.5564L155.099 15.5353C154.351 14.3527 151.341 11.3067 145.529 9.26462C139.795 7.24975 137.763 9.60165 137.345 10.6767L137.019 11.0027L126.661 8.41067C126.07 8.26282 125.448 8.3 124.879 8.51708L118.713 10.8715C116.396 11.9442 110.715 12.158 105.367 5.55163C102.133 1.55674 99.9126 0.74911 97.9184 1.01783C96.8781 1.15801 95.8451 1.59594 94.6871 2.15802C94.4381 2.27892 94.183 2.40569 93.9218 2.53552Z" fill="#345FFA"/>
<path d="M41.9074 15.6016C33.6568 14.0486 10.5314 26.0626 0 32.2637C2.35729 34.2049 26.4104 23.69 38.1422 18.1899L45.8362 21.7488C41.58 23.7978 34.1154 30.1931 32.4129 32.2637C30.7104 34.3343 32.4129 33.9712 35.1956 32.2637C40.1067 28.7587 50.7799 22.1047 54.1849 23.5282C58.4411 25.3077 63.5158 18.1899 65.8076 18.1899C67.6411 18.1899 70.5004 15.3859 71.7009 13.9839H77.103C72.7376 17.0575 64.3671 23.2694 65.8076 23.5282C67.2482 23.7871 72.9559 20.0772 75.6297 18.1899L93.3094 2.49842L75.466 10.5868L70.1493 9.28842L63.903 13.1906L58.822 16.2901L53.7876 19.2382L41.9074 15.6016Z" fill="#345FFA"/>
<path d="M85.9428 13.0133C86.4667 10.8133 93.1457 6.273 96.4197 4.27786C94.2916 6.11123 90.7556 10.425 93.6368 13.0133C96.5179 15.6016 94.8372 20.7782 93.6368 23.0429L90.0353 19.8076L88.0711 24.9122C87.6346 24.9122 86.8596 23.8194 85.9428 23.0429C85.0261 22.2664 85.5609 19.6997 85.9428 18.5134C85.4517 19.7536 83.8802 22.59 81.5229 24.0135C79.1656 25.4371 78.7946 24.6067 78.9037 24.0135L81.5229 18.5134L75.1386 19.8076C78.5217 18.4595 85.419 15.2134 85.9428 13.0133Z" fill="#345FFA"/>
<path d="M103.459 13.8222C101.363 11.6221 99.0934 10.9643 98.2204 10.9103C103.983 10.3927 109.352 14.3614 111.316 16.4104C109.57 16.4644 105.554 16.0222 103.459 13.8222Z" fill="#345FFA"/>
<path d="M109.352 18.0281C105.947 18.0281 97.4564 22.6655 93.6368 24.9841C95.0773 25.6312 98.8206 24.7145 100.512 24.1753C108.632 20.6811 114.372 22.1802 116.227 23.3665L139.473 34.0431L142.092 32.749L131.943 29.1901C133.743 28.2195 139.832 25.4868 145.53 24.9122C153.551 24.1034 168.994 30.1607 177.779 33.3961L179.907 31.6166C174.996 30.3764 160.59 24.9841 155.843 23.3665C147.981 20.6874 135.599 23.7978 130.142 26.2783L127.523 23.3665C130.142 21.9106 135.773 18.9017 137.345 18.5134C138.916 18.1252 141.165 13.93 142.092 11.8809L138.818 12.8516C128.734 19.8399 123.921 22.1262 122.775 22.3959C122.775 19.6782 131.676 14.1265 137.024 10.9989L135.38 10.2633C131.342 12.1506 123.168 15.8604 122.775 15.6016C122.383 15.3428 114.863 12.2584 111.153 10.7486L119.501 14.9545V20.1311C117.537 19.4301 112.757 18.0281 109.352 18.0281Z" fill="#345FFA"/>
<path d="M179.402 24.8864C161.88 23.1133 155.811 19.724 154.227 13.6394C162.745 21.7926 170.521 22.6885 177.484 23.2271L179.402 24.8864Z" fill="#345FFA"/>
<path d="M57.771 9.99201C59.3051 8.93926 65.5623 8.97946 68.4742 9.15492L63.6478 7.79251L61.4343 7.21381L58.1791 7.9619L52.977 11.1038L50.2304 13.3481L47.5052 12.4504L36.5284 9.20245L32.7434 7.21381L29.4882 7.9619L25.9302 9.99201L21.8896 12.1095C21.2335 12.6937 19.7832 14.032 18.2087 13.3481C16.6341 12.6641 13.1114 15.2076 11.5469 16.5648C10.5376 17.3129 7.98892 18.9287 5.86928 19.4075C3.74963 19.8863 2.82534 19.607 2.59823 19.4075L1.28784 23.9952C5.52713 22.0253 15.6045 16.2955 18.8143 15.2183C22.024 14.141 27.9032 11.2852 30.1238 9.99201C35.0696 10.7865 44.8557 12.741 46.9753 14.203C49.0949 15.665 51.8596 14.8122 52.977 14.203C53.9358 13.238 56.2369 11.0448 57.771 9.99201Z" fill="#345FFA"/>
<path d="M0 52.6693V36.8682H5.53474C7.452 36.8682 8.90622 37.2372 9.89741 37.9751C10.8886 38.7059 11.3842 39.7803 11.3842 41.1983C11.3842 41.9725 11.1852 42.6562 10.7873 43.2494C10.3894 43.8355 9.83591 44.2659 9.12689 44.5409C9.9372 44.7434 10.5739 45.1522 11.0369 45.7672C11.5072 46.3822 11.7423 47.1346 11.7423 48.0245C11.7423 49.5438 11.2576 50.6942 10.2881 51.4756C9.31861 52.2569 7.93674 52.6549 6.14247 52.6693H0ZM3.25573 45.7889V50.0539H6.0448C6.8117 50.0539 7.40859 49.873 7.83545 49.5113C8.26955 49.1423 8.4866 48.6358 8.4866 47.9919C8.4866 46.5449 7.73778 45.8106 6.24014 45.7889H3.25573ZM3.25573 43.4882H5.66497C7.3073 43.4592 8.12847 42.8045 8.12847 41.5239C8.12847 40.8076 7.91865 40.2939 7.49902 39.9828C7.08663 39.6645 6.43187 39.5053 5.53474 39.5053H3.25573V43.4882Z" fill="white"/>
<path d="M17.2988 52.6693H14.1516V36H17.2988V52.6693Z" fill="white"/>
<path d="M26.9249 51.4756C26.1507 52.4161 25.08 52.8864 23.7125 52.8864C22.4537 52.8864 21.4914 52.5246 20.8258 51.8011C20.1674 51.0776 19.831 50.0177 19.8165 48.6214V40.8547H22.9529V48.5128C22.9529 49.7356 23.51 50.3469 24.6241 50.3469C25.6877 50.3469 26.4184 49.9779 26.8163 49.24V40.8547H29.9635V52.6693H27.0117L26.9249 51.4756Z" fill="white"/>
<path d="M37.7339 52.8864C36.012 52.8864 34.6084 52.3582 33.5231 51.3019C32.4451 50.2456 31.9061 48.8384 31.9061 47.0803V46.7765C31.9061 45.5972 32.134 44.5445 32.5898 43.6184C33.0456 42.6851 33.6895 41.9688 34.5216 41.4696C35.3608 40.9632 36.3158 40.71 37.3866 40.71C38.9928 40.71 40.2553 41.2164 41.1741 42.2293C42.1002 43.2422 42.5632 44.6783 42.5632 46.5377V47.8183H35.0859C35.1872 48.5852 35.491 49.2002 35.9975 49.6632C36.5112 50.1262 37.1587 50.3578 37.9401 50.3578C39.1483 50.3578 40.0925 49.92 40.7726 49.0446L42.3136 50.7701C41.8433 51.4358 41.2067 51.9567 40.4036 52.3329C39.6005 52.7019 38.7106 52.8864 37.7339 52.8864ZM37.3757 43.2494C36.7535 43.2494 36.2471 43.4592 35.8564 43.8789C35.473 44.2985 35.227 44.899 35.1184 45.6804H39.4811V45.4308C39.4666 44.7362 39.2785 44.2008 38.9168 43.8246C38.555 43.4411 38.0414 43.2494 37.3757 43.2494Z" fill="white"/>
<path d="M55.9442 46.885H53.3505V52.6693H50.0948V36.8682H55.966C57.8326 36.8682 59.2723 37.2842 60.2852 38.1162C61.2981 38.9482 61.8046 40.1239 61.8046 41.6433C61.8046 42.7213 61.5694 43.622 61.0991 44.3455C60.6361 45.0618 59.9307 45.6333 58.9829 46.0602L62.4014 52.5174V52.6693H58.907L55.9442 46.885ZM53.3505 44.2478H55.9768C56.7944 44.2478 57.4274 44.0416 57.876 43.6293C58.3245 43.2096 58.5488 42.6344 58.5488 41.9037C58.5488 41.1585 58.3354 40.5725 57.9085 40.1456C57.4889 39.7188 56.8414 39.5053 55.966 39.5053H53.3505V44.2478Z" fill="white"/>
<path d="M67.3936 52.6693H64.2464V40.7847H67.3936V52.6693ZM64.0619 37.8883C64.0619 37.4181 64.2174 37.031 64.5285 36.7271C64.8468 36.4232 65.2773 36.2713 65.82 36.2713C66.3553 36.2713 66.7822 36.4232 67.1005 36.7271C67.4189 37.031 67.578 37.4181 67.578 37.8883C67.578 38.3658 67.4153 38.7565 67.0897 39.0604C66.7713 39.3643 66.3481 39.5162 65.82 39.5162C65.2918 39.5162 64.8649 39.3643 64.5394 39.0604C64.221 38.7565 64.0619 38.3658 64.0619 37.8883Z" fill="white"/>
<path d="M69.4989 46.7113C69.4989 44.8809 69.9077 43.4231 70.7253 42.3378C71.55 41.2526 72.6751 40.71 74.1003 40.71C75.2435 40.71 76.1876 41.1368 76.9328 41.9905V36H80.08V52.6693H77.2476L77.0956 51.4213C76.3142 52.398 75.3086 52.8864 74.0786 52.8864C72.6968 52.8864 71.5862 52.3438 70.747 51.2585C69.9149 50.166 69.4989 48.6503 69.4989 46.7113ZM72.6353 46.9392C72.6353 48.039 72.827 48.8818 73.2104 49.4679C73.5939 50.0539 74.151 50.3469 74.8817 50.3469C75.8512 50.3469 76.5349 49.9381 76.9328 49.1206V44.4866C76.5421 43.669 75.8657 43.2603 74.9034 43.2603C73.3913 43.2603 72.6353 44.4866 72.6353 46.9392Z" fill="white"/>
<path d="M82.0552 46.7113C82.0552 44.9098 82.482 43.4592 83.3358 42.3595C84.1967 41.2598 85.3543 40.71 86.8085 40.71C88.0964 40.71 89.0984 41.1513 89.8147 42.0339L89.9449 40.927L92.7882 40.3096V52.2786C92.7882 53.306 92.5531 54.1995 92.0828 54.9592C91.6198 55.7189 90.965 56.2977 90.1185 56.6956C89.272 57.0935 88.2809 57.2925 87.145 57.2925C86.284 57.2925 85.4448 57.1188 84.6272 56.7715C83.8097 56.4315 83.1911 55.9902 82.7714 55.4475L84.1605 53.5375C84.9419 54.4129 85.8897 54.8507 87.0039 54.8507C87.8359 54.8507 88.4834 54.6264 88.9465 54.1778C89.4095 53.7365 89.641 53.107 89.641 52.2895V51.66C88.9175 52.4776 87.9661 52.8864 86.7868 52.8864C85.376 52.8864 84.2329 52.3365 83.3575 51.2368C82.4893 50.1299 82.0552 48.6648 82.0552 46.8416V46.7113ZM85.1915 46.9392C85.1915 48.0028 85.405 48.8384 85.8318 49.4462C86.2587 50.0467 86.8447 50.3469 87.5899 50.3469C88.5449 50.3469 89.2286 49.9888 89.641 49.2725V44.3347C89.2214 43.6184 88.5449 43.2603 87.6116 43.2603C86.8592 43.2603 86.2659 43.5678 85.8318 44.1827C85.405 44.7977 85.1915 45.7165 85.1915 46.9392Z" fill="white"/>
<path d="M100.613 52.8864C98.8909 52.8864 97.4873 52.3582 96.4021 51.3019C95.3241 50.2456 94.7851 48.8384 94.7851 47.0803V46.7765C94.7851 45.5972 95.013 44.5445 95.4688 43.6184C95.9246 42.6851 96.5685 41.9688 97.4005 41.4696C98.2398 40.9632 99.1948 40.71 100.266 40.71C101.872 40.71 103.134 41.2164 104.053 42.2293C104.979 43.2422 105.442 44.6783 105.442 46.5377V47.8183H97.9648C98.0661 48.5852 98.37 49.2002 98.8764 49.6632C99.3901 50.1262 100.038 50.3578 100.819 50.3578C102.027 50.3578 102.971 49.92 103.652 49.0446L105.193 50.7701C104.722 51.4358 104.086 51.9567 103.283 52.3329C102.479 52.7019 101.59 52.8864 100.613 52.8864ZM100.255 43.2494C99.6325 43.2494 99.126 43.4592 98.7354 43.8789C98.3519 44.2985 98.1059 44.899 97.9974 45.6804H102.36V45.4308C102.346 44.7362 102.157 44.2008 101.796 43.8246C101.434 43.4411 100.92 43.2494 100.255 43.2494Z" fill="white"/>
<path d="M117.228 36.8682L121.287 48.3284L125.324 37.7943L129.6 36.8682V52.6693H126.333V48.3501L126.659 40.8944L122.394 52.6693H120.158L115.904 40.9053L116.229 48.3501V52.6693H112.974V37.7943L117.228 36.8682Z" fill="white"/>
<path d="M135.547 52.6693H132.4V40.7847H135.547V52.6693ZM132.215 37.8883C132.215 37.4181 132.371 37.031 132.682 36.7271C133 36.4232 133.431 36.2713 133.973 36.2713C134.509 36.2713 134.935 36.4232 135.254 36.7271C135.572 37.031 135.731 37.4181 135.731 37.8883C135.731 38.3658 135.568 38.7565 135.243 39.0604C134.925 39.3643 134.501 39.5162 133.973 39.5162C133.445 39.5162 133.018 39.3643 132.693 39.0604C132.374 38.7565 132.215 38.3658 132.215 37.8883Z" fill="white"/>
<path d="M141.125 40.7847V42.2836C141.964 41.2345 143.089 40.71 144.5 40.71C145.744 40.71 146.671 41.0753 147.278 41.806C147.886 42.5368 148.197 43.6293 148.212 45.0835V52.6693H145.075V45.1594C145.075 44.4938 144.931 44.0127 144.641 43.7161C144.352 43.4122 143.871 43.2603 143.198 43.2603C142.315 43.2603 141.653 43.6365 141.212 44.3889V52.6693H138.075V41.5444L141.125 40.7847Z" fill="white"/>
<path d="M153.909 52.6693H150.762V40.7847H153.909V52.6693ZM150.577 37.8883C150.577 37.4181 150.733 37.031 151.044 36.7271C151.362 36.4232 151.793 36.2713 152.335 36.2713C152.871 36.2713 153.298 36.4232 153.616 36.7271C153.934 37.031 154.094 37.4181 154.094 37.8883C154.094 38.3658 153.931 38.7565 153.605 39.0604C153.287 39.3643 152.864 39.5162 152.335 39.5162C151.807 39.5162 151.38 39.3643 151.055 39.0604C150.737 38.7565 150.577 38.3658 150.577 37.8883Z" fill="white"/>
<path d="M159.487 40.7847V42.2836C160.326 41.2345 161.452 40.71 162.862 40.71C164.107 40.71 165.033 41.0753 165.641 41.806C166.248 42.5368 166.559 43.6293 166.574 45.0835V52.6693H163.438V45.1594C163.438 44.4938 163.293 44.0127 163.003 43.7161C162.714 43.4122 162.233 43.2603 161.56 43.2603C160.677 43.2603 160.015 43.6365 159.574 44.3889V52.6693H156.438V41.5444L159.487 40.7847Z" fill="white"/>
<path d="M168.506 46.7113C168.506 44.9098 168.932 43.4592 169.786 42.3595C170.647 41.2598 171.805 40.71 173.259 40.71C174.547 40.71 175.549 41.1513 176.265 42.0339L176.395 40.927L179.239 40.1673V52.2786C179.239 53.306 179.003 54.1995 178.533 54.9592C178.07 55.7189 177.415 56.2977 176.569 56.6956C175.722 57.0935 174.731 57.2925 173.595 57.2925C172.734 57.2925 171.895 57.1188 171.078 56.7715C170.26 56.4315 169.641 55.9902 169.222 55.4475L170.611 53.5375C171.392 54.4129 172.34 54.8507 173.454 54.8507C174.286 54.8507 174.934 54.6264 175.397 54.1778C175.86 53.7365 176.091 53.107 176.091 52.2895V51.66C175.368 52.4776 174.417 52.8864 173.237 52.8864C171.826 52.8864 170.683 52.3365 169.808 51.2368C168.94 50.1299 168.506 48.6648 168.506 46.8416V46.7113ZM171.642 46.9392C171.642 48.0028 171.855 48.8384 172.282 49.4462C172.709 50.0467 173.295 50.3469 174.04 50.3469C174.995 50.3469 175.679 49.9888 176.091 49.2725V44.3347C175.672 43.6184 174.995 43.2603 174.062 43.2603C173.31 43.2603 172.716 43.5678 172.282 44.1827C171.855 44.7977 171.642 45.7165 171.642 46.9392Z" fill="white"/>
</svg>
