<svg width="206" height="46" viewBox="0 0 206 46" fill="none" xmlns="http://www.w3.org/2000/svg">
<path d="M9.00293 46H27.1156C32.4065 45.9579 36.4813 44.7994 39.3401 42.5247C42.1988 40.25 43.6282 36.9011 43.6282 32.478C43.6282 29.2281 43.8231 29.4145 42.154 28.6018C40.8174 27.951 34.918 27.0547 32.7601 26.9811C32.3766 26.968 32.3631 27.202 32.6963 27.3899C34.394 28.3475 34.0279 29.5357 34.0279 32.3832C34.0279 34.2578 33.3878 35.7321 32.1078 36.8063C30.8491 37.8594 29.089 38.386 26.8276 38.386H18.6033V30.2086C17.0255 30.1782 15.4808 30.1047 13.9919 29.9669C12.0963 29.7915 10.4426 29.3966 9.00293 28.8376V46Z" fill="#345FFA"/>
<path d="M9.00293 12.8822C11.8124 13.5289 15.0813 13.9393 18.6033 14.1835V7.6772H25.3235C27.969 7.6772 29.8997 8.14057 31.1158 9.06731C32.3531 9.97299 32.8634 10.7031 33.1119 12.6058C33.2281 13.4949 34.9674 14.5751 35.8532 14.7723C36.2066 14.8509 36.6073 14.9461 37.0582 15.059C39.126 15.5769 40.3483 15.6061 41.3576 15.9079C41.7281 16.0187 42.1569 15.8967 42.31 15.5457C42.7054 14.6395 42.5722 14.1277 42.5722 12.6058C42.1165 8.07441 41.0045 5.53564 38.188 3.22253C35.2653 1.07418 30.9771 0 25.3235 0H9.00293V12.8822Z" fill="#345FFA"/>
<path fill-rule="evenodd" clip-rule="evenodd" d="M0.0258448 10.7458C-0.284511 15.4951 2.07419 25.2693 13.9919 26.3723C18.5614 26.7952 23.6565 26.6128 28.6188 26.4351C39.8344 26.0334 50.372 25.656 52.6312 32.3471C52.6312 27.1383 49.4655 16.8126 36.803 17.1803C20.9749 17.6399 3.75012 17.1803 0.0258448 10.7458ZM51.1789 28.6045C50.0762 22.6648 42.8616 22.3732 36.6198 22.6053C37.3285 22.6978 38.0023 22.7806 38.6447 22.8595C44.5821 23.5893 47.84 23.9898 51.1789 28.6045Z" fill="#9BC456"/>
<path d="M63.4683 8.29361H73.4629C75.8004 8.29361 77.6573 8.85437 79.0336 9.97589C80.4318 11.0974 81.1309 12.5209 81.1309 14.2463C81.1309 16.8129 79.6126 19.649 76.576 20.5549C78.127 20.7706 79.3613 21.4068 80.2789 22.4636C81.1964 23.5205 81.6552 24.7606 81.6552 26.1841C81.6552 27.9958 81.6734 29.9451 80.2789 31.7424C79.094 33.2696 77.1221 34.1066 74.02 34.1066H63.4683V8.29361ZM69.0718 12.4993V18.5167H72.742C73.5503 18.5167 74.1947 18.3118 74.6753 17.9021C75.1778 17.4923 75.429 15.7884 75.429 14.9904C75.429 14.1708 75.1778 13.5561 74.6753 13.1464C74.1947 12.715 73.5503 12.4993 72.742 12.4993H69.0718ZM69.0718 29.696H73.299C74.0636 29.696 74.6972 29.4696 75.1996 29.0166C75.7021 28.5637 75.9533 27.9383 75.9533 27.1402C75.9533 26.3422 75.713 25.706 75.2324 25.2315C74.7518 24.757 74.1292 24.5198 73.3646 24.5198H69.0718V29.696Z" fill="white"/>
<path d="M91.1526 12.9522V15.6051C92.3105 13.7071 94.1565 12.7581 96.6906 12.7581C98.0451 12.7581 99.2466 13.0601 100.295 13.664C101.366 14.2679 102.196 15.1306 102.786 16.2521C103.463 15.1953 104.337 14.3542 105.407 13.7287C106.5 13.0817 107.712 12.7581 109.045 12.7581C111.273 12.7581 113.042 13.4375 114.353 14.7963C115.664 16.1551 116.319 18.0422 116.319 20.4578V34.1066H110.749V21.2019C110.749 20.0373 110.432 19.1422 109.798 18.5167C109.187 17.8697 108.335 17.5462 107.242 17.5462C106.15 17.5462 105.287 17.8697 104.654 18.5167C104.042 19.1422 103.736 20.0373 103.736 21.2019V34.1066H98.1652V21.2019C98.1652 20.0373 97.8485 19.1422 97.2149 18.5167C96.6032 17.8697 95.7512 17.5462 94.6589 17.5462C93.5666 17.5462 92.7037 17.8697 92.0702 18.5167C91.4585 19.1422 91.1526 20.0373 91.1526 21.2019V34.1066H85.5491V14.7496L91.1526 12.9522Z" fill="white"/>
<path d="M126.182 10.9141C125.549 11.5396 124.773 11.8523 123.856 11.8523C122.938 11.8523 122.163 11.5396 121.529 10.9141C120.896 10.2886 120.579 9.52297 120.579 8.61713C120.579 7.68971 120.896 6.91327 121.529 6.28781C122.163 5.66234 122.938 5.34961 123.856 5.34961C124.773 5.34961 125.549 5.66234 126.182 6.28781C126.816 6.91327 127.133 7.68971 127.133 8.61713C127.133 9.52297 126.816 10.2886 126.182 10.9141ZM121.07 34.1066V12.9522H126.674V34.1066H121.07Z" fill="white"/>
<path d="M137.202 12.9522V15.6051C138.36 13.7071 140.206 12.7581 142.74 12.7581C144.838 12.7581 146.531 13.4483 147.82 14.8286C149.13 16.209 149.786 18.0854 149.786 20.4578V34.1066H144.215V21.2019C144.215 20.0373 143.898 19.1422 143.265 18.5167C142.653 17.8697 141.801 17.5462 140.709 17.5462C139.616 17.5462 138.753 17.8697 138.12 18.5167C137.508 19.1422 137.202 20.0373 137.202 21.2019V34.1066H131.599V14.7496L137.202 12.9522Z" fill="white"/>
<path d="M159.656 10.9141C159.022 11.5396 158.247 11.8523 157.329 11.8523C156.412 11.8523 155.636 11.5396 155.002 10.9141C154.369 10.2886 154.052 9.52297 154.052 8.61713C154.052 7.68971 154.369 6.91327 155.002 6.28781C155.636 5.66234 156.412 5.34961 157.329 5.34961C158.247 5.34961 159.022 5.66234 159.656 6.28781C160.289 6.91327 160.606 7.68971 160.606 8.61713C160.606 9.52297 160.289 10.2886 159.656 10.9141ZM154.544 34.1066V12.9522H160.147V34.1066H154.544Z" fill="white"/>
<path d="M170.676 12.9522V15.6051C171.833 13.7071 173.679 12.7581 176.214 12.7581C178.311 12.7581 180.004 13.4483 181.293 14.8286C182.604 16.209 183.259 18.0854 183.259 20.4578V34.1066H177.688V21.2019C177.688 20.0373 177.371 19.1422 176.738 18.5167C176.126 17.8697 175.274 17.5462 174.182 17.5462C173.09 17.5462 172.227 17.8697 171.593 18.5167C170.981 19.1422 170.676 20.0373 170.676 21.2019V34.1066H165.072V14.7496L170.676 12.9522Z" fill="white"/>
<path d="M189.098 28.6428C187.482 26.9174 186.673 24.7067 186.673 22.0107C186.673 19.3147 187.482 17.104 189.098 15.3786C190.715 13.6316 192.681 12.7581 194.997 12.7581C197.334 12.7581 199.126 13.6101 200.371 15.3139V12.9522H205.974V30.9074C205.974 33.4308 205.275 35.5337 203.877 37.216C203.178 38.0787 202.217 38.7473 200.994 39.2218C199.792 39.6963 198.394 39.9335 196.799 39.9335C194.003 39.9335 191.785 39.3728 190.147 38.2512C188.508 37.1297 187.58 35.4151 187.362 33.1073H192.867C193.391 34.4661 194.702 35.1455 196.799 35.1455C197.826 35.1455 198.678 34.8004 199.355 34.1102C200.032 33.4416 200.371 32.374 200.371 30.9074V28.384C199.016 30.2819 197.203 31.2309 194.931 31.2309C192.659 31.2309 190.715 30.3682 189.098 28.6428ZM199.158 25.2782C199.967 24.5018 200.371 23.4018 200.371 21.9784C200.371 20.5549 199.967 19.4657 199.158 18.7108C198.35 17.9344 197.422 17.5462 196.373 17.5462C195.324 17.5462 194.396 17.9344 193.588 18.7108C192.779 19.4873 192.375 20.5872 192.375 22.0107C192.375 23.4342 192.779 24.5341 193.588 25.3106C194.396 26.0654 195.324 26.4429 196.373 26.4429C197.422 26.4429 198.35 26.0547 199.158 25.2782Z" fill="white"/>
</svg>
