<svg width="212" height="68" viewBox="0 0 212 68" fill="none" xmlns="http://www.w3.org/2000/svg">
<path d="M12.006 54.6439L10.476 53.7079L12.006 52.7539V49.0099L10.116 47.5879H0.540039V59.8099H12.006V54.6439ZM7.83004 54.5899V57.5599H4.75204V53.1319L5.72404 54.5899H7.83004ZM4.75204 49.8379H7.83004V52.3399H4.75204V49.8379Z" fill="white"/>
<path d="M26.8968 50.3599L25.7988 52.8259V50.3599H19.2108L18.0408 52.8259V50.3599H13.8108V59.7559H18.0408V52.8259H21.3168V59.7559H25.7988V52.8259H29.0928V59.7559H33.3048V50.3599H26.8968Z" fill="white"/>
<path d="M35.0972 50.3599V59.7559H39.4352V50.3599H35.0972ZM39.4172 46.5259H35.1152V49.2079H39.4172V46.5259Z" fill="white"/>
<path d="M53.1653 50.3239H46.7753L45.6233 52.7899V50.3239H41.2313V59.7559H45.6233V52.7899H48.8633V59.7559H53.1653V50.3239Z" fill="white"/>
<path d="M54.9591 50.3599V59.7559H59.2971V50.3599H54.9591ZM59.2791 46.5259H54.9771V49.2079H59.2791V46.5259Z" fill="white"/>
<path d="M73.0272 50.3239H66.6372L65.4852 52.7899V50.3239H61.0932V59.7559H65.4852V52.7899H68.7252V59.7559H73.0272V50.3239Z" fill="white"/>
<path d="M87.223 50.3779H74.983V59.7559H81.373L82.417 58.3519V63.3919H74.821L75.559 65.2639H87.223V50.3779ZM79.177 52.2859H82.417V57.8659H79.177V52.2859Z" fill="white"/>
<path d="M98.6142 67.0882V43.3912H96.8634V67.0882H98.6142Z" fill="white"/>
<path d="M119.209 54.6439L117.679 53.7079L119.209 52.7539V49.0099L117.319 47.5879H107.743V59.8099H119.209V54.6439ZM115.033 54.5899V57.5599H111.955V53.1319L112.927 54.5899H115.033ZM111.955 49.8379H115.033V52.3399H111.955V49.8379Z" fill="white"/>
<path d="M124.848 59.7919V57.1279L127.134 51.7999L129.366 58.9639H133.182L135.36 51.7999L137.7 57.1279V59.7919H141.534V57.2539L137.682 47.5159H133.11L131.274 52.5379L129.438 47.5159H124.866L121.014 57.2539V59.7919H124.848Z" fill="white"/>
<path d="M161.241 47.4259H148.101V59.7919H156.759L157.461 57.5239H152.349V49.6939H161.241V47.4259ZM154.365 54.5179H157.497V59.7919H161.241V52.2679H154.365V54.5179Z" fill="white"/>
<path d="M167.433 59.7559V52.0699H170.529L169.503 50.3599H163.041V59.7559H167.433Z" fill="white"/>
<path d="M176.192 52.0339H180.368V59.7559H184.094V50.3419H172.322V59.7559H179.45L180.368 58.0459H176.192V52.0339Z" fill="white"/>
<path d="M185.892 50.3599V59.7559H192.192L192.948 58.0459H189.852V50.3599H185.892ZM192.948 50.3599V59.7559H197.628L198.294 58.0639H197.07V50.3599H192.948Z" fill="white"/>
<path d="M204.396 57.8659L205.332 59.4859H211.614V50.3419H200.094V63.3919H204.396V57.8659ZM204.396 57.8659V51.9619H207.762V57.8659H204.396Z" fill="white"/>
<path d="M110.475 2.9824C109.377 3.52826 108.185 4.12074 106.88 4.61361C101.675 6.5805 92.8163 10.868 89.0285 12.7712L88.8304 12.8708L88.6159 12.8135C86.2453 12.1803 82.5449 11.2306 79.1508 10.4395C77.4534 10.0439 75.8371 9.68906 74.504 9.43345C73.1521 9.17424 72.1428 9.02767 71.6295 9.02767C71.178 9.02767 70.3947 9.24572 69.3494 9.67139C68.3303 10.0864 67.1396 10.6654 65.9084 11.3151C63.4472 12.6138 60.8997 15.1096 59.2726 16.15L59.062 16.2846L58.8187 16.2245C54.4587 15.1474 44.3657 12.1348 39.2212 9.67C37.8168 8.99712 36.4142 9.0975 34.9578 9.6532C33.4798 10.2171 31.9963 11.2312 30.4751 12.3289C30.2873 12.4644 30.0987 12.6013 29.9096 12.7386C28.594 13.694 27.2502 13.9703 25.9262 14.638C24.4045 15.4053 22.797 16.5524 21.1849 16.003C16.7547 14.4934 10.6967 24.8199 4.19948 23.3578L3.02707 22.8591C9.49504 24.3146 17.0574 12.6615 21.5616 14.1964C22.7416 14.5984 23.9984 14.3284 25.4011 13.6211C26.6348 12.9989 27.8947 12.0846 29.2209 11.1222C29.4105 10.9846 29.6014 10.8461 29.7938 10.7073C31.3053 9.61669 32.9026 8.51397 34.5416 7.88863C36.2021 7.25508 37.9525 7.09383 39.7253 7.94318C44.6568 10.306 54.334 13.0034 58.8187 14.122C60.4718 13.0726 62.9716 11.5705 65.3642 10.308C66.612 9.64953 67.8403 9.05114 68.9092 8.61584C69.9519 8.19121 70.9256 7.88599 71.6295 7.88599C72.2715 7.88599 73.3883 8.05655 74.7241 8.31268C76.0787 8.57241 77.7117 8.93111 79.416 9.32833C82.7247 10.0995 86.3191 11.0198 88.7029 11.6542C92.5934 9.70485 101.288 5.50419 106.468 3.54723C107.712 3.07699 108.836 2.51881 109.927 1.97673C110.242 1.82019 110.554 1.66499 110.866 1.51364C112.236 0.848783 113.596 0.257895 115.02 0.0660123C117.97 -0.331455 120.942 1.00192 124.84 5.81689C130.857 13.2496 136.995 12.7602 139.161 11.7465L139.18 11.7375L146.815 8.82239C147.484 8.56685 148.217 8.52325 148.913 8.69761L160.463 11.5938C161.563 9.64958 164.977 7.50714 171.565 9.82178C178.546 12.2745 182.318 15.9652 183.393 17.6349L184.872 19.2672C183.665 19.1622 182.84 18.7934 182.469 18.3212L182.451 18.2981L182.435 18.2733C181.555 16.8823 178.014 13.2995 171.178 10.8975C164.433 8.5275 162.044 11.2939 161.552 12.5584L161.168 12.9419L148.985 9.89302C148.29 9.71912 147.558 9.76285 146.889 10.0182L139.635 12.7875C136.91 14.0493 130.229 14.3008 123.938 6.53009C120.134 1.83111 117.522 0.881138 115.176 1.19722C113.953 1.36211 112.738 1.87721 111.375 2.53837C111.082 2.68058 110.782 2.82969 110.475 2.9824Z" fill="#345FFA"/>
<path d="M49.2934 18.3513C39.5888 16.5247 12.3875 30.656 0 37.9501C2.77275 40.2334 31.0651 27.8653 44.8647 21.3958L53.9147 25.5819C48.9083 27.9921 40.1281 35.5145 38.1256 37.9501C36.123 40.3856 38.1256 39.9586 41.3988 37.9501C47.1753 33.8274 59.7297 26.0006 63.7348 27.675C68.7412 29.7681 74.7103 21.3958 77.4061 21.3958C79.5626 21.3958 82.9259 18.0976 84.3379 16.4486H90.6922C85.5574 20.0639 75.7116 27.3706 77.4061 27.675C79.1005 27.9795 85.8142 23.6157 88.9592 21.3958L109.755 2.93875L88.7666 12.4527L82.5129 10.9255L75.1657 15.5154L69.1892 19.1612L63.2676 22.6289L49.2934 18.3513Z" fill="#345FFA"/>
<path d="M101.09 15.3069C101.706 12.7191 109.562 7.37859 113.413 5.03182C110.91 7.18831 106.751 12.2624 110.14 15.3069C113.529 18.3513 111.552 24.4403 110.14 27.1042L105.904 23.2986L103.593 29.3029C103.08 29.3029 102.168 28.0175 101.09 27.1042C100.012 26.1908 100.641 23.1717 101.09 21.7764C100.512 23.2352 98.6638 26.5714 95.8911 28.2458C93.1183 29.9203 92.6819 28.9435 92.8102 28.2458L95.8911 21.7764L88.3815 23.2986C92.361 21.7129 100.474 17.8947 101.09 15.3069Z" fill="#345FFA"/>
<path d="M121.693 16.2583C119.228 13.6705 116.558 12.8967 115.531 12.8333C122.309 12.2244 128.625 16.8925 130.936 19.3027C128.882 19.3662 124.158 18.8461 121.693 16.2583Z" fill="#345FFA"/>
<path d="M128.625 21.2055C124.62 21.2055 114.633 26.6602 110.14 29.3875C111.834 30.1486 116.237 29.0704 118.227 28.4361C127.778 24.3261 134.53 26.0893 136.712 27.4847L164.055 40.0431L167.135 38.5209L155.197 34.3348C157.315 33.1931 164.477 29.9788 171.179 29.3029C180.614 28.3516 198.778 35.4764 209.112 39.282L211.615 37.1889C205.838 35.7301 188.894 29.3875 183.31 27.4847C174.062 24.3335 159.498 27.9921 153.079 30.9097L149.998 27.4847C153.079 25.7722 159.703 22.233 161.551 21.7764C163.4 21.3197 166.044 16.3851 167.135 13.9749L163.284 15.1166C151.423 23.3367 145.762 26.0259 144.414 26.3431C144.414 23.1464 154.884 16.6162 161.174 12.9375L159.241 12.0721C154.491 14.2921 144.876 18.6558 144.414 18.3513C143.952 18.0469 135.108 14.4189 130.743 12.643L140.563 17.5902V23.6791C138.253 22.8546 132.63 21.2055 128.625 21.2055Z" fill="#345FFA"/>
<path d="M211.021 29.2725C190.411 27.1869 183.272 23.2002 181.409 16.0434C191.429 25.6335 200.575 26.6873 208.765 27.3208L211.021 29.2725Z" fill="#345FFA"/>
<path d="M67.9529 11.7531C69.7574 10.5148 77.1175 10.5621 80.5425 10.7684L74.8656 9.16591L72.2619 8.48522L68.433 9.36516L62.314 13.0608L59.0834 15.7006L55.8778 14.6447L42.9665 10.8243L38.5143 8.48522L34.6854 9.36516L30.5003 11.7531L25.7476 14.2438C24.9759 14.931 23.27 16.5051 21.4179 15.7006C19.5658 14.8961 15.4223 17.8879 13.582 19.4843C12.3948 20.3642 9.39695 22.2649 6.90372 22.828C4.41049 23.3912 3.32329 23.0627 3.05616 22.828L1.51481 28.2243C6.50127 25.9071 18.3548 19.1675 22.1302 17.9004C25.9057 16.6333 32.821 13.2742 35.433 11.7531C41.2505 12.6876 52.7613 14.9866 55.2546 16.7062C57.7478 18.4259 60.9997 17.4228 62.314 16.7062C63.4418 15.5711 66.1485 12.9914 67.9529 11.7531Z" fill="#345FFA"/>
</svg>
