<svg width="40" height="119" viewBox="0 0 40 119" fill="none" xmlns="http://www.w3.org/2000/svg">
<g opacity="0.15">
<line x1="20.5" y1="-2.18557e-08" x2="20.5" y2="79" stroke="url(#paint0_linear)"/>
<circle cx="20" cy="99" r="20" fill="url(#paint1_linear)"/>
<path d="M14.064 94.8997L19.9637 89L22.1597 91.1303L16.2305 97.0663L14.064 94.8997Z" fill="white"/>
<path d="M19.9637 89L25.9237 94.7815L23.6389 97.0663L17.6657 91.298L19.9637 89Z" fill="white"/>
<path d="M14.064 102.243L19.9637 108.142L22.1687 106.003L16.2305 100.076L14.064 102.243Z" fill="white"/>
<path d="M19.9637 108.142L25.9237 102.361L23.6389 100.076L17.7926 105.971L19.9637 108.142Z" fill="white"/>
<path d="M11 98.4118L13.1666 96.2453L15.3331 98.4118L13.1666 100.578L11 98.4118Z" fill="white"/>
<path d="M17.8939 98.4118L20.0605 96.2453L22.2271 98.4118L20.0605 100.578L17.8939 98.4118Z" fill="white"/>
<path d="M24.7879 98.4118L26.9544 96.2453L29.121 98.4118L26.9544 100.578L24.7879 98.4118Z" fill="white"/>
</g>
<defs>
<linearGradient id="paint0_linear" x1="20" y1="86.4307" x2="20" y2="0" gradientUnits="userSpaceOnUse">
<stop stop-color="#F2C14B"/>
<stop offset="1" stop-color="#F2C14B" stop-opacity="0"/>
</linearGradient>
<linearGradient id="paint1_linear" x1="2.23517e-07" y1="99" x2="40" y2="99" gradientUnits="userSpaceOnUse">
<stop stop-color="#F3BA2F"/>
<stop offset="1" stop-color="#FFCA49" stop-opacity="0.1"/>
</linearGradient>
</defs>
</svg>
