<svg width="40" height="159" viewBox="0 0 40 159" fill="none" xmlns="http://www.w3.org/2000/svg">
<line x1="20.5" y1="-2.18557e-08" x2="20.5" y2="119" stroke="url(#paint0_linear)"/>
<circle cx="20" cy="139" r="20" fill="url(#paint1_linear)"/>
<path d="M20.4363 148.386L15 140.232L20.4363 143.43L25.8726 140.232L20.4363 148.386Z" fill="#3C9EFE"/>
<mask id="mask0" mask-type="alpha" maskUnits="userSpaceOnUse" x="15" y="140" width="11" height="9">
<path d="M20.4363 148.386L15 140.232L20.4363 143.43L25.8726 140.232L20.4363 148.386Z" fill="#2F8DED"/>
</mask>
<g mask="url(#mask0)">
<path d="M25.8725 140.232L20.4362 148.386L15 140.232L20.4362 143.238L25.8725 140.232Z" fill="white"/>
</g>
<path d="M20.4327 130L15.1563 138.794L20.4327 142.152L25.7091 138.794L20.4327 130Z" fill="white"/>
<mask id="mask1" mask-type="alpha" maskUnits="userSpaceOnUse" x="15" y="130" width="11" height="13">
<path d="M20.4327 130L15.1563 138.794L20.4327 142.152L25.7091 138.794L20.4327 130Z" fill="white"/>
</mask>
<g mask="url(#mask1)">
<path d="M20.4336 135.917L14.5176 138.954L20.4336 142.472L26.3495 138.795L20.4336 135.917Z" fill="white"/>
</g>
<defs>
<linearGradient id="paint0_linear" x1="19.0006" y1="119" x2="19.0006" y2="0" gradientUnits="userSpaceOnUse">
<stop stop-color="#7181D2"/>
<stop offset="1" stop-color="#7181D2" stop-opacity="0"/>
</linearGradient>
<linearGradient id="paint1_linear" x1="1.43058e-06" y1="143" x2="21" y2="113.5" gradientUnits="userSpaceOnUse">
<stop stop-color="#4A5FCC"/>
<stop offset="1" stop-color="#E5E5E5" stop-opacity="0.1"/>
</linearGradient>
</defs>
</svg>
