<svg width="40" height="199" viewBox="0 0 40 199" fill="none" xmlns="http://www.w3.org/2000/svg">
<g opacity="0.15">
<line x1="20.5" y1="-2.18557e-08" x2="20.5" y2="159" stroke="url(#paint0_linear)"/>
<circle cx="20" cy="179" r="20" fill="url(#paint1_linear)"/>
<path d="M17.4879 175.48C19.0739 173.794 19.3312 171.124 19.2617 170C19.6442 170.211 20.5972 171.223 21.3484 173.583C22.2875 176.534 18.6356 179.906 17.6966 181.909C16.9454 183.511 18.0096 186.23 18.6356 187.389C17.3836 187.108 14.7334 185.85 14.1491 183.068C13.4188 179.59 15.5055 177.588 17.4879 175.48Z" fill="white"/>
<path d="M20.7211 181.277C20.7211 181.277 22.3905 178.291 22.9122 177.167C23.7817 177.659 25.4163 179.402 24.9989 182.437C24.5816 185.472 22.2514 186.793 21.1384 187.074C19.0517 184.755 20.7211 181.277 20.7211 181.277Z" fill="white"/>
</g>
<defs>
<linearGradient id="paint0_linear" x1="18.9994" y1="159" x2="18.9994" y2="0" gradientUnits="userSpaceOnUse">
<stop stop-color="#58B0EE"/>
<stop offset="1" stop-color="#58B0EE" stop-opacity="0"/>
</linearGradient>
<linearGradient id="paint1_linear" x1="2.23517e-07" y1="179" x2="40" y2="179" gradientUnits="userSpaceOnUse">
<stop stop-color="#46A8F3"/>
<stop offset="1" stop-color="#2DA9DE" stop-opacity="0.1"/>
</linearGradient>
</defs>
</svg>
