<svg width="40" height="122" viewBox="0 0 40 122" fill="none" xmlns="http://www.w3.org/2000/svg">
<g opacity="0.15">
<line x1="20.5" y1="-2.18557e-08" x2="20.5" y2="82" stroke="url(#paint0_linear)"/>
<circle cx="20" cy="102" r="20" fill="url(#paint1_linear)"/>
<path fill-rule="evenodd" clip-rule="evenodd" d="M14.3474 94.1079C14.3984 94.04 14.4784 94 14.5633 94H28.2763C28.4986 94 28.6255 94.2538 28.4922 94.4316L26.1991 97.489C26.1482 97.5569 26.0682 97.5969 25.9833 97.5969H12.2703C12.048 97.5969 11.9211 97.3431 12.0544 97.1652L14.3474 94.1079ZM14.3476 102.884C14.3985 102.952 14.4785 102.992 14.5634 102.992H28.2765C28.4988 102.992 28.6257 102.738 28.4923 102.56L26.1993 99.5031C26.1484 99.4352 26.0684 99.3952 25.9835 99.3952L12.2704 99.3952C12.0481 99.3952 11.9212 99.649 12.0546 99.8268L14.3476 102.884ZM14.5635 104.79C14.4786 104.79 14.3986 104.83 14.3477 104.898L12.0547 107.956C11.9213 108.133 12.0482 108.387 12.2705 108.387H25.9836C26.0685 108.387 26.1484 108.347 26.1994 108.279L28.4924 105.222C28.6258 105.044 28.4989 104.79 28.2766 104.79H14.5635Z" fill="white"/>
</g>
<defs>
<linearGradient id="paint0_linear" x1="19" y1="82" x2="19" y2="0" gradientUnits="userSpaceOnUse">
<stop stop-color="#A65CE8"/>
<stop offset="1" stop-color="#A65CE8" stop-opacity="0"/>
</linearGradient>
<linearGradient id="paint1_linear" x1="2.23517e-07" y1="102" x2="40" y2="102" gradientUnits="userSpaceOnUse">
<stop stop-color="#A953EA"/>
<stop offset="1" stop-color="#2FCFB7" stop-opacity="0.1"/>
</linearGradient>
</defs>
</svg>
