<svg width="116" height="126" viewBox="0 0 116 126" fill="none" xmlns="http://www.w3.org/2000/svg">
<path fill-rule="evenodd" clip-rule="evenodd" d="M53.6003 13.3094C56.0755 11.8803 59.1251 11.8803 61.6003 13.3094L98.2006 34.4406C100.676 35.8697 102.201 38.5107 102.201 41.3688V83.6312C102.201 86.4893 100.676 89.1303 98.2006 90.5594L61.6003 111.691C59.1251 113.12 56.0755 113.12 53.6003 111.691L17 90.5594C14.5248 89.1303 13 86.4893 13 83.6312V41.3688C13 38.5107 14.5248 35.8697 17 34.4406L53.6003 13.3094Z" stroke="url(#paint0_linear)" stroke-width="3"/>
<path fill-rule="evenodd" clip-rule="evenodd" d="M56.9011 44.4919C56.9106 44.3007 56.8814 44.1096 56.8152 43.93C56.7491 43.7504 56.6473 43.586 56.5161 43.4467C56.3848 43.3074 56.2268 43.196 56.0515 43.1192C55.8761 43.0425 55.6871 43.0019 55.4957 43H43.8168C43.4607 43.011 43.1191 43.1428 42.8479 43.3738C42.5768 43.6048 42.3923 43.9212 42.3249 44.271L35.0576 81.536C34.9873 81.829 34.9813 82.1338 35.0399 82.4295C35.0984 82.7251 35.2202 83.0046 35.3969 83.2487C35.5261 83.4143 35.6912 83.5485 35.8798 83.6411C36.0683 83.7337 36.2754 83.7823 36.4854 83.7834H53.9974C54.7452 83.7834 55.3812 83.1856 55.6039 82.3459C55.6522 82.1641 55.6811 81.9709 55.6875 81.77C55.6876 81.7667 55.6877 81.7634 55.6878 81.7601L56.9011 44.4919ZM61.0532 57.139C61.2363 57.2934 61.4518 57.4037 61.6848 57.4547C61.7801 57.4756 61.8784 57.4866 61.9786 57.4866H75.5368L75.54 57.4898C75.7434 57.4899 75.9441 57.4438 76.1271 57.3551C76.3101 57.2664 76.4706 57.1373 76.5965 56.9776C76.7371 56.7947 76.8363 56.5835 76.8871 56.3585C76.9058 56.2757 76.9179 56.1917 76.9232 56.1075C76.9233 56.1052 76.9234 56.1029 76.9236 56.1007C76.9246 56.0828 76.9254 56.065 76.9258 56.0471C76.9289 55.9224 76.9173 55.7973 76.891 55.6746L74.666 44.271C74.5983 43.9202 74.4129 43.603 74.1405 43.3719C73.8681 43.1408 73.5249 43.0096 73.1677 43H61.492C61.301 43.0028 61.1125 43.044 60.9378 43.1211C60.763 43.1982 60.6056 43.3096 60.4747 43.4488C60.3439 43.588 60.2424 43.752 60.1763 43.9312C60.1102 44.1104 60.0807 44.3011 60.0898 44.4919L60.4611 55.8987C60.4776 56.4006 60.708 56.8481 61.0532 57.139ZM74.9381 55.5497L72.87 44.9433H61.9946L62.3404 55.5465L62.3468 55.5497H74.9381ZM53.7733 81.8401C53.7747 81.8351 53.776 81.83 53.7773 81.825C53.7807 81.8112 53.7837 81.7973 53.7862 81.7834C53.7908 81.758 53.7938 81.7324 53.7952 81.7066C53.7954 81.7039 53.7955 81.7012 53.7956 81.6985C53.7956 81.6976 53.7957 81.6968 53.7957 81.696L54.9899 44.9433H44.1209L36.9272 81.8401H53.7733Z" fill="white"/>
<path d="M80.5041 83.7834H62.9889C62.0765 83.7834 61.3306 82.8934 61.2953 81.7601L60.7255 64.2001C60.7038 63.7196 60.873 63.2501 61.1961 62.8939C61.3289 62.7493 61.4902 62.6337 61.6698 62.5543C61.8494 62.475 62.0434 62.4336 62.2398 62.4329H76.8384C77.6196 62.4329 78.3335 63.0956 78.5064 63.9792L81.932 81.536C82.06 82.1923 81.932 82.8165 81.5894 83.2487C81.4605 83.4139 81.2959 83.5478 81.108 83.6404C80.9201 83.733 80.7136 83.7819 80.5041 83.7834ZM63.213 81.8401H80.0591L76.656 64.3761H62.6336L63.1938 81.696C63.1938 81.7441 63.2034 81.7921 63.2162 81.8401H63.213Z" fill="#9BC456"/>
<defs>
<linearGradient id="paint0_linear" x1="57.6003" y1="6.59437" x2="57.6003" y2="118.406" gradientUnits="userSpaceOnUse">
<stop stop-color="#9BC456"/>
<stop offset="1" stop-color="#345FFA" stop-opacity="0.6"/>
</linearGradient>
</defs>
</svg>
