<svg width="116" height="126" viewBox="0 0 116 126" fill="none" xmlns="http://www.w3.org/2000/svg">
<g filter="url(#filter0_d)">
<path fill-rule="evenodd" clip-rule="evenodd" d="M54.0002 13.8094C56.4754 12.3803 59.525 12.3803 62.0002 13.8094L98.6005 34.9406C101.076 36.3697 102.601 39.0107 102.601 41.8688V84.1312C102.601 86.9893 101.076 89.6303 98.6005 91.0594L62.0002 112.191C59.525 113.62 56.4754 113.62 54.0002 112.191L17.3999 91.0594C14.9247 89.6303 13.3999 86.9893 13.3999 84.1312V41.8688C13.3999 39.0107 14.9247 36.3697 17.3999 34.9406L54.0002 13.8094Z" stroke="url(#paint0_linear)" stroke-width="3"/>
<g filter="url(#filter1_d)">
<path d="M62.5417 41.6199C63.0838 41.6966 63.6332 41.5531 64.0689 41.2223C65.8941 39.8364 68.0242 39.104 70.2287 39.104C75.8861 39.104 80.4887 43.7066 80.4887 49.364C80.4887 49.5502 80.4556 49.7941 80.4191 50.0629C80.4002 50.2023 80.3804 50.3483 80.3638 50.4965C80.2657 51.3733 80.7392 52.2147 81.5395 52.586C85.8874 54.6033 88.8335 58.9768 88.8335 63.728C88.8335 70.5168 83.1735 76.0399 76.3847 76.0399H39.4488C32.66 76.0399 27 70.5168 27 63.728C27 58.977 29.946 54.6037 34.2935 52.5863M62.5417 41.6199C62 41.5435 61.5112 41.2541 61.1838 40.8156C58.4243 37.1197 54.2419 35 49.7088 35C41.7885 35 35.3448 41.4437 35.3448 49.364C35.3448 49.5127 35.3711 49.7058 35.4016 49.9305C35.4273 50.1188 35.4559 50.3292 35.4746 50.5543M62.5417 41.6199L62.4021 42.6101M62.5417 41.6199L62.4015 42.61C62.4017 42.61 62.4019 42.6101 62.4021 42.6101M35.4746 50.5543C35.5462 51.4124 35.0745 52.2239 34.2935 52.5863M35.4746 50.5543L36.4712 50.4714C36.4502 50.2188 36.418 49.9831 36.3927 49.797C36.3901 49.7782 36.3877 49.76 36.3853 49.7423C36.3556 49.5232 36.3448 49.42 36.3448 49.364C36.3448 41.996 42.3408 36 49.7088 36C53.9199 36 57.8078 37.9656 60.3825 41.4139C60.8694 42.066 61.5964 42.4966 62.4021 42.6101M35.4746 50.5543L34.7144 53.4934M34.2935 52.5863L34.7144 53.4934M34.2935 52.5863L34.7144 53.4934C34.7144 53.4934 34.7144 53.4934 34.7144 53.4934M34.7144 53.4934C30.698 55.3571 28 59.3901 28 63.728C28 69.9502 33.1978 75.0399 39.4488 75.0399H76.3847C82.6357 75.0399 87.8335 69.9502 87.8335 63.728C87.8335 59.3898 85.1354 55.3568 81.1186 53.4932C79.9283 52.9409 79.2241 51.6894 79.37 50.3853C79.3879 50.2253 79.4106 50.0578 79.4302 49.9132C79.4385 49.8522 79.4462 49.7953 79.4528 49.7447C79.4782 49.5494 79.4887 49.4332 79.4887 49.364C79.4887 44.2589 75.3338 40.104 70.2287 40.104C68.2516 40.104 66.3322 40.7593 64.6737 42.0188L64.6736 42.0188C64.0261 42.5103 63.209 42.7241 62.4021 42.6101" stroke="white" stroke-width="2"/>
<path d="M59.9 51.8236V52.1768L60.2329 52.2948C61.5534 52.7632 62.5 54.0242 62.5 55.5C62.5 56.3697 62.1718 57.1634 61.6314 57.7663L61.3323 58.1L61.6314 58.4337C62.1717 59.0366 62.5 59.8303 62.5 60.7C62.5 62.1758 61.5534 63.4368 60.2329 63.9052L59.9 64.0232V64.3764V65.9C59.9 66.3418 59.5418 66.7 59.1 66.7C58.6582 66.7 58.3 66.3418 58.3 65.9V64.6V64.1H57.8H55.2H54.7V64.6V65.9C54.7 66.3418 54.3418 66.7 53.9 66.7C53.4582 66.7 53.1 66.3418 53.1 65.9V64.6V64.1H52.6H51.3C50.8582 64.1 50.5 63.7418 50.5 63.3C50.5 62.8582 50.8582 62.5 51.3 62.5H52.6H53.1V62V54.2V53.7H52.6H51.3C50.8582 53.7 50.5 53.3418 50.5 52.9C50.5 52.4582 50.8582 52.1 51.3 52.1H52.6H53.1V51.6V50.3C53.1 49.8582 53.4582 49.5 53.9 49.5C54.3418 49.5 54.7 49.8582 54.7 50.3V51.6V52.1H55.2H57.8H58.3V51.6V50.3C58.3 49.8582 58.6582 49.5 59.1 49.5C59.5418 49.5 59.9 49.8582 59.9 50.3V51.8236Z" stroke="#9BC456"/>
<path d="M47.5 76V82.5C47.5 83.0523 47.0523 83.5 46.5 83.5H40" stroke="white" stroke-width="2" stroke-linecap="round"/>
<circle cx="37" cy="83.5" r="2.3" stroke="white" stroke-width="1.4"/>
<path d="M69.1157 76V82.5C69.1157 83.0523 69.5634 83.5 70.1157 83.5H76.6157" stroke="white" stroke-width="2" stroke-linecap="round"/>
<circle r="2.3" transform="matrix(-1 0 0 1 79.6157 83.5)" stroke="white" stroke-width="1.4"/>
<path d="M57.9165 76V83.5" stroke="white" stroke-width="2" stroke-linecap="round"/>
<circle r="2.3" transform="matrix(-1 0 0 1 58 86.5)" stroke="white" stroke-width="1.4"/>
</g>
</g>
<defs>
<filter id="filter0_d" x="0" y="-2" width="116" height="130" filterUnits="userSpaceOnUse" color-interpolation-filters="sRGB">
<feFlood flood-opacity="0" result="BackgroundImageFix"/>
<feColorMatrix in="SourceAlpha" type="matrix" values="0 0 0 0 0 0 0 0 0 0 0 0 0 0 0 0 0 0 127 0"/>
<feOffset/>
<feGaussianBlur stdDeviation="5.5"/>
<feColorMatrix type="matrix" values="0 0 0 0 0.607843 0 0 0 0 0.768627 0 0 0 0 0.337255 0 0 0 0.59 0"/>
<feBlend mode="normal" in2="BackgroundImageFix" result="effect1_dropShadow"/>
<feBlend mode="normal" in="SourceGraphic" in2="effect1_dropShadow" result="shape"/>
</filter>
<filter id="filter1_d" x="27" y="34" width="66.8335" height="58.5" filterUnits="userSpaceOnUse" color-interpolation-filters="sRGB">
<feFlood flood-opacity="0" result="BackgroundImageFix"/>
<feColorMatrix in="SourceAlpha" type="matrix" values="0 0 0 0 0 0 0 0 0 0 0 0 0 0 0 0 0 0 127 0"/>
<feOffset dx="3" dy="1"/>
<feGaussianBlur stdDeviation="1"/>
<feColorMatrix type="matrix" values="0 0 0 0 0.101961 0 0 0 0 0.133333 0 0 0 0 0.160784 0 0 0 1 0"/>
<feBlend mode="normal" in2="BackgroundImageFix" result="effect1_dropShadow"/>
<feBlend mode="normal" in="SourceGraphic" in2="effect1_dropShadow" result="shape"/>
</filter>
<linearGradient id="paint0_linear" x1="58" y1="115" x2="58" y2="12" gradientUnits="userSpaceOnUse">
<stop stop-color="#9BC456"/>
<stop offset="1" stop-color="#345FFA" stop-opacity="0.6"/>
</linearGradient>
</defs>
</svg>
