<svg width="94" height="108" viewBox="0 0 94 108" fill="none" xmlns="http://www.w3.org/2000/svg">
<path fill-rule="evenodd" clip-rule="evenodd" d="M43.0002 4.8094C45.4754 3.38034 48.525 3.38034 51.0002 4.8094L87.6005 25.9406C90.0757 27.3697 91.6005 30.0107 91.6005 32.8688V75.1312C91.6005 77.9893 90.0757 80.6303 87.6005 82.0594L51.0002 103.191C48.525 104.62 45.4754 104.62 43.0002 103.191L6.3999 82.0594C3.92469 80.6303 2.3999 77.9893 2.3999 75.1312V32.8688C2.3999 30.0107 3.92469 27.3697 6.3999 25.9406L43.0002 4.8094Z" stroke="url(#paint0_linear)" stroke-width="3"/>
<path d="M47.3335 62.3333C51.7518 62.3333 55.3335 58.7515 55.3335 54.3333C55.3335 49.915 51.7518 46.3333 47.3335 46.3333C42.9152 46.3333 39.3335 49.915 39.3335 54.3333C39.3335 58.7515 42.9152 62.3333 47.3335 62.3333Z" stroke="#9BC456" stroke-width="2" stroke-linecap="round" stroke-linejoin="round"/>
<path d="M67.0667 62.3333C66.7117 63.1376 66.6058 64.0298 66.7627 64.8949C66.9195 65.76 67.3319 66.5582 67.9467 67.1867L68.1067 67.3467C68.6025 67.842 68.9959 68.4302 69.2643 69.0776C69.5327 69.7251 69.6709 70.4191 69.6709 71.12C69.6709 71.8209 69.5327 72.5149 69.2643 73.1623C68.9959 73.8098 68.6025 74.398 68.1067 74.8933C67.6113 75.3892 67.0231 75.7826 66.3757 76.051C65.7282 76.3194 65.0342 76.4575 64.3333 76.4575C63.6324 76.4575 62.9384 76.3194 62.291 76.051C61.6435 75.7826 61.0553 75.3892 60.56 74.8933L60.4 74.7333C59.7715 74.1186 58.9733 73.7062 58.1082 73.5493C57.2432 73.3925 56.351 73.4984 55.5467 73.8533C54.7579 74.1914 54.0853 74.7527 53.6115 75.4681C53.1377 76.1835 52.8834 77.0219 52.88 77.88V78.3333C52.88 79.7478 52.3181 81.1044 51.3179 82.1046C50.3177 83.1048 48.9612 83.6667 47.5467 83.6667C46.1322 83.6667 44.7756 83.1048 43.7754 82.1046C42.7752 81.1044 42.2133 79.7478 42.2133 78.3333V78.0933C42.1927 77.2107 41.907 76.3547 41.3934 75.6365C40.8797 74.9184 40.162 74.3714 39.3333 74.0667C38.529 73.7117 37.6368 73.6058 36.7718 73.7627C35.9067 73.9195 35.1085 74.3319 34.48 74.9467L34.32 75.1067C33.8247 75.6025 33.2365 75.9959 32.589 76.2643C31.9416 76.5327 31.2475 76.6709 30.5467 76.6709C29.8458 76.6709 29.1518 76.5327 28.5043 76.2643C27.8569 75.9959 27.2687 75.6025 26.7733 75.1067C26.2775 74.6113 25.8841 74.0231 25.6157 73.3757C25.3473 72.7282 25.2091 72.0342 25.2091 71.3333C25.2091 70.6324 25.3473 69.9384 25.6157 69.291C25.8841 68.6435 26.2775 68.0553 26.7733 67.56L26.9333 67.4C27.5481 66.7715 27.9605 65.9733 28.1173 65.1082C28.2742 64.2432 28.1683 63.351 27.8133 62.5467C27.4753 61.7579 26.914 61.0853 26.1986 60.6115C25.4831 60.1377 24.6448 59.8834 23.7867 59.88H23.3333C21.9188 59.88 20.5623 59.3181 19.5621 58.3179C18.5619 57.3177 18 55.9612 18 54.5467C18 53.1322 18.5619 51.7756 19.5621 50.7754C20.5623 49.7752 21.9188 49.2133 23.3333 49.2133H23.5733C24.456 49.1927 25.312 48.907 26.0301 48.3934C26.7482 47.8797 27.2952 47.162 27.6 46.3333C27.955 45.529 28.0609 44.6368 27.904 43.7718C27.7472 42.9067 27.3348 42.1085 26.72 41.48L26.56 41.32C26.0641 40.8247 25.6707 40.2365 25.4023 39.589C25.134 38.9416 24.9958 38.2475 24.9958 37.5467C24.9958 36.8458 25.134 36.1518 25.4023 35.5043C25.6707 34.8569 26.0641 34.2687 26.56 33.7733C27.0553 33.2775 27.6435 32.8841 28.291 32.6157C28.9384 32.3473 29.6325 32.2091 30.3333 32.2091C31.0342 32.2091 31.7282 32.3473 32.3757 32.6157C33.0231 32.8841 33.6113 33.2775 34.1067 33.7733L34.2667 33.9333C34.8951 34.5481 35.6934 34.9605 36.5584 35.1173C37.4235 35.2742 38.3157 35.1683 39.12 34.8133H39.3333C40.122 34.4753 40.7947 33.914 41.2685 33.1986C41.7423 32.4831 41.9966 31.6448 42 30.7867V30.3333C42 28.9188 42.5619 27.5623 43.5621 26.5621C44.5623 25.5619 45.9188 25 47.3333 25C48.7478 25 50.1044 25.5619 51.1046 26.5621C52.1048 27.5623 52.6667 28.9188 52.6667 30.3333V30.5733C52.6701 31.4314 52.9243 32.2698 53.3982 32.9852C53.872 33.7007 54.5446 34.262 55.3333 34.6C56.1376 34.955 57.0298 35.0609 57.8949 34.904C58.76 34.7472 59.5582 34.3348 60.1867 33.72L60.3467 33.56C60.842 33.0641 61.4302 32.6707 62.0776 32.4023C62.7251 32.134 63.4191 31.9958 64.12 31.9958C64.8209 31.9958 65.5149 32.134 66.1623 32.4023C66.8098 32.6707 67.398 33.0641 67.8933 33.56C68.3892 34.0553 68.7826 34.6435 69.051 35.291C69.3194 35.9384 69.4575 36.6325 69.4575 37.3333C69.4575 38.0342 69.3194 38.7282 69.051 39.3757C68.7826 40.0231 68.3892 40.6113 67.8933 41.1067L67.7333 41.2667C67.1186 41.8951 66.7062 42.6934 66.5493 43.5584C66.3925 44.4235 66.4984 45.3157 66.8533 46.12V46.3333C67.1914 47.122 67.7527 47.7947 68.4681 48.2685C69.1835 48.7423 70.0219 48.9966 70.88 49H71.3333C72.7478 49 74.1044 49.5619 75.1046 50.5621C76.1048 51.5623 76.6667 52.9188 76.6667 54.3333C76.6667 55.7478 76.1048 57.1044 75.1046 58.1046C74.1044 59.1048 72.7478 59.6667 71.3333 59.6667H71.0933C70.2352 59.6701 69.3969 59.9243 68.6814 60.3982C67.966 60.872 67.4047 61.5446 67.0667 62.3333V62.3333Z" stroke="white" stroke-width="2" stroke-linecap="round" stroke-linejoin="round"/>
<defs>
<linearGradient id="paint0_linear" x1="47.0002" y1="-1.90563" x2="47.0002" y2="109.906" gradientUnits="userSpaceOnUse">
<stop stop-color="#9BC456"/>
<stop offset="1" stop-color="#345FFA" stop-opacity="0.6"/>
</linearGradient>
</defs>
</svg>
