<svg width="116" height="126" viewBox="0 0 116 126" fill="none" xmlns="http://www.w3.org/2000/svg">
<path fill-rule="evenodd" clip-rule="evenodd" d="M53.9997 13.8094C56.4749 12.3803 59.5245 12.3803 61.9997 13.8094L98.6 34.9406C101.075 36.3697 102.6 39.0107 102.6 41.8688V84.1312C102.6 86.9893 101.075 89.6303 98.6 91.0594L61.9997 112.191C59.5245 113.62 56.4749 113.62 53.9997 112.191L17.3994 91.0594C14.9242 89.6303 13.3994 86.9893 13.3994 84.1312V41.8688C13.3994 39.0107 14.9242 36.3697 17.3994 34.9406L53.9997 13.8094Z" stroke="url(#paint0_linear)" stroke-width="3"/>
<path d="M58.3335 71.3333C62.7518 71.3333 66.3335 67.7515 66.3335 63.3333C66.3335 58.915 62.7518 55.3333 58.3335 55.3333C53.9152 55.3333 50.3335 58.915 50.3335 63.3333C50.3335 67.7515 53.9152 71.3333 58.3335 71.3333Z" stroke="#9BC456" stroke-width="2" stroke-linecap="round" stroke-linejoin="round"/>
<path d="M78.0667 71.3333C77.7117 72.1376 77.6058 73.0298 77.7627 73.8949C77.9195 74.76 78.3319 75.5582 78.9467 76.1867L79.1067 76.3467C79.6025 76.842 79.9959 77.4302 80.2643 78.0776C80.5327 78.7251 80.6709 79.4191 80.6709 80.12C80.6709 80.8209 80.5327 81.5149 80.2643 82.1623C79.9959 82.8098 79.6025 83.398 79.1067 83.8933C78.6113 84.3892 78.0231 84.7826 77.3757 85.051C76.7282 85.3194 76.0342 85.4575 75.3333 85.4575C74.6324 85.4575 73.9384 85.3194 73.291 85.051C72.6435 84.7826 72.0553 84.3892 71.56 83.8933L71.4 83.7333C70.7715 83.1186 69.9733 82.7062 69.1082 82.5493C68.2432 82.3925 67.351 82.4984 66.5467 82.8533C65.7579 83.1914 65.0853 83.7527 64.6115 84.4681C64.1377 85.1835 63.8834 86.0219 63.88 86.88V87.3333C63.88 88.7478 63.3181 90.1044 62.3179 91.1046C61.3177 92.1048 59.9612 92.6667 58.5467 92.6667C57.1322 92.6667 55.7756 92.1048 54.7754 91.1046C53.7752 90.1044 53.2133 88.7478 53.2133 87.3333V87.0933C53.1927 86.2107 52.907 85.3547 52.3934 84.6365C51.8797 83.9184 51.162 83.3714 50.3333 83.0667C49.529 82.7117 48.6368 82.6058 47.7718 82.7627C46.9067 82.9195 46.1085 83.3319 45.48 83.9467L45.32 84.1067C44.8247 84.6025 44.2365 84.9959 43.589 85.2643C42.9416 85.5327 42.2475 85.6709 41.5467 85.6709C40.8458 85.6709 40.1518 85.5327 39.5043 85.2643C38.8569 84.9959 38.2687 84.6025 37.7733 84.1067C37.2775 83.6113 36.8841 83.0231 36.6157 82.3757C36.3473 81.7282 36.2091 81.0342 36.2091 80.3333C36.2091 79.6324 36.3473 78.9384 36.6157 78.291C36.8841 77.6435 37.2775 77.0553 37.7733 76.56L37.9333 76.4C38.5481 75.7715 38.9605 74.9733 39.1173 74.1082C39.2742 73.2432 39.1683 72.351 38.8133 71.5467C38.4753 70.7579 37.914 70.0853 37.1986 69.6115C36.4831 69.1377 35.6448 68.8834 34.7867 68.88H34.3333C32.9188 68.88 31.5623 68.3181 30.5621 67.3179C29.5619 66.3177 29 64.9612 29 63.5467C29 62.1322 29.5619 60.7756 30.5621 59.7754C31.5623 58.7752 32.9188 58.2133 34.3333 58.2133H34.5733C35.456 58.1927 36.312 57.907 37.0301 57.3934C37.7482 56.8797 38.2952 56.162 38.6 55.3333C38.955 54.529 39.0609 53.6368 38.904 52.7718C38.7472 51.9067 38.3348 51.1085 37.72 50.48L37.56 50.32C37.0641 49.8247 36.6707 49.2365 36.4023 48.589C36.134 47.9416 35.9958 47.2475 35.9958 46.5467C35.9958 45.8458 36.134 45.1518 36.4023 44.5043C36.6707 43.8569 37.0641 43.2687 37.56 42.7733C38.0553 42.2775 38.6435 41.8841 39.291 41.6157C39.9384 41.3473 40.6325 41.2091 41.3333 41.2091C42.0342 41.2091 42.7282 41.3473 43.3757 41.6157C44.0231 41.8841 44.6113 42.2775 45.1067 42.7733L45.2667 42.9333C45.8951 43.5481 46.6934 43.9605 47.5584 44.1173C48.4235 44.2742 49.3157 44.1683 50.12 43.8133H50.3333C51.122 43.4753 51.7947 42.914 52.2685 42.1986C52.7423 41.4831 52.9966 40.6448 53 39.7867V39.3333C53 37.9188 53.5619 36.5623 54.5621 35.5621C55.5623 34.5619 56.9188 34 58.3333 34C59.7478 34 61.1044 34.5619 62.1046 35.5621C63.1048 36.5623 63.6667 37.9188 63.6667 39.3333V39.5733C63.6701 40.4314 63.9243 41.2698 64.3982 41.9852C64.872 42.7007 65.5446 43.262 66.3333 43.6C67.1376 43.955 68.0298 44.0609 68.8949 43.904C69.76 43.7472 70.5582 43.3348 71.1867 42.72L71.3467 42.56C71.842 42.0641 72.4302 41.6707 73.0776 41.4023C73.7251 41.134 74.4191 40.9958 75.12 40.9958C75.8209 40.9958 76.5149 41.134 77.1623 41.4023C77.8098 41.6707 78.398 42.0641 78.8933 42.56C79.3892 43.0553 79.7826 43.6435 80.051 44.291C80.3194 44.9384 80.4575 45.6325 80.4575 46.3333C80.4575 47.0342 80.3194 47.7282 80.051 48.3757C79.7826 49.0231 79.3892 49.6113 78.8933 50.1067L78.7333 50.2667C78.1186 50.8951 77.7062 51.6934 77.5493 52.5584C77.3925 53.4235 77.4984 54.3157 77.8533 55.12V55.3333C78.1914 56.122 78.7527 56.7947 79.4681 57.2685C80.1835 57.7423 81.0219 57.9966 81.88 58H82.3333C83.7478 58 85.1044 58.5619 86.1046 59.5621C87.1048 60.5623 87.6667 61.9188 87.6667 63.3333C87.6667 64.7478 87.1048 66.1044 86.1046 67.1046C85.1044 68.1048 83.7478 68.6667 82.3333 68.6667H82.0933C81.2352 68.6701 80.3969 68.9243 79.6814 69.3982C78.966 69.872 78.4047 70.5446 78.0667 71.3333V71.3333Z" stroke="white" stroke-width="2" stroke-linecap="round" stroke-linejoin="round"/>
<defs>
<linearGradient id="paint0_linear" x1="57.9997" y1="7.09437" x2="57.9997" y2="118.906" gradientUnits="userSpaceOnUse">
<stop stop-color="#9BC456"/>
<stop offset="1" stop-color="#345FFA" stop-opacity="0.6"/>
</linearGradient>
</defs>
</svg>
