<svg width="116" height="126" viewBox="0 0 116 126" fill="none" xmlns="http://www.w3.org/2000/svg">
<path fill-rule="evenodd" clip-rule="evenodd" d="M53.9997 13.8094C56.4749 12.3803 59.5245 12.3803 61.9997 13.8094L98.6 34.9406C101.075 36.3697 102.6 39.0107 102.6 41.8688V84.1312C102.6 86.9893 101.075 89.6303 98.6 91.0594L61.9997 112.191C59.5245 113.62 56.4749 113.62 53.9997 112.191L17.3994 91.0594C14.9242 89.6303 13.3994 86.9893 13.3994 84.1312V41.8688C13.3994 39.0107 14.9242 36.3697 17.3994 34.9406L53.9997 13.8094Z" stroke="url(#paint0_linear)" stroke-width="3"/>
<path fill-rule="evenodd" clip-rule="evenodd" d="M58.334 56.3333C54.468 56.3333 51.334 59.4673 51.334 63.3333C51.334 67.1992 54.468 70.3333 58.334 70.3333C62.2 70.3333 65.334 67.1992 65.334 63.3333C65.334 59.4673 62.2 56.3333 58.334 56.3333ZM49.334 63.3333C49.334 58.3627 53.3634 54.3333 58.334 54.3333C63.3045 54.3333 67.334 58.3627 67.334 63.3333C67.334 68.3038 63.3045 72.3333 58.334 72.3333C53.3634 72.3333 49.334 68.3038 49.334 63.3333Z" fill="#9BC456"/>
<path fill-rule="evenodd" clip-rule="evenodd" d="M58.3333 35C57.1841 35 56.0819 35.4565 55.2692 36.2692C54.4565 37.0819 54 38.1841 54 39.3333V39.7867L54 39.7907C53.9958 40.8438 53.6837 41.8727 53.1023 42.7507C52.5208 43.6288 51.6952 44.3176 50.7273 44.7325C50.6028 44.7858 50.4688 44.8133 50.3333 44.8133H50.3196C49.3869 45.1801 48.369 45.2806 47.38 45.1013C46.3184 44.9088 45.3387 44.4027 44.5674 43.6482L44.5595 43.6405L44.3996 43.4804C43.9971 43.0775 43.5188 42.7575 42.9927 42.5395C42.4667 42.3214 41.9028 42.2091 41.3333 42.2091C40.7639 42.2091 40.2 42.3214 39.6739 42.5395C39.1479 42.7575 38.6699 43.0771 38.2675 43.48L38.2667 43.4808C37.8638 43.8833 37.5442 44.3612 37.3261 44.8873C37.108 45.4133 36.9958 45.9772 36.9958 46.5467C36.9958 47.1161 37.108 47.68 37.3261 48.2061C37.5442 48.7321 37.8638 49.21 38.2667 49.6125L38.4349 49.7807C39.1894 50.552 39.6955 51.5317 39.888 52.5934C40.0786 53.6446 39.953 54.7286 39.5275 55.7082C39.1514 56.7126 38.4846 57.5825 37.6119 58.2067C36.7306 58.8371 35.68 59.1877 34.5967 59.2131L34.5733 59.2133H34.3333C33.1841 59.2133 32.0819 59.6699 31.2692 60.4825C30.4565 61.2952 30 62.3974 30 63.5467C30 64.6959 30.4565 65.7981 31.2692 66.6108C32.0819 67.4235 33.1841 67.88 34.3333 67.88H34.7907C35.8438 67.8842 36.8727 68.1963 37.7507 68.7777C38.6273 69.3582 39.3153 70.1819 39.7304 71.1478C40.1643 72.1336 40.2935 73.2267 40.1013 74.2866C39.9088 75.3483 39.4027 76.3279 38.6482 77.0993L38.6405 77.1071L38.4804 77.2671C38.0775 77.6696 37.7575 78.1479 37.5395 78.6739C37.3214 79.2 37.2091 79.7639 37.2091 80.3333C37.2091 80.9028 37.3214 81.4667 37.5395 81.9927C37.7575 82.5188 38.0771 82.9967 38.48 83.3992L38.4808 83.4C38.8833 83.8028 39.3612 84.1225 39.8873 84.3405C40.4133 84.5586 40.9772 84.6709 41.5467 84.6709C42.1161 84.6709 42.68 84.5586 43.2061 84.3405C43.7321 84.1225 44.2101 83.8028 44.6125 83.4L44.7807 83.2318C45.552 82.4773 46.5317 81.9712 47.5934 81.7787C48.6447 81.5881 49.7286 81.7136 50.7082 82.1391C51.7126 82.5152 52.5825 83.182 53.2067 84.0548C53.8371 84.9361 54.1877 85.9867 54.2131 87.0699L54.2133 87.0933V87.3333C54.2133 88.4826 54.6699 89.5848 55.4825 90.3975C56.2952 91.2101 57.3974 91.6667 58.5467 91.6667C59.6959 91.6667 60.7981 91.2101 61.6108 90.3975C62.4235 89.5848 62.88 88.4826 62.88 87.3333V86.88L62.88 86.876C62.8842 85.8229 63.1963 84.794 63.7777 83.9159C64.3582 83.0394 65.1819 82.3514 66.1477 81.9364C67.1336 81.5024 68.2267 81.3732 69.2866 81.5654C70.3483 81.7579 71.3279 82.264 72.0993 83.0185L72.1071 83.0262L72.2671 83.1862C72.6696 83.5891 73.1479 83.9091 73.6739 84.1272C74.2 84.3453 74.7639 84.4575 75.3333 84.4575C75.9028 84.4575 76.4667 84.3453 76.9927 84.1272C77.5188 83.9091 77.9967 83.5895 78.3992 83.1866L78.4 83.1858C78.8028 82.7834 79.1225 82.3055 79.3405 81.7794C79.5586 81.2533 79.6709 80.6895 79.6709 80.12C79.6709 79.5505 79.5586 78.9866 79.3405 78.4606C79.1225 77.9345 78.8028 77.4566 78.4 77.0542L78.2318 76.886C77.4773 76.1147 76.9712 75.135 76.7787 74.0733C76.5865 73.0134 76.7157 71.9202 77.1497 70.9344C77.5648 69.9686 78.2528 69.1449 79.1293 68.5644C80.0073 67.9829 81.0362 67.6709 82.0893 67.6667L82.0933 67.6667L82.3333 67.6667C83.4826 67.6667 84.5848 67.2101 85.3975 66.3975C86.2101 65.5848 86.6667 64.4826 86.6667 63.3333C86.6667 62.1841 86.2101 61.0819 85.3975 60.2692C84.5848 59.4565 83.4826 59 82.3333 59H81.88L81.876 59C80.8229 58.9958 79.794 58.6837 78.9159 58.1023C78.0379 57.5208 77.3491 56.6952 76.9342 55.7273C76.8808 55.6028 76.8533 55.4688 76.8533 55.3333V55.3196C76.4865 54.3869 76.386 53.369 76.5654 52.38C76.7579 51.3184 77.264 50.3387 78.0185 49.5674L78.0262 49.5595L78.1862 49.3996C78.5891 48.9971 78.9091 48.5188 79.1272 47.9927C79.3453 47.4667 79.4575 46.9028 79.4575 46.3333C79.4575 45.7639 79.3453 45.2 79.1272 44.6739C78.9091 44.1479 78.5895 43.67 78.1866 43.2675L78.1858 43.2667C77.7834 42.8638 77.3055 42.5442 76.7794 42.3261C76.2533 42.108 75.6895 41.9958 75.12 41.9958C74.5505 41.9958 73.9866 42.108 73.4606 42.3261C72.9345 42.5442 72.4566 42.8638 72.0542 43.2667L71.886 43.4349C71.1147 44.1894 70.135 44.6955 69.0733 44.888C68.0134 45.0801 66.9203 44.9509 65.9345 44.517C64.9686 44.1019 64.1449 43.4139 63.5644 42.5374C62.9829 41.6593 62.6709 40.6304 62.6667 39.5773L62.6667 39.5733V39.3333C62.6667 38.1841 62.2101 37.0819 61.3975 36.2692C60.5848 35.4565 59.4826 35 58.3333 35ZM78.0668 71.3334L78.9815 71.7371C78.7072 72.3586 78.6254 73.048 78.7466 73.7165C78.8675 74.3832 79.1848 74.9986 79.6578 75.4836L79.8134 75.6392C80.4022 76.2274 80.8694 76.9259 81.1881 77.6947C81.5068 78.4636 81.6709 79.2877 81.6709 80.12C81.6709 80.9523 81.5068 81.7764 81.1881 82.5453C80.8694 83.314 80.4024 84.0123 79.8138 84.6004C79.2257 85.1891 78.5273 85.6561 77.7586 85.9748C76.9898 86.2935 76.1656 86.4575 75.3333 86.4575C74.501 86.4575 73.6769 86.2935 72.908 85.9748C72.1392 85.656 71.4407 85.1889 70.8525 84.6L70.697 84.4445C70.2119 83.9715 69.5966 83.6542 68.9298 83.5333C68.2614 83.4121 67.5719 83.4939 66.9504 83.7682L66.9406 83.7725C66.3312 84.0337 65.8113 84.4674 65.4452 85.0202C65.0794 85.5726 64.883 86.2197 64.88 86.8822V87.3333C64.88 89.013 64.2127 90.6239 63.025 91.8117C61.8373 92.9994 60.2264 93.6667 58.5467 93.6667C56.867 93.6667 55.2561 92.9994 54.0683 91.8117C52.8806 90.6239 52.2133 89.013 52.2133 87.3333V87.1057C52.1953 86.4276 51.9747 85.7702 51.58 85.2183C51.1831 84.6634 50.6285 84.2407 49.9882 84.0052C49.9684 83.9979 49.9488 83.99 49.9296 83.9815C49.3081 83.7072 48.6186 83.6254 47.9502 83.7466C47.2834 83.8675 46.668 84.1849 46.1829 84.658L46.0275 84.8134C45.4393 85.4022 44.7408 85.8694 43.972 86.1881C43.2031 86.5068 42.379 86.6709 41.5467 86.6709C40.7144 86.6709 39.8902 86.5068 39.1214 86.1881C38.3527 85.8694 37.6543 85.4024 37.0662 84.8138C36.4776 84.2257 36.0106 83.5273 35.6919 82.7586C35.3732 81.9898 35.2091 81.1656 35.2091 80.3333C35.2091 79.501 35.3732 78.6769 35.6919 77.908C36.0106 77.1392 36.4778 76.4407 37.0666 75.8525L37.2221 75.697C37.6952 75.2119 38.0125 74.5965 38.1334 73.9298C38.2546 73.2614 38.1728 72.5719 37.8985 71.9504L37.8941 71.9406C37.6329 71.3312 37.1993 70.8113 36.6464 70.4452C36.0941 70.0794 35.4469 69.883 34.7845 69.88H34.3333C32.6536 69.88 31.0427 69.2127 29.855 68.025C28.6673 66.8373 28 65.2264 28 63.5467C28 61.867 28.6673 60.2561 29.855 59.0683C31.0427 57.8806 32.6536 57.2133 34.3333 57.2133H34.5609C35.2391 57.1953 35.8965 56.9747 36.4484 56.58C37.0033 56.1831 37.426 55.6285 37.6615 54.9882C37.6687 54.9684 37.6766 54.9488 37.6851 54.9296C37.9594 54.3081 38.0413 53.6186 37.9201 52.9502C37.7992 52.2834 37.4818 51.668 37.0087 51.1829L36.8533 51.0275C36.8532 51.0274 36.8534 51.0276 36.8533 51.0275C36.2646 50.4394 35.7972 49.7406 35.4786 48.972C35.1599 48.2031 34.9958 47.379 34.9958 46.5467C34.9958 45.7144 35.1599 44.8902 35.4786 44.1214C35.7972 43.3529 36.264 42.6547 36.8525 42.0666C37.4407 41.4778 38.1392 41.0106 38.908 40.6919C39.6769 40.3732 40.501 40.2091 41.3333 40.2091C42.1656 40.2091 42.9898 40.3732 43.7586 40.6919C44.5275 41.0106 45.226 41.4778 45.8142 42.0666L45.9696 42.222C46.4547 42.6951 47.0701 43.0125 47.7368 43.1334C48.4053 43.2546 49.0947 43.1728 49.7162 42.8985C49.8417 42.8431 49.9771 42.8141 50.1142 42.8134C50.6483 42.5477 51.1042 42.1456 51.4348 41.6464C51.8006 41.0941 51.997 40.4469 52 39.7845V39.3333C52 37.6536 52.6673 36.0427 53.855 34.855C55.0427 33.6673 56.6536 33 58.3333 33C60.013 33 61.6239 33.6673 62.8117 34.855C63.9994 36.0427 64.6667 37.6536 64.6667 39.3333V39.5711C64.6697 40.2336 64.8661 40.8808 65.2319 41.4331C65.598 41.9859 66.1178 42.4197 66.7273 42.6809L66.7371 42.6851C67.3586 42.9594 68.048 43.0413 68.7165 42.9201C69.3832 42.7992 69.9986 42.4818 70.4836 42.0088L70.6392 41.8533C71.2274 41.2644 71.9259 40.7973 72.6947 40.4786C73.4636 40.1599 74.2877 39.9958 75.12 39.9958C75.9523 39.9958 76.7764 40.1599 77.5453 40.4786C78.3138 40.7972 79.012 41.264 79.6 41.8525C80.1889 42.4407 80.656 43.1392 80.9748 43.908C81.2935 44.6769 81.4575 45.501 81.4575 46.3333C81.4575 47.1656 81.2935 47.9898 80.9748 48.7586C80.6561 49.5273 80.1891 50.2257 79.6004 50.8138C79.6003 50.8139 79.6006 50.8136 79.6004 50.8138L79.4447 50.9695C78.9716 51.4546 78.6542 52.07 78.5333 52.7368C78.4121 53.4053 78.4939 54.0947 78.7682 54.7162C78.8236 54.8417 78.8525 54.9771 78.8533 55.1142C79.119 55.6483 79.521 56.1042 80.0202 56.4348C80.5726 56.8006 81.2197 56.997 81.8822 57H82.3333C84.013 57 85.6239 57.6673 86.8117 58.855C87.9994 60.0427 88.6667 61.6536 88.6667 63.3333C88.6667 65.013 87.9994 66.6239 86.8117 67.8117C85.6239 68.9994 84.013 69.6667 82.3333 69.6667H82.0955C81.4331 69.6697 80.7859 69.8661 80.2336 70.2319C79.6807 70.598 79.247 71.1178 78.9858 71.7273L78.0668 71.3334Z" fill="white"/>
<defs>
<linearGradient id="paint0_linear" x1="57.9997" y1="7.09437" x2="57.9997" y2="118.906" gradientUnits="userSpaceOnUse">
<stop stop-color="#9BC456"/>
<stop offset="1" stop-color="#345FFA" stop-opacity="0.6"/>
</linearGradient>
</defs>
</svg>
