<svg width="116" height="126" viewBox="0 0 116 126" fill="none" xmlns="http://www.w3.org/2000/svg">
<g filter="url(#filter0_d)">
<path fill-rule="evenodd" clip-rule="evenodd" d="M54.0002 13.8094C56.4754 12.3803 59.525 12.3803 62.0002 13.8094L98.6005 34.9406C101.076 36.3697 102.601 39.0107 102.601 41.8688V84.1312C102.601 86.9893 101.076 89.6303 98.6005 91.0594L62.0002 112.191C59.525 113.62 56.4754 113.62 54.0002 112.191L17.3999 91.0594C14.9247 89.6303 13.3999 86.9893 13.3999 84.1312V41.8688C13.3999 39.0107 14.9247 36.3697 17.3999 34.9406L54.0002 13.8094Z" stroke="url(#paint0_linear)" stroke-width="3"/>
<g filter="url(#filter1_d)">
<path fill-rule="evenodd" clip-rule="evenodd" d="M64.0689 41.2223C63.6332 41.5531 63.0838 41.6966 62.5417 41.6199C61.9999 41.5435 61.5112 41.2541 61.1838 40.8156C58.4243 37.1197 54.2419 35 49.7088 35C41.7885 35 35.3448 41.4437 35.3448 49.364C35.3448 49.5127 35.3711 49.7058 35.4016 49.9305C35.4273 50.1188 35.4559 50.3292 35.4746 50.5543C35.5462 51.4124 35.0745 52.2239 34.2935 52.5863C29.946 54.6037 27 58.977 27 63.728C27 70.5168 32.66 76.0399 39.4488 76.0399H76.3847C83.1735 76.0399 88.8335 70.5168 88.8335 63.728C88.8335 58.9768 85.8874 54.6033 81.5395 52.586C80.7392 52.2147 80.2657 51.3733 80.3638 50.4965C80.3804 50.3484 80.4002 50.2023 80.4191 50.0629C80.4556 49.7941 80.4887 49.5502 80.4887 49.364C80.4887 43.7066 75.8861 39.104 70.2287 39.104C68.0242 39.104 65.8941 39.8364 64.0689 41.2223ZM37.4677 50.3881C37.4444 50.108 37.4088 49.847 37.3836 49.6627C37.381 49.6436 37.3786 49.6254 37.3762 49.608C37.3625 49.5067 37.3539 49.4402 37.3485 49.3881C37.3463 49.3675 37.3453 49.3546 37.3448 49.3482C37.3533 42.5397 42.8983 37 49.7088 37C53.5979 37 57.1914 38.8114 59.5812 42.0122C60.2274 42.8776 61.1921 43.4491 62.2614 43.6001M37.4677 50.3881C37.6087 52.0822 36.6776 53.6849 35.1353 54.4005C31.45 56.1106 29 59.8031 29 63.728C29 69.3836 33.7357 74.0399 39.4488 74.0399H76.3847C82.0978 74.0399 86.8335 69.3836 86.8335 63.728C86.8335 59.8029 84.3834 56.1102 80.6977 54.4003C79.1174 53.6671 78.1825 52.0056 78.3762 50.2742C78.3955 50.1018 78.4213 49.9112 78.4414 49.7634C78.449 49.7068 78.4559 49.6565 78.4611 49.6158C78.4841 49.4389 78.4881 49.3743 78.4886 49.3651L78.4887 49.364C78.4887 44.8112 74.7815 41.104 70.2287 41.104C68.4791 41.104 66.7704 41.6823 65.2784 42.8152C64.4192 43.4675 63.3341 43.7517 62.2626 43.6003" fill="white"/>
<path fill-rule="evenodd" clip-rule="evenodd" d="M54.7 62.5V58.9H59.1C60.093 58.9 60.9 59.707 60.9 60.7C60.9 61.693 60.093 62.5 59.1 62.5H54.7ZM54.7 57.3V53.7H59.1C60.093 53.7 60.9 54.507 60.9 55.5C60.9 56.493 60.093 57.3 59.1 57.3H54.7ZM55.7 61.5H59.1C59.5407 61.5 59.9 61.1407 59.9 60.7C59.9 60.2593 59.5407 59.9 59.1 59.9H55.7V61.5ZM55.7 56.3H59.1C59.5407 56.3 59.9 55.9407 59.9 55.5C59.9 55.0593 59.5407 54.7 59.1 54.7H55.7V56.3ZM59.4 52.53V50.3C59.4 50.1343 59.2657 50 59.1 50C58.9343 50 58.8 50.1343 58.8 50.3V52.6H54.2V50.3C54.2 50.1343 54.0657 50 53.9 50C53.7343 50 53.6 50.1343 53.6 50.3V52.6H51.3C51.1343 52.6 51 52.7343 51 52.9C51 53.0657 51.1343 53.2 51.3 53.2H53.6V63H51.3C51.1343 63 51 63.1343 51 63.3C51 63.4657 51.1343 63.6 51.3 63.6H53.6V65.9C53.6 66.0657 53.7343 66.2 53.9 66.2C54.0657 66.2 54.2 66.0657 54.2 65.9V63.6H58.8V65.9C58.8 66.0657 58.9343 66.2 59.1 66.2C59.2657 66.2 59.4 66.0657 59.4 65.9V63.67L60.0657 63.4339C61.1937 63.0339 62 61.9568 62 60.7C62 59.9588 61.7208 59.2826 61.2591 58.7674L60.6609 58.1L61.2591 57.4325C61.7209 56.9174 62 56.2412 62 55.5C62 54.2432 61.1937 53.1661 60.0657 52.7661L59.4 52.53ZM62.0038 58.1C62.6227 57.4094 63 56.4981 63 55.5C63 53.8052 61.9131 52.3602 60.4 51.8236V50.3C60.4 49.5821 59.8179 49 59.1 49C58.3821 49 57.8 49.5821 57.8 50.3V51.6H55.2V50.3C55.2 49.5821 54.6179 49 53.9 49C53.1821 49 52.6 49.5821 52.6 50.3V51.6H51.3C50.5821 51.6 50 52.1821 50 52.9C50 53.6179 50.5821 54.2 51.3 54.2H52.6V62H51.3C50.5821 62 50 62.5821 50 63.3C50 64.0179 50.5821 64.6 51.3 64.6H52.6V65.9C52.6 66.6179 53.1821 67.2 53.9 67.2C54.6179 67.2 55.2 66.6179 55.2 65.9V64.6H57.8V65.9C57.8 66.6179 58.3821 67.2 59.1 67.2C59.8179 67.2 60.4 66.6179 60.4 65.9V64.3764C61.9131 63.8398 63 62.3948 63 60.7C63 59.7019 62.6227 58.7906 62.0038 58.1Z" fill="#9BC456"/>
<path fill-rule="evenodd" clip-rule="evenodd" d="M47.5 75C48.0523 75 48.5 75.4477 48.5 76V82.5C48.5 83.6046 47.6046 84.5 46.5 84.5H40C39.4477 84.5 39 84.0523 39 83.5C39 82.9477 39.4477 82.5 40 82.5H46.5V76C46.5 75.4477 46.9477 75 47.5 75Z" fill="white"/>
<path fill-rule="evenodd" clip-rule="evenodd" d="M37 85.1C37.8837 85.1 38.6 84.3837 38.6 83.5C38.6 82.6163 37.8837 81.9 37 81.9C36.1163 81.9 35.4 82.6163 35.4 83.5C35.4 84.3837 36.1163 85.1 37 85.1ZM37 86.5C38.6569 86.5 40 85.1569 40 83.5C40 81.8431 38.6569 80.5 37 80.5C35.3431 80.5 34 81.8431 34 83.5C34 85.1569 35.3431 86.5 37 86.5Z" fill="white"/>
<path fill-rule="evenodd" clip-rule="evenodd" d="M69.1157 75C68.5634 75 68.1157 75.4477 68.1157 76V82.5C68.1157 83.6046 69.0112 84.5 70.1157 84.5H76.6157C77.168 84.5 77.6157 84.0523 77.6157 83.5C77.6157 82.9477 77.168 82.5 76.6157 82.5H70.1157V76C70.1157 75.4477 69.668 75 69.1157 75Z" fill="white"/>
<path fill-rule="evenodd" clip-rule="evenodd" d="M79.6157 85.1C78.7321 85.1 78.0157 84.3837 78.0157 83.5C78.0157 82.6163 78.7321 81.9 79.6157 81.9C80.4994 81.9 81.2157 82.6163 81.2157 83.5C81.2157 84.3837 80.4994 85.1 79.6157 85.1ZM79.6157 86.5C77.9589 86.5 76.6157 85.1569 76.6157 83.5C76.6157 81.8431 77.9589 80.5 79.6157 80.5C81.2726 80.5 82.6157 81.8431 82.6157 83.5C82.6157 85.1569 81.2726 86.5 79.6157 86.5Z" fill="white"/>
<path fill-rule="evenodd" clip-rule="evenodd" d="M57.9165 75C57.3642 75 56.9165 75.4477 56.9165 76V83.5C56.9165 84.0523 57.3642 84.5 57.9165 84.5C58.4688 84.5 58.9165 84.0523 58.9165 83.5V76C58.9165 75.4477 58.4688 75 57.9165 75Z" fill="white"/>
<path fill-rule="evenodd" clip-rule="evenodd" d="M58 88.1C57.1163 88.1 56.4 87.3837 56.4 86.5C56.4 85.6163 57.1163 84.9 58 84.9C58.8837 84.9 59.6 85.6163 59.6 86.5C59.6 87.3837 58.8837 88.1 58 88.1ZM58 89.5C56.3431 89.5 55 88.1569 55 86.5C55 84.8431 56.3431 83.5 58 83.5C59.6569 83.5 61 84.8431 61 86.5C61 88.1569 59.6569 89.5 58 89.5Z" fill="white"/>
</g>
</g>
<defs>
<filter id="filter0_d" x="0" y="-2" width="116" height="130" filterUnits="userSpaceOnUse" color-interpolation-filters="sRGB">
<feFlood flood-opacity="0" result="BackgroundImageFix"/>
<feColorMatrix in="SourceAlpha" type="matrix" values="0 0 0 0 0 0 0 0 0 0 0 0 0 0 0 0 0 0 127 0"/>
<feOffset/>
<feGaussianBlur stdDeviation="5.5"/>
<feColorMatrix type="matrix" values="0 0 0 0 0.607843 0 0 0 0 0.768627 0 0 0 0 0.337255 0 0 0 0.59 0"/>
<feBlend mode="normal" in2="BackgroundImageFix" result="effect1_dropShadow"/>
<feBlend mode="normal" in="SourceGraphic" in2="effect1_dropShadow" result="shape"/>
</filter>
<filter id="filter1_d" x="27" y="34" width="66.8335" height="58.5" filterUnits="userSpaceOnUse" color-interpolation-filters="sRGB">
<feFlood flood-opacity="0" result="BackgroundImageFix"/>
<feColorMatrix in="SourceAlpha" type="matrix" values="0 0 0 0 0 0 0 0 0 0 0 0 0 0 0 0 0 0 127 0"/>
<feOffset dx="3" dy="1"/>
<feGaussianBlur stdDeviation="1"/>
<feColorMatrix type="matrix" values="0 0 0 0 0.101961 0 0 0 0 0.133333 0 0 0 0 0.160784 0 0 0 1 0"/>
<feBlend mode="normal" in2="BackgroundImageFix" result="effect1_dropShadow"/>
<feBlend mode="normal" in="SourceGraphic" in2="effect1_dropShadow" result="shape"/>
</filter>
<linearGradient id="paint0_linear" x1="58" y1="115" x2="58" y2="12" gradientUnits="userSpaceOnUse">
<stop stop-color="#9BC456"/>
<stop offset="1" stop-color="#345FFA" stop-opacity="0.6"/>
</linearGradient>
</defs>
</svg>
