<svg width="116" height="126" viewBox="0 0 116 126" fill="none" xmlns="http://www.w3.org/2000/svg">
<path fill-rule="evenodd" clip-rule="evenodd" d="M53.9997 13.8094C56.4749 12.3803 59.5245 12.3803 61.9997 13.8094L98.6 34.9406C101.075 36.3697 102.6 39.0107 102.6 41.8688V84.1312C102.6 86.9893 101.075 89.6303 98.6 91.0594L61.9997 112.191C59.5245 113.62 56.4749 113.62 53.9997 112.191L17.3994 91.0594C14.9242 89.6303 13.3994 86.9893 13.3994 84.1312V41.8688C13.3994 39.0107 14.9242 36.3697 17.3994 34.9406L53.9997 13.8094Z" stroke="url(#paint0_linear)" stroke-width="3"/>
<path fill-rule="evenodd" clip-rule="evenodd" d="M64.0689 41.2223C63.6332 41.5531 63.0838 41.6966 62.5417 41.6199C62 41.5435 61.5112 41.2541 61.1838 40.8156C58.4243 37.1197 54.2419 35 49.7088 35C41.7885 35 35.3448 41.4437 35.3448 49.364C35.3448 49.5127 35.3711 49.7058 35.4016 49.9305C35.4273 50.1188 35.4559 50.3292 35.4746 50.5543C35.5462 51.4124 35.0745 52.2239 34.2935 52.5863C29.946 54.6037 27 58.977 27 63.728C27 70.5168 32.66 76.0399 39.4488 76.0399H76.3847C83.1735 76.0399 88.8335 70.5168 88.8335 63.728C88.8335 58.9768 85.8874 54.6033 81.5395 52.586C80.7392 52.2147 80.2657 51.3733 80.3638 50.4965C80.3804 50.3483 80.4002 50.2023 80.4191 50.0629C80.4556 49.7941 80.4887 49.5502 80.4887 49.364C80.4887 43.7066 75.8861 39.104 70.2287 39.104C68.0242 39.104 65.8941 39.8364 64.0689 41.2223ZM80.6978 54.4003C79.1174 53.6671 78.1825 52.0056 78.3762 50.2742L78.3762 50.2741C78.3955 50.1017 78.4213 49.9111 78.4414 49.7632C78.4491 49.7067 78.4559 49.6565 78.4611 49.6158C78.4841 49.4389 78.4881 49.3743 78.4886 49.3651C78.4887 49.364 78.4887 49.3637 78.4887 49.364C78.4887 44.8112 74.7815 41.104 70.2287 41.104C68.4791 41.104 66.7704 41.6823 65.2784 42.8152L65.2782 42.8153C64.4187 43.4678 63.3333 43.7519 62.2614 43.6001C61.1921 43.4491 60.2274 42.8776 59.5812 42.0122C57.1914 38.8114 53.5979 37 49.7088 37C42.8983 37 37.3533 42.5397 37.3448 49.3482C37.3453 49.3546 37.3463 49.3675 37.3485 49.3881C37.3539 49.4402 37.3625 49.5067 37.3762 49.608C37.3786 49.6254 37.381 49.6436 37.3836 49.6627C37.4088 49.8469 37.4444 50.1079 37.4677 50.3881M80.6978 54.4003C84.3834 56.1103 86.8335 59.8029 86.8335 63.728C86.8335 69.3836 82.0978 74.0399 76.3847 74.0399H39.4488C33.7357 74.0399 29 69.3836 29 63.728C29 59.8031 31.45 56.1106 35.1353 54.4005C36.6776 53.6849 37.6088 52.0826 37.4677 50.3885" fill="white"/>
<path fill-rule="evenodd" clip-rule="evenodd" d="M54.7 62.5V58.9H59.1C60.093 58.9 60.9 59.707 60.9 60.7C60.9 61.693 60.093 62.5 59.1 62.5H54.7ZM54.7 57.3V53.7H59.1C60.093 53.7 60.9 54.507 60.9 55.5C60.9 56.493 60.093 57.3 59.1 57.3H54.7ZM55.7 61.5H59.1C59.5407 61.5 59.9 61.1407 59.9 60.7C59.9 60.2593 59.5407 59.9 59.1 59.9H55.7V61.5ZM55.7 56.3H59.1C59.5407 56.3 59.9 55.9407 59.9 55.5C59.9 55.0593 59.5407 54.7 59.1 54.7H55.7V56.3ZM59.4 52.53V50.3C59.4 50.1343 59.2657 50 59.1 50C58.9343 50 58.8 50.1343 58.8 50.3V52.6H54.2V50.3C54.2 50.1343 54.0657 50 53.9 50C53.7343 50 53.6 50.1343 53.6 50.3V52.6H51.3C51.1343 52.6 51 52.7343 51 52.9C51 53.0657 51.1343 53.2 51.3 53.2H53.6V63H51.3C51.1343 63 51 63.1343 51 63.3C51 63.4657 51.1343 63.6 51.3 63.6H53.6V65.9C53.6 66.0657 53.7343 66.2 53.9 66.2C54.0657 66.2 54.2 66.0657 54.2 65.9V63.6H58.8V65.9C58.8 66.0657 58.9343 66.2 59.1 66.2C59.2657 66.2 59.4 66.0657 59.4 65.9V63.67L60.0657 63.4339C61.1937 63.0339 62 61.9568 62 60.7C62 59.9588 61.7208 59.2826 61.2591 58.7674L60.6609 58.1L61.2591 57.4325C61.7209 56.9174 62 56.2412 62 55.5C62 54.2432 61.1937 53.1661 60.0657 52.7661L59.4 52.53ZM62.0038 58.1C62.6227 57.4094 63 56.4981 63 55.5C63 53.8052 61.9131 52.3602 60.4 51.8236V50.3C60.4 49.5821 59.8179 49 59.1 49C58.3821 49 57.8 49.5821 57.8 50.3V51.6H55.2V50.3C55.2 49.5821 54.6179 49 53.9 49C53.1821 49 52.6 49.5821 52.6 50.3V51.6H51.3C50.5821 51.6 50 52.1821 50 52.9C50 53.6179 50.5821 54.2 51.3 54.2H52.6V62H51.3C50.5821 62 50 62.5821 50 63.3C50 64.0179 50.5821 64.6 51.3 64.6H52.6V65.9C52.6 66.6179 53.1821 67.2 53.9 67.2C54.6179 67.2 55.2 66.6179 55.2 65.9V64.6H57.8V65.9C57.8 66.6179 58.3821 67.2 59.1 67.2C59.8179 67.2 60.4 66.6179 60.4 65.9V64.3764C61.9131 63.8398 63 62.3948 63 60.7C63 59.7019 62.6227 58.7906 62.0038 58.1Z" fill="#9BC456"/>
<path fill-rule="evenodd" clip-rule="evenodd" d="M47.5 75C48.0523 75 48.5 75.4477 48.5 76V82.5C48.5 83.6046 47.6046 84.5 46.5 84.5H40C39.4477 84.5 39 84.0523 39 83.5C39 82.9477 39.4477 82.5 40 82.5H46.5V76C46.5 75.4477 46.9477 75 47.5 75Z" fill="white"/>
<path fill-rule="evenodd" clip-rule="evenodd" d="M37 85.1C37.8837 85.1 38.6 84.3837 38.6 83.5C38.6 82.6163 37.8837 81.9 37 81.9C36.1163 81.9 35.4 82.6163 35.4 83.5C35.4 84.3837 36.1163 85.1 37 85.1ZM37 86.5C38.6569 86.5 40 85.1569 40 83.5C40 81.8431 38.6569 80.5 37 80.5C35.3431 80.5 34 81.8431 34 83.5C34 85.1569 35.3431 86.5 37 86.5Z" fill="white"/>
<path fill-rule="evenodd" clip-rule="evenodd" d="M69.1159 75C68.5636 75 68.1159 75.4477 68.1159 76V82.5C68.1159 83.6046 69.0113 84.5 70.1159 84.5H76.6159C77.1682 84.5 77.6159 84.0523 77.6159 83.5C77.6159 82.9477 77.1682 82.5 76.6159 82.5H70.1159V76C70.1159 75.4477 69.6682 75 69.1159 75Z" fill="white"/>
<path fill-rule="evenodd" clip-rule="evenodd" d="M79.6159 85.1C78.7322 85.1 78.0159 84.3837 78.0159 83.5C78.0159 82.6163 78.7322 81.9 79.6159 81.9C80.4996 81.9 81.2159 82.6163 81.2159 83.5C81.2159 84.3837 80.4996 85.1 79.6159 85.1ZM79.6159 86.5C77.959 86.5 76.6159 85.1569 76.6159 83.5C76.6159 81.8431 77.959 80.5 79.6159 80.5C81.2728 80.5 82.6159 81.8431 82.6159 83.5C82.6159 85.1569 81.2728 86.5 79.6159 86.5Z" fill="white"/>
<path fill-rule="evenodd" clip-rule="evenodd" d="M57.9165 75C57.3642 75 56.9165 75.4477 56.9165 76V83.5C56.9165 84.0523 57.3642 84.5 57.9165 84.5C58.4688 84.5 58.9165 84.0523 58.9165 83.5V76C58.9165 75.4477 58.4688 75 57.9165 75Z" fill="white"/>
<path fill-rule="evenodd" clip-rule="evenodd" d="M58 88.1C57.1163 88.1 56.4 87.3837 56.4 86.5C56.4 85.6163 57.1163 84.9 58 84.9C58.8837 84.9 59.6 85.6163 59.6 86.5C59.6 87.3837 58.8837 88.1 58 88.1ZM58 89.5C56.3431 89.5 55 88.1569 55 86.5C55 84.8431 56.3431 83.5 58 83.5C59.6569 83.5 61 84.8431 61 86.5C61 88.1569 59.6569 89.5 58 89.5Z" fill="white"/>
<defs>
<linearGradient id="paint0_linear" x1="57.9997" y1="7.09437" x2="57.9997" y2="118.906" gradientUnits="userSpaceOnUse">
<stop stop-color="#9BC456"/>
<stop offset="1" stop-color="#345FFA" stop-opacity="0.6"/>
</linearGradient>
</defs>
</svg>
