<svg width="94" height="108" viewBox="0 0 94 108" fill="none" xmlns="http://www.w3.org/2000/svg">
<path fill-rule="evenodd" clip-rule="evenodd" d="M43.0002 4.8094C45.4754 3.38034 48.525 3.38034 51.0002 4.8094L87.6005 25.9406C90.0757 27.3697 91.6005 30.0107 91.6005 32.8688V75.1312C91.6005 77.9893 90.0757 80.6303 87.6005 82.0594L51.0002 103.191C48.525 104.62 45.4754 104.62 43.0002 103.191L6.3999 82.0594C3.92469 80.6303 2.3999 77.9893 2.3999 75.1312V32.8688C2.3999 30.0107 3.92469 27.3697 6.3999 25.9406L43.0002 4.8094Z" stroke="url(#paint0_linear)" stroke-width="3"/>
<path d="M51.5417 32.6199C52.0838 32.6966 52.6332 32.5531 53.0689 32.2223C54.8941 30.8364 57.0242 30.104 59.2287 30.104C64.8861 30.104 69.4887 34.7066 69.4887 40.364C69.4887 40.5502 69.4556 40.7941 69.4191 41.0629C69.4002 41.2023 69.3804 41.3483 69.3638 41.4965C69.2657 42.3733 69.7392 43.2147 70.5395 43.586C74.8874 45.6033 77.8335 49.9768 77.8335 54.728C77.8335 61.5168 72.1735 67.0399 65.3847 67.0399H28.4488C21.66 67.0399 16 61.5168 16 54.728C16 49.977 18.946 45.6037 23.2935 43.5863M51.5417 32.6199C51 32.5435 50.5112 32.2541 50.1838 31.8156C47.4243 28.1197 43.2419 26 38.7088 26C30.7885 26 24.3448 32.4437 24.3448 40.364C24.3448 40.5127 24.3711 40.7058 24.4016 40.9305C24.4273 41.1188 24.4559 41.3292 24.4746 41.5543M51.5417 32.6199L51.4021 33.6101M51.5417 32.6199L51.4015 33.61C51.4017 33.61 51.4019 33.6101 51.4021 33.6101M24.4746 41.5543C24.5462 42.4124 24.0745 43.2239 23.2935 43.5863M24.4746 41.5543L25.4712 41.4714C25.4502 41.2188 25.418 40.9831 25.3927 40.797C25.3901 40.7782 25.3877 40.76 25.3853 40.7423C25.3556 40.5232 25.3448 40.42 25.3448 40.364C25.3448 32.996 31.3408 27 38.7088 27C42.9199 27 46.8078 28.9656 49.3825 32.4139C49.8694 33.066 50.5964 33.4966 51.4021 33.6101M24.4746 41.5543L23.7144 44.4934M23.2935 43.5863L23.7144 44.4934M23.2935 43.5863L23.7144 44.4934C23.7144 44.4934 23.7144 44.4934 23.7144 44.4934M23.7144 44.4934C19.698 46.3571 17 50.3901 17 54.728C17 60.9502 22.1978 66.0399 28.4488 66.0399H65.3847C71.6357 66.0399 76.8335 60.9502 76.8335 54.728C76.8335 50.3898 74.1354 46.3568 70.1186 44.4932C68.9283 43.9409 68.2241 42.6894 68.37 41.3853C68.3879 41.2253 68.4106 41.0578 68.4302 40.9132C68.4385 40.8522 68.4462 40.7953 68.4528 40.7447C68.4782 40.5494 68.4887 40.4332 68.4887 40.364C68.4887 35.2589 64.3338 31.104 59.2287 31.104C57.2516 31.104 55.3322 31.7593 53.6737 33.0188L53.6736 33.0188C53.0261 33.5103 52.209 33.7241 51.4021 33.6101" stroke="white" stroke-width="2"/>
<path d="M48.9 42.8236V43.1768L49.2329 43.2948C50.5534 43.7632 51.5 45.0242 51.5 46.5C51.5 47.3697 51.1718 48.1634 50.6314 48.7663L50.3323 49.1L50.6314 49.4337C51.1717 50.0366 51.5 50.8303 51.5 51.7C51.5 53.1758 50.5534 54.4368 49.2329 54.9052L48.9 55.0232V55.3764V56.9C48.9 57.3418 48.5418 57.7 48.1 57.7C47.6582 57.7 47.3 57.3418 47.3 56.9V55.6V55.1H46.8H44.2H43.7V55.6V56.9C43.7 57.3418 43.3418 57.7 42.9 57.7C42.4582 57.7 42.1 57.3418 42.1 56.9V55.6V55.1H41.6H40.3C39.8582 55.1 39.5 54.7418 39.5 54.3C39.5 53.8582 39.8582 53.5 40.3 53.5H41.6H42.1V53V45.2V44.7H41.6H40.3C39.8582 44.7 39.5 44.3418 39.5 43.9C39.5 43.4582 39.8582 43.1 40.3 43.1H41.6H42.1V42.6V41.3C42.1 40.8582 42.4582 40.5 42.9 40.5C43.3418 40.5 43.7 40.8582 43.7 41.3V42.6V43.1H44.2H46.8H47.3V42.6V41.3C47.3 40.8582 47.6582 40.5 48.1 40.5C48.5418 40.5 48.9 40.8582 48.9 41.3V42.8236Z" stroke="#9BC456"/>
<path d="M36.5 67V73.5C36.5 74.0523 36.0523 74.5 35.5 74.5H29" stroke="white" stroke-width="2" stroke-linecap="round"/>
<circle cx="26" cy="74.5" r="2.3" stroke="white" stroke-width="1.4"/>
<path d="M58.1157 67V73.5C58.1157 74.0523 58.5634 74.5 59.1157 74.5H65.6157" stroke="white" stroke-width="2" stroke-linecap="round"/>
<circle r="2.3" transform="matrix(-1 0 0 1 68.6157 74.5)" stroke="white" stroke-width="1.4"/>
<path d="M46.9165 67V74.5" stroke="white" stroke-width="2" stroke-linecap="round"/>
<circle r="2.3" transform="matrix(-1 0 0 1 47 77.5)" stroke="white" stroke-width="1.4"/>
<defs>
<linearGradient id="paint0_linear" x1="47.0002" y1="-1.90563" x2="47.0002" y2="109.906" gradientUnits="userSpaceOnUse">
<stop stop-color="#9BC456"/>
<stop offset="1" stop-color="#345FFA" stop-opacity="0.6"/>
</linearGradient>
</defs>
</svg>
