<svg width="128" height="128" viewBox="0 0 128 128" fill="none" xmlns="http://www.w3.org/2000/svg">
<path fill-rule="evenodd" clip-rule="evenodd" d="M63.6003 13L108.201 38.75V90.25L63.6003 116L19 90.25V38.75L63.6003 13Z" fill="url(#paint0_linear)" fill-opacity="0.19"/>
<path fill-rule="evenodd" clip-rule="evenodd" d="M59.6003 15.3094C62.0755 13.8803 65.1251 13.8803 67.6003 15.3094L104.201 36.4406C106.676 37.8697 108.201 40.5107 108.201 43.3688V85.6312C108.201 88.4893 106.676 91.1303 104.201 92.5594L67.6003 113.691C65.1251 115.12 62.0755 115.12 59.6003 113.691L23 92.5594C20.5248 91.1303 19 88.4893 19 85.6312V43.3688C19 40.5107 20.5248 37.8697 23 36.4406L59.6003 15.3094Z" stroke="url(#paint1_linear)" stroke-width="3"/>
<path d="M45.3867 71.1174L52.9455 54.2645L54.57 54.9948L47.0112 71.8477L45.3867 71.1174Z" fill="#9BC456"/>
<path d="M55.6709 77.7954L70.817 71.5569L71.4956 73.2045L56.3496 79.4431L55.6709 77.7954Z" fill="#9BC456"/>
<path d="M64.7094 53.8121L65.9687 52.5528L73.5382 60.1689L72.2788 61.4283L64.7094 53.8121Z" fill="#9BC456"/>
<path d="M67.1912 42.0758L78.1093 40.316L78.3801 42.0759L67.462 43.8357L67.1912 42.0758Z" fill="#9BC456"/>
<path d="M70.3638 85.3057L75.7128 76.4045L77.2393 77.3218L71.8903 86.223L70.3638 85.3057Z" fill="#9BC456"/>
<path d="M80.9316 42.9844C82.4073 42.9844 83.6035 41.7881 83.6035 40.3125C83.6035 38.8369 82.4073 37.6406 80.9316 37.6406C79.456 37.6406 78.2598 38.8369 78.2598 40.3125C78.2598 41.7881 79.456 42.9844 80.9316 42.9844Z" fill="url(#paint2_linear)" fill-opacity="0.19"/>
<path d="M70.2441 91.0781C71.7198 91.0781 72.916 89.8819 72.916 88.4062C72.916 86.9306 71.7198 85.7344 70.2441 85.7344C68.7685 85.7344 67.5723 86.9306 67.5723 88.4062C67.5723 89.8819 68.7685 91.0781 70.2441 91.0781Z" fill="url(#paint3_linear)" fill-opacity="0.19"/>
<path d="M46.1973 91.0781C51.6079 91.0781 55.9941 86.6919 55.9941 81.2812C55.9941 75.8706 51.6079 71.4844 46.1973 71.4844C40.7866 71.4844 36.4004 75.8706 36.4004 81.2812C36.4004 86.6919 40.7866 91.0781 46.1973 91.0781Z" fill="url(#paint4_linear)" fill-opacity="0.19"/>
<path d="M80.041 77.7188C85.4517 77.7188 89.8379 73.3325 89.8379 67.9219C89.8379 62.5112 85.4517 58.125 80.041 58.125C74.6304 58.125 70.2441 62.5112 70.2441 67.9219C70.2441 73.3325 74.6304 77.7188 80.041 77.7188Z" fill="url(#paint5_linear)" fill-opacity="0.19"/>
<path d="M58.666 55.4531C63.5848 55.4531 67.5723 51.4657 67.5723 46.5469C67.5723 41.6281 63.5848 37.6406 58.666 37.6406C53.7472 37.6406 49.7598 41.6281 49.7598 46.5469C49.7598 51.4657 53.7472 55.4531 58.666 55.4531Z" fill="url(#paint6_linear)" fill-opacity="0.19"/>
<path d="M46.563 90.688C51.8097 90.688 56.063 86.4347 56.063 81.188C56.063 75.9413 51.8097 71.688 46.563 71.688C41.3163 71.688 37.063 75.9413 37.063 81.188C37.063 86.4347 41.3163 90.688 46.563 90.688Z" stroke="#9BC456" stroke-width="1.425"/>
<path d="M37.062 79.6869C38.4941 79.0106 39.5532 78.9164 40.2395 79.4042C41.2689 80.136 41.398 83.1181 43.7393 81.6928C46.0807 80.2676 42.7367 79.6869 43.4626 77.6223C44.1886 75.5577 46.566 77.1614 46.8023 74.8999C46.9598 73.3923 45.1564 72.8154 41.3919 73.1693" stroke="#9BC456" stroke-width="0.977143"/>
<path d="M52.2621 73.5874C49.5478 75.957 48.5998 77.3879 49.4181 77.8801C50.6456 78.6185 51.1664 77.579 52.6643 77.8801C54.1621 78.1813 53.8378 80.2116 53.05 80.2116C52.2621 80.2116 48.1819 79.692 48.3874 82.0733C48.5929 84.4545 51.0471 84.807 51.0471 86.1374C51.0471 87.0243 50.5041 88.3818 49.4181 90.2096" stroke="#9BC456" stroke-width="0.977143" stroke-linecap="round"/>
<path d="M38.0615 85.4279C38.4945 85.239 38.8199 85.1006 39.0379 85.0125C40.8653 84.2743 42.2212 84.1003 43.1056 84.4905C44.6695 85.1806 44.0683 86.5744 44.5581 87.0879C45.048 87.6013 46.2712 87.4519 46.2712 88.4287C46.2712 89.08 46.0524 89.8156 45.615 90.6356" stroke="#9BC456" stroke-width="0.977143" stroke-linecap="round"/>
<path d="M58.7769 56.4883C64.0236 56.4883 68.2769 52.235 68.2769 46.9883C68.2769 41.7416 64.0236 37.4883 58.7769 37.4883C53.5301 37.4883 49.2769 41.7416 49.2769 46.9883C49.2769 52.235 53.5301 56.4883 58.7769 56.4883Z" stroke="#9BC456" stroke-width="1.425"/>
<path d="M49.2764 45.4876C50.7084 44.8114 51.7676 44.7172 52.4538 45.205C53.4833 45.9367 53.6123 48.9188 55.9537 47.4936C58.295 46.0684 54.951 45.4876 55.677 43.423C56.4029 41.3585 58.7803 42.9622 59.0167 40.7007C59.1742 39.193 57.3707 38.6162 53.6063 38.9701" stroke="#9BC456" stroke-width="0.977143"/>
<path d="M64.4765 39.3882C61.7622 41.7578 60.8142 43.1887 61.6325 43.6809C62.8599 44.4192 63.3808 43.3798 64.8786 43.6809C66.3765 43.9821 66.0522 46.0124 65.2643 46.0124C64.4765 46.0124 60.3962 45.4928 60.6017 47.8741C60.8072 50.2553 63.2615 50.6078 63.2615 51.9382C63.2615 52.8251 62.7185 54.1825 61.6325 56.0104" stroke="#9BC456" stroke-width="0.977143" stroke-linecap="round"/>
<path d="M50.2759 51.2282C50.7088 51.0393 51.0343 50.9009 51.2522 50.8128C53.0796 50.0746 54.4355 49.9005 55.3199 50.2908C56.8839 50.9809 56.2826 52.3747 56.7725 52.8882C57.2623 53.4016 58.4855 53.2522 58.4855 54.229C58.4855 54.8803 58.2668 55.6159 57.8293 56.4359" stroke="#9BC456" stroke-width="0.977143" stroke-linecap="round"/>
<path d="M79.9478 77.6597C85.1945 77.6597 89.4478 73.4064 89.4478 68.1597C89.4478 62.913 85.1945 58.6597 79.9478 58.6597C74.701 58.6597 70.4478 62.913 70.4478 68.1597C70.4478 73.4064 74.701 77.6597 79.9478 77.6597Z" stroke="#9BC456" stroke-width="1.425"/>
<path d="M70.4473 66.658C71.8793 65.9818 72.9385 65.8876 73.6247 66.3754C74.6542 67.1072 74.7832 70.0893 77.1246 68.664C79.4659 67.2388 76.1219 66.658 76.8479 64.5935C77.5738 62.5289 79.9512 64.1326 80.1876 61.8711C80.3451 60.3634 78.5416 59.7866 74.7772 60.1405" stroke="#9BC456" stroke-width="0.977143"/>
<path d="M85.6474 60.5591C82.9331 62.9287 81.9851 64.3596 82.8034 64.8518C84.0308 65.5901 84.5517 64.5506 86.0495 64.8518C87.5474 65.153 87.2231 67.1833 86.4352 67.1833C85.6474 67.1833 81.5671 66.6637 81.7726 69.045C81.9781 71.4262 84.4324 71.7787 84.4324 73.1091C84.4324 73.996 83.8894 75.3534 82.8034 77.1813" stroke="#9BC456" stroke-width="0.977143" stroke-linecap="round"/>
<path d="M71.4468 72.3991C71.8797 72.2102 72.2052 72.0718 72.4231 71.9837C74.2505 71.2455 75.6064 71.0714 76.4908 71.4617C78.0548 72.1518 77.4535 73.5456 77.9434 74.0591C78.4332 74.5725 79.6564 74.4231 79.6564 75.3999C79.6564 76.0512 79.4377 76.7868 79.0002 77.6068" stroke="#9BC456" stroke-width="0.977143" stroke-linecap="round"/>
<path d="M80.9316 43.875C78.9669 43.875 77.3691 42.2772 77.3691 40.3125C77.3691 38.3478 78.9669 36.75 80.9316 36.75C82.8964 36.75 84.4941 38.3478 84.4941 40.3125C84.4941 42.2772 82.8964 43.875 80.9316 43.875ZM80.9316 38.5312C79.9493 38.5312 79.1504 39.3301 79.1504 40.3125C79.1504 41.2949 79.9493 42.0938 80.9316 42.0938C81.914 42.0938 82.7129 41.2949 82.7129 40.3125C82.7129 39.3301 81.914 38.5312 80.9316 38.5312Z" fill="#9BC456"/>
<path d="M70.2441 91.9688C68.2794 91.9688 66.6816 90.371 66.6816 88.4062C66.6816 86.4415 68.2794 84.8438 70.2441 84.8438C72.2089 84.8438 73.8066 86.4415 73.8066 88.4062C73.8066 90.371 72.2089 91.9688 70.2441 91.9688ZM70.2441 86.625C69.2618 86.625 68.4629 87.4239 68.4629 88.4062C68.4629 89.3886 69.2618 90.1875 70.2441 90.1875C71.2265 90.1875 72.0254 89.3886 72.0254 88.4062C72.0254 87.4239 71.2265 86.625 70.2441 86.625Z" fill="#9BC456"/>
<defs>
<linearGradient id="paint0_linear" x1="63.6003" y1="13" x2="63.6003" y2="116" gradientUnits="userSpaceOnUse">
<stop offset="0.481514" stop-color="#9BC456"/>
<stop offset="1" stop-color="#9BC456" stop-opacity="0"/>
</linearGradient>
<linearGradient id="paint1_linear" x1="63.6003" y1="8.59437" x2="63.6003" y2="120.406" gradientUnits="userSpaceOnUse">
<stop stop-color="#9BC456"/>
<stop offset="1" stop-color="#345FFA" stop-opacity="0.6"/>
</linearGradient>
<linearGradient id="paint2_linear" x1="80.9316" y1="37.6406" x2="80.9316" y2="42.9844" gradientUnits="userSpaceOnUse">
<stop offset="0.481514" stop-color="#9BC456"/>
<stop offset="1" stop-color="#9BC456" stop-opacity="0"/>
</linearGradient>
<linearGradient id="paint3_linear" x1="70.2441" y1="85.7344" x2="70.2441" y2="91.0781" gradientUnits="userSpaceOnUse">
<stop offset="0.481514" stop-color="#9BC456"/>
<stop offset="1" stop-color="#9BC456" stop-opacity="0"/>
</linearGradient>
<linearGradient id="paint4_linear" x1="46.1973" y1="71.4844" x2="46.1973" y2="91.0781" gradientUnits="userSpaceOnUse">
<stop offset="0.481514" stop-color="#9BC456"/>
<stop offset="1" stop-color="#9BC456" stop-opacity="0"/>
</linearGradient>
<linearGradient id="paint5_linear" x1="80.041" y1="58.125" x2="80.041" y2="77.7188" gradientUnits="userSpaceOnUse">
<stop offset="0.481514" stop-color="#9BC456"/>
<stop offset="1" stop-color="#9BC456" stop-opacity="0"/>
</linearGradient>
<linearGradient id="paint6_linear" x1="58.666" y1="37.6406" x2="58.666" y2="55.4531" gradientUnits="userSpaceOnUse">
<stop offset="0.481514" stop-color="#9BC456"/>
<stop offset="1" stop-color="#9BC456" stop-opacity="0"/>
</linearGradient>
</defs>
</svg>
