<svg width="128" height="128" viewBox="0 0 128 128" fill="none" xmlns="http://www.w3.org/2000/svg">
<path fill-rule="evenodd" clip-rule="evenodd" d="M56.1999 21.5594C58.6751 20.1303 61.7247 20.1303 64.1999 21.5594L100.8 42.6906C103.275 44.1197 104.8 46.7607 104.8 49.6188V91.8812C104.8 94.7393 103.275 97.3803 100.8 98.8094L64.1999 119.941C61.7247 121.37 58.6751 121.37 56.1999 119.941L19.5996 98.8094C17.1244 97.3803 15.5996 94.7393 15.5996 91.8812V49.6188C15.5996 46.7607 17.1244 44.1197 19.5996 42.6906L56.1999 21.5594Z" stroke="url(#paint0_linear)" stroke-width="3"/>
<g filter="url(#filter0_d)">
<path fill-rule="evenodd" clip-rule="evenodd" d="M63.8 8.0594C66.2752 6.63034 69.3248 6.63034 71.8 8.0594L108.4 29.1906C110.876 30.6197 112.4 33.2607 112.4 36.1188V78.3812C112.4 81.2393 110.876 83.8803 108.4 85.3094L71.8 106.441C69.3248 107.87 66.2752 107.87 63.8 106.441L27.1997 85.3094C24.7245 83.8803 23.1997 81.2393 23.1997 78.3812V36.1188C23.1997 33.2607 24.7245 30.6197 27.1997 29.1906L63.8 8.0594Z" fill="#FAFFF2"/>
</g>
<path d="M49.7675 62.258L57.3264 45.4052L58.9509 46.1355L51.392 62.9883L49.7675 62.258Z" fill="#9BC456"/>
<path d="M60.0518 68.936L75.1978 62.6975L75.8765 64.3451L60.7304 70.5837L60.0518 68.936Z" fill="#9BC456"/>
<path d="M69.0902 44.9528L70.3496 43.6934L77.919 51.3095L76.6597 52.5689L69.0902 44.9528Z" fill="#9BC456"/>
<path d="M71.5721 33.2165L82.4902 31.4566L82.7609 33.2165L71.8429 34.9763L71.5721 33.2165Z" fill="#9BC456"/>
<path d="M74.7446 76.4463L80.0937 67.5451L81.6202 68.4624L76.2712 77.3636L74.7446 76.4463Z" fill="#9BC456"/>
<path d="M85.3125 34.125C86.7881 34.125 87.9844 32.9288 87.9844 31.4531C87.9844 29.9775 86.7881 28.7812 85.3125 28.7812C83.8369 28.7812 82.6406 29.9775 82.6406 31.4531C82.6406 32.9288 83.8369 34.125 85.3125 34.125Z" fill="url(#paint1_linear)" fill-opacity="0.19"/>
<path d="M74.625 82.2188C76.1006 82.2188 77.2969 81.0225 77.2969 79.5469C77.2969 78.0712 76.1006 76.875 74.625 76.875C73.1494 76.875 71.9531 78.0712 71.9531 79.5469C71.9531 81.0225 73.1494 82.2188 74.625 82.2188Z" fill="url(#paint2_linear)" fill-opacity="0.19"/>
<path d="M50.5781 82.2188C55.9888 82.2188 60.375 77.8325 60.375 72.4219C60.375 67.0112 55.9888 62.625 50.5781 62.625C45.1675 62.625 40.7812 67.0112 40.7812 72.4219C40.7812 77.8325 45.1675 82.2188 50.5781 82.2188Z" fill="url(#paint3_linear)" fill-opacity="0.19"/>
<path d="M84.4219 68.8594C89.8325 68.8594 94.2188 64.4732 94.2188 59.0625C94.2188 53.6518 89.8325 49.2656 84.4219 49.2656C79.0112 49.2656 74.625 53.6518 74.625 59.0625C74.625 64.4732 79.0112 68.8594 84.4219 68.8594Z" fill="url(#paint4_linear)" fill-opacity="0.19"/>
<path d="M63.0469 46.5938C67.9657 46.5938 71.9531 42.6063 71.9531 37.6875C71.9531 32.7687 67.9657 28.7812 63.0469 28.7812C58.1281 28.7812 54.1406 32.7687 54.1406 37.6875C54.1406 42.6063 58.1281 46.5938 63.0469 46.5938Z" fill="url(#paint5_linear)" fill-opacity="0.19"/>
<path d="M50.9438 81.8286C56.1906 81.8286 60.4438 77.5753 60.4438 72.3286C60.4438 67.0819 56.1906 62.8286 50.9438 62.8286C45.6971 62.8286 41.4438 67.0819 41.4438 72.3286C41.4438 77.5753 45.6971 81.8286 50.9438 81.8286Z" stroke="#9BC456" stroke-width="1.425"/>
<path d="M41.4429 70.8275C42.8749 70.1513 43.9341 70.0571 44.6203 70.5448C45.6498 71.2766 45.7788 74.2587 48.1202 72.8334C50.4616 71.4082 47.1176 70.8275 47.8435 68.7629C48.5694 66.6983 50.9468 68.302 51.1832 66.0406C51.3407 64.5329 49.5373 63.956 45.7728 64.3099" stroke="#9BC456" stroke-width="0.977143"/>
<path d="M56.643 64.728C53.9287 67.0976 52.9807 68.5285 53.799 69.0207C55.0264 69.7591 55.5473 68.7196 57.0451 69.0207C58.543 69.3219 58.2187 71.3522 57.4308 71.3522C56.643 71.3522 52.5627 70.8326 52.7682 73.2139C52.9737 75.5951 55.428 75.9477 55.428 77.278C55.428 78.165 54.885 79.5224 53.799 81.3503" stroke="#9BC456" stroke-width="0.977143" stroke-linecap="round"/>
<path d="M42.4424 76.5685C42.8753 76.3796 43.2008 76.2412 43.4187 76.1532C45.2461 75.4149 46.602 75.2409 47.4864 75.6311C49.0504 76.3213 48.4491 77.715 48.939 78.2285C49.4288 78.742 50.652 78.5926 50.652 79.5694C50.652 80.2206 50.4333 80.9562 49.9958 81.7763" stroke="#9BC456" stroke-width="0.977143" stroke-linecap="round"/>
<path d="M63.1577 47.6289C68.4044 47.6289 72.6577 43.3756 72.6577 38.1289C72.6577 32.8822 68.4044 28.6289 63.1577 28.6289C57.911 28.6289 53.6577 32.8822 53.6577 38.1289C53.6577 43.3756 57.911 47.6289 63.1577 47.6289Z" stroke="#9BC456" stroke-width="1.425"/>
<path d="M53.6572 36.6283C55.0893 35.952 56.1484 35.8579 56.8347 36.3456C57.8641 37.0774 57.9932 40.0595 60.3345 38.6342C62.6759 37.209 59.3319 36.6283 60.0579 34.5637C60.7838 32.4991 63.1612 34.1028 63.3975 31.8413C63.555 30.3337 61.7516 29.7568 57.9871 30.1107" stroke="#9BC456" stroke-width="0.977143"/>
<path d="M68.8574 30.5288C66.143 32.8984 65.195 34.3293 66.0133 34.8215C67.2408 35.5599 67.7616 34.5204 69.2595 34.8215C70.7574 35.1227 70.433 37.153 69.6452 37.153C68.8574 37.153 64.7771 36.6334 64.9826 39.0147C65.1881 41.3959 67.6424 41.7485 67.6424 43.0788C67.6424 43.9658 67.0993 45.3232 66.0133 47.1511" stroke="#9BC456" stroke-width="0.977143" stroke-linecap="round"/>
<path d="M54.6567 42.3688C55.0897 42.1799 55.4152 42.0415 55.6331 41.9535C57.4605 41.2152 58.8164 41.0412 59.7008 41.4314C61.2647 42.1216 60.6635 43.5153 61.1534 44.0288C61.6432 44.5423 62.8664 44.3929 62.8664 45.3697C62.8664 46.0209 62.6477 46.7565 62.2102 47.5766" stroke="#9BC456" stroke-width="0.977143" stroke-linecap="round"/>
<path d="M84.3286 68.8003C89.5753 68.8003 93.8286 64.547 93.8286 59.3003C93.8286 54.0536 89.5753 49.8003 84.3286 49.8003C79.0819 49.8003 74.8286 54.0536 74.8286 59.3003C74.8286 64.547 79.0819 68.8003 84.3286 68.8003Z" stroke="#9BC456" stroke-width="1.425"/>
<path d="M74.8281 57.7987C76.2602 57.1225 77.3193 57.0283 78.0056 57.516C79.035 58.2478 79.1641 61.2299 81.5054 59.8046C83.8468 58.3794 80.5028 57.7987 81.2287 55.7341C81.9547 53.6695 84.3321 55.2732 84.5684 53.0118C84.7259 51.5041 82.9225 50.9272 79.158 51.2811" stroke="#9BC456" stroke-width="0.977143"/>
<path d="M90.0283 51.6997C87.3139 54.0693 86.3659 55.5002 87.1842 55.9924C88.4117 56.7308 88.9325 55.6913 90.4304 55.9924C91.9283 56.2936 91.6039 58.3239 90.8161 58.3239C90.0283 58.3239 85.948 57.8043 86.1535 60.1856C86.359 62.5668 88.8133 62.9193 88.8133 64.2497C88.8133 65.1366 88.2702 66.4941 87.1842 68.322" stroke="#9BC456" stroke-width="0.977143" stroke-linecap="round"/>
<path d="M75.8276 63.5397C76.2606 63.3508 76.5861 63.2124 76.804 63.1244C78.6314 62.3861 79.9873 62.2121 80.8717 62.6023C82.4356 63.2925 81.8344 64.6862 82.3243 65.1997C82.8141 65.7132 84.0373 65.5638 84.0373 66.5406C84.0373 67.1918 83.8186 67.9274 83.3811 68.7475" stroke="#9BC456" stroke-width="0.977143" stroke-linecap="round"/>
<path d="M85.3125 35.0156C83.3478 35.0156 81.75 33.4178 81.75 31.4531C81.75 29.4884 83.3478 27.8906 85.3125 27.8906C87.2772 27.8906 88.875 29.4884 88.875 31.4531C88.875 33.4178 87.2772 35.0156 85.3125 35.0156ZM85.3125 29.6719C84.3301 29.6719 83.5312 30.4708 83.5312 31.4531C83.5312 32.4355 84.3301 33.2344 85.3125 33.2344C86.2949 33.2344 87.0938 32.4355 87.0938 31.4531C87.0938 30.4708 86.2949 29.6719 85.3125 29.6719Z" fill="#9BC456"/>
<path d="M74.625 83.1094C72.6603 83.1094 71.0625 81.5116 71.0625 79.5469C71.0625 77.5822 72.6603 75.9844 74.625 75.9844C76.5897 75.9844 78.1875 77.5822 78.1875 79.5469C78.1875 81.5116 76.5897 83.1094 74.625 83.1094ZM74.625 77.7656C73.6426 77.7656 72.8438 78.5645 72.8438 79.5469C72.8438 80.5292 73.6426 81.3281 74.625 81.3281C75.6074 81.3281 76.4062 80.5292 76.4062 79.5469C76.4062 78.5645 75.6074 77.7656 74.625 77.7656Z" fill="#9BC456"/>
<defs>
<filter id="filter0_d" x="13.1997" y="6.98779" width="99.2006" height="110.525" filterUnits="userSpaceOnUse" color-interpolation-filters="sRGB">
<feFlood flood-opacity="0" result="BackgroundImageFix"/>
<feColorMatrix in="SourceAlpha" type="matrix" values="0 0 0 0 0 0 0 0 0 0 0 0 0 0 0 0 0 0 127 0"/>
<feOffset dx="-5" dy="5"/>
<feGaussianBlur stdDeviation="2.5"/>
<feColorMatrix type="matrix" values="0 0 0 0 0.74829 0 0 0 0 0.8875 0 0 0 0 0.51401 0 0 0 0.2 0"/>
<feBlend mode="normal" in2="BackgroundImageFix" result="effect1_dropShadow"/>
<feBlend mode="normal" in="SourceGraphic" in2="effect1_dropShadow" result="shape"/>
</filter>
<linearGradient id="paint0_linear" x1="60.1999" y1="14.8444" x2="60.1999" y2="126.656" gradientUnits="userSpaceOnUse">
<stop stop-color="#9BC456"/>
<stop offset="1" stop-color="#345FFA" stop-opacity="0.6"/>
</linearGradient>
<linearGradient id="paint1_linear" x1="85.3125" y1="28.7812" x2="85.3125" y2="34.125" gradientUnits="userSpaceOnUse">
<stop offset="0.481514" stop-color="#9BC456"/>
<stop offset="1" stop-color="#9BC456" stop-opacity="0"/>
</linearGradient>
<linearGradient id="paint2_linear" x1="74.625" y1="76.875" x2="74.625" y2="82.2188" gradientUnits="userSpaceOnUse">
<stop offset="0.481514" stop-color="#9BC456"/>
<stop offset="1" stop-color="#9BC456" stop-opacity="0"/>
</linearGradient>
<linearGradient id="paint3_linear" x1="50.5781" y1="62.625" x2="50.5781" y2="82.2188" gradientUnits="userSpaceOnUse">
<stop offset="0.481514" stop-color="#9BC456"/>
<stop offset="1" stop-color="#9BC456" stop-opacity="0"/>
</linearGradient>
<linearGradient id="paint4_linear" x1="84.4219" y1="49.2656" x2="84.4219" y2="68.8594" gradientUnits="userSpaceOnUse">
<stop offset="0.481514" stop-color="#9BC456"/>
<stop offset="1" stop-color="#9BC456" stop-opacity="0"/>
</linearGradient>
<linearGradient id="paint5_linear" x1="63.0469" y1="28.7812" x2="63.0469" y2="46.5938" gradientUnits="userSpaceOnUse">
<stop offset="0.481514" stop-color="#9BC456"/>
<stop offset="1" stop-color="#9BC456" stop-opacity="0"/>
</linearGradient>
</defs>
</svg>
