<svg width="128" height="128" viewBox="0 0 128 128" fill="none" xmlns="http://www.w3.org/2000/svg">
<path d="M33 66.3236C33 73.2332 35.8446 79.8598 40.9081 84.7456C45.9716 89.6314 52.8392 92.3763 60 92.3763C67.1608 92.3763 74.0284 89.6314 79.0919 84.7456C84.1554 79.8598 87 73.2332 87 66.3236C87 59.414 84.1554 52.7875 79.0919 47.9016C74.0284 43.0158 67.1608 40.271 60 40.271C52.8392 40.271 45.9716 43.0158 40.9081 47.9016C35.8446 52.7875 33 59.414 33 66.3236Z" fill="url(#paint0_linear)" fill-opacity="0.19"/>
<path d="M33 66.3195C33 69.7758 33.6808 73.1983 35.0035 76.3915C36.3261 79.5848 38.2648 82.4862 40.7088 84.9302C43.1528 87.3742 46.0542 89.3129 49.2475 90.6355C52.4407 91.9582 55.8632 92.639 59.3195 92.639C62.7758 92.639 66.1983 91.9582 69.3915 90.6355C72.5848 89.3129 75.4862 87.3742 77.9302 84.9302C80.3742 82.4862 82.3129 79.5848 83.6355 76.3915C84.9582 73.1983 85.639 69.7758 85.639 66.3195C85.639 59.3391 82.866 52.6447 77.9302 47.7088C72.9943 42.7729 66.2999 40 59.3195 40C52.3391 40 45.6447 42.7729 40.7088 47.7088C35.7729 52.6447 33 59.3391 33 66.3195V66.3195Z" stroke="#9BC456" stroke-width="2.5"/>
<path d="M59.1958 54.373C58.7714 54.373 58.3474 54.3959 57.9255 54.4413C57.5388 54.4808 57.1568 54.5456 56.78 54.6242C56.7071 54.6395 56.6341 54.6556 56.5612 54.6724C54.3409 55.1779 52.3135 56.3131 50.7222 57.9418C50.5743 58.0935 50.4294 58.2497 50.2877 58.4103C45.9891 63.3453 46.505 70.8305 51.44 75.1292C56.1646 79.2445 63.2764 78.9707 67.6706 74.5043C67.8188 74.3526 67.9637 74.1964 68.1051 74.0358C70.0021 71.8754 71.0475 69.0981 71.0459 66.223C71.0459 59.6784 65.7404 54.373 59.1958 54.373ZM51.2488 58.5343C51.3112 58.4696 51.376 58.4075 51.4396 58.3447C51.513 58.2725 51.5861 58.1998 51.6612 58.1299C51.7271 58.0682 51.7951 58.009 51.8626 57.9489C51.9388 57.8814 52.0147 57.8139 52.0929 57.7487C52.1616 57.6906 52.2323 57.6349 52.3026 57.5788C52.3816 57.5156 52.4606 57.4524 52.542 57.3916C52.6139 57.3375 52.687 57.285 52.7604 57.2336C52.8422 57.1751 52.9244 57.1151 53.0077 57.0606C53.0824 57.01 53.1578 56.961 53.2337 56.9125C53.3182 56.8583 53.4031 56.805 53.4888 56.7545C53.566 56.7084 53.6437 56.6631 53.7219 56.6186C53.8093 56.5688 53.8971 56.5202 53.9853 56.4728C54.0643 56.4307 54.1433 56.3895 54.2223 56.3492C54.3124 56.3038 54.4033 56.2599 54.4945 56.2169C54.5735 56.1793 54.6557 56.1418 54.737 56.1063C54.8299 56.0668 54.9239 56.0273 55.0179 55.9878C55.0996 55.9542 55.181 55.9214 55.2636 55.8898C55.3592 55.8535 55.4559 55.8195 55.5527 55.7855C55.6353 55.7567 55.7178 55.7279 55.8016 55.7006C55.8999 55.669 55.9991 55.6398 56.0986 55.6109C56.1819 55.5868 56.2645 55.562 56.3482 55.5394C56.3802 55.5311 56.4122 55.5244 56.4442 55.5161C55.275 56.6514 54.4074 58.0604 53.9198 59.6155C52.9822 59.3682 52.0746 59.0189 51.2132 58.5738C51.2263 58.56 51.2373 58.5462 51.2488 58.5343ZM50.6808 59.1703C51.6296 59.6844 52.6358 60.0848 53.6784 60.3632C53.1673 62.1405 52.899 63.9788 52.8809 65.828H48.1448C48.2309 63.3895 49.1227 61.0482 50.6808 59.1703ZM50.6808 73.2758C49.1228 71.3979 48.231 69.0566 48.1448 66.6181H52.8809C52.899 68.4673 53.1672 70.3056 53.6784 72.0829C52.6358 72.3614 51.6297 72.7618 50.6808 73.2758ZM56.3459 76.9082C56.2661 76.8881 56.1835 76.862 56.1014 76.8379C56.0014 76.8087 55.9011 76.7795 55.8024 76.7475C55.719 76.7206 55.6368 76.6918 55.5547 76.6629C55.4575 76.6294 55.3603 76.595 55.2644 76.5583C55.1822 76.5271 55.1012 76.4943 55.0199 76.4611C54.9254 76.4216 54.831 76.3821 54.7374 76.3426C54.6568 76.307 54.5767 76.2705 54.4969 76.2328C54.4048 76.1893 54.3132 76.1451 54.2204 76.0993C54.1414 76.0598 54.0624 76.0203 53.9834 75.9772C53.8941 75.9294 53.8056 75.8804 53.7171 75.8299C53.6381 75.786 53.5631 75.741 53.4869 75.6952C53.4 75.6431 53.3146 75.5893 53.2293 75.5344C53.1543 75.4866 53.0792 75.438 53.0053 75.3883C52.9212 75.3314 52.8379 75.2721 52.7553 75.2129C52.683 75.1611 52.6107 75.1094 52.5396 75.0549C52.4579 74.9933 52.3777 74.9297 52.2979 74.8657C52.228 74.81 52.1585 74.7547 52.0901 74.6974C52.0111 74.6318 51.9349 74.5635 51.8583 74.4956C51.7911 74.4359 51.7236 74.3771 51.658 74.3162C51.5825 74.2459 51.5095 74.1729 51.436 74.1006C51.3724 74.0378 51.3076 73.9757 51.2452 73.9114C51.2338 73.8991 51.2227 73.8865 51.2112 73.8746C52.0726 73.4294 52.9802 73.0799 53.9178 72.8326C54.4055 74.3876 55.2731 75.7966 56.4423 76.9319C56.4103 76.9236 56.3779 76.9169 56.3459 76.9082ZM58.8008 77.2519C57.1106 77.0117 55.6289 75.2477 54.6967 72.6426C56.0445 72.3408 57.4198 72.1789 58.8008 72.1595V77.2519ZM58.8008 71.3695C57.3358 71.3888 55.8771 71.5628 54.4487 71.8886C53.9527 70.1749 53.6911 68.4019 53.6709 66.6181H58.8008V71.3695ZM58.8008 65.828H53.6709C53.691 64.0442 53.9527 62.2712 54.4487 60.5575C55.8771 60.8833 57.3359 61.0573 58.8008 61.0766V65.828ZM58.8008 60.2866C57.4198 60.2673 56.0445 60.1054 54.6967 59.8035C55.6289 57.1984 57.1106 55.4344 58.8008 55.1942V60.2866ZM67.7109 59.1703C69.2689 61.0482 70.1606 63.3895 70.2468 65.828H65.5107C65.4926 63.9788 65.2244 62.1405 64.7132 60.3632C65.7558 60.0847 66.762 59.6843 67.7109 59.1703ZM62.0426 55.5375C62.1255 55.558 62.2081 55.5841 62.2903 55.6082C62.3902 55.6374 62.4905 55.6666 62.5893 55.6986C62.6726 55.7255 62.7548 55.7543 62.8369 55.7832C62.9341 55.8167 63.0313 55.8511 63.1273 55.8878C63.2094 55.919 63.2904 55.9518 63.3718 55.985C63.4662 56.0245 63.5606 56.064 63.6542 56.1035C63.7348 56.1391 63.815 56.1756 63.8948 56.2133C63.9868 56.2568 64.0784 56.301 64.1713 56.3468C64.2503 56.3863 64.3293 56.4258 64.4083 56.4689C64.4975 56.5167 64.586 56.5657 64.6745 56.6162C64.7535 56.6601 64.8285 56.7051 64.9048 56.7509C64.9917 56.803 65.077 56.8568 65.1623 56.9117C65.2374 56.9595 65.3124 57.0081 65.3863 57.0578C65.4704 57.1147 65.5534 57.1736 65.6359 57.2328C65.7086 57.2846 65.7809 57.3367 65.8524 57.3908C65.9338 57.452 66.0135 57.5156 66.0937 57.5796C66.1632 57.6349 66.2332 57.6902 66.3015 57.7479C66.3805 57.8135 66.4567 57.8818 66.5334 57.9497C66.6005 58.0094 66.6681 58.0682 66.7336 58.1291C66.8091 58.1994 66.8822 58.2725 66.9556 58.3447C67.0192 58.4075 67.084 58.4696 67.1464 58.5339C67.1579 58.5462 67.1689 58.5588 67.1804 58.5707C66.319 59.0159 65.4114 59.3654 64.4738 59.6127C63.9852 58.0575 63.1165 56.6487 61.9462 55.5138C61.9782 55.5221 62.0106 55.5288 62.0426 55.5375ZM59.5908 55.1942C61.281 55.4344 62.7627 57.1984 63.6949 59.8035C62.3471 60.1053 60.9718 60.2672 59.5908 60.2866V55.1942ZM59.5908 61.0766C61.0558 61.0573 62.5146 60.8833 63.9429 60.5575C64.4389 62.2712 64.7006 64.0442 64.7207 65.828H59.5908V61.0766ZM59.5908 66.6181H64.7207C64.7006 68.4019 64.439 70.1749 63.9429 71.8886C62.5146 71.5628 61.0558 71.3888 59.5908 71.3695V66.6181ZM59.5908 77.2519V72.1595C60.9718 72.1788 62.3471 72.3407 63.6949 72.6426C62.7627 75.2477 61.281 77.0117 59.5908 77.2519ZM67.1429 73.9118C67.0804 73.9761 67.0161 74.0382 66.9525 74.101C66.879 74.1733 66.8055 74.2463 66.7301 74.3166C66.6645 74.3779 66.597 74.4351 66.5298 74.4964C66.4532 74.5643 66.3769 74.6322 66.2987 74.6978C66.2296 74.7555 66.1593 74.8112 66.089 74.8673C66.01 74.9305 65.931 74.9937 65.8496 75.0545C65.7777 75.1086 65.7047 75.1611 65.6312 75.2125C65.5494 75.271 65.4673 75.331 65.3839 75.3855C65.3093 75.4361 65.2338 75.4851 65.158 75.5332C65.0734 75.5878 64.9883 75.6404 64.9024 75.6912C64.8234 75.7375 64.748 75.7825 64.6701 75.8271C64.5827 75.8769 64.4948 75.9255 64.4063 75.9729C64.3273 76.015 64.2483 76.0562 64.1693 76.0965C64.0792 76.1419 63.9884 76.1858 63.8971 76.2288C63.8181 76.2664 63.736 76.3039 63.6546 76.3394C63.5618 76.3789 63.4678 76.4184 63.3737 76.4579C63.292 76.4911 63.2106 76.5243 63.1285 76.5555C63.0321 76.5922 62.9353 76.6266 62.8381 76.6602C62.756 76.689 62.6738 76.7179 62.5905 76.7447C62.4917 76.7767 62.393 76.8059 62.2922 76.8348C62.2097 76.8593 62.1267 76.8838 62.0434 76.9063C62.0114 76.9146 61.9794 76.9213 61.9474 76.9296C63.1166 75.7943 63.9843 74.3853 64.4719 72.8302C65.4094 73.0775 66.317 73.4268 67.1784 73.8719C67.1654 73.8861 67.1543 73.8999 67.1429 73.9118ZM67.7109 73.2758C66.762 72.7617 65.7559 72.3613 64.7132 72.0829C65.2243 70.3056 65.4926 68.4673 65.5107 66.6181H70.2468C70.1608 69.0566 69.2689 71.3979 67.7109 73.2758Z" fill="#9BC456"/>
<path opacity="0.4" d="M8.78474 76.7329C8.24952 73.7347 7.98703 70.6942 8.00049 67.6487C8.00049 44.9925 22.4743 25.6433 42.8561 17.9141" stroke="url(#paint1_linear)" stroke-width="6.53543" stroke-linecap="round"/>
<path opacity="0.4" d="M75.5327 17.9141C78.4054 18.9261 81.1805 20.1962 83.824 21.709C103.539 32.8693 113.246 54.9982 109.931 76.5412" stroke="url(#paint2_linear)" stroke-width="6.53543" stroke-linecap="round"/>
<path opacity="0.4" d="M89.0011 109.432C86.4638 111.116 83.7792 112.567 80.98 113.767C60.1973 122.786 36.685 117.213 21.4814 101.594" stroke="url(#paint3_linear)" stroke-width="6.53543" stroke-linecap="round"/>
<path d="M58.1048 13.5574L38.9778 9L44.5983 27.8024L58.1048 13.5552V13.5574ZM119.712 75.7528L100.585 71.1998L106.203 90.0001L119.71 75.7572L119.712 75.7528ZM30.3946 95.3591L11.2676 90.8061L16.8859 109.606L30.3924 95.3635L30.3946 95.3591Z" fill="#345FFA"/>
<defs>
<linearGradient id="paint0_linear" x1="60" y1="40.271" x2="60" y2="92.3763" gradientUnits="userSpaceOnUse">
<stop offset="0.481514" stop-color="#9BC456"/>
<stop offset="1" stop-color="#9BC456" stop-opacity="0"/>
</linearGradient>
<linearGradient id="paint1_linear" x1="25.4283" y1="17.9141" x2="25.4283" y2="76.7329" gradientUnits="userSpaceOnUse">
<stop stop-color="#345FFA"/>
<stop offset="1" stop-color="#006DFF" stop-opacity="0"/>
</linearGradient>
<linearGradient id="paint2_linear" x1="118.516" y1="61.3768" x2="67.3329" y2="32.3966" gradientUnits="userSpaceOnUse">
<stop stop-color="#345FFA"/>
<stop offset="1" stop-color="#006DFF" stop-opacity="0"/>
</linearGradient>
<linearGradient id="paint3_linear" x1="16.7149" y1="96.3393" x2="89.6939" y2="118.124" gradientUnits="userSpaceOnUse">
<stop stop-color="#345FFA"/>
<stop offset="1" stop-color="#006DFF" stop-opacity="0"/>
</linearGradient>
</defs>
</svg>
