<svg width="128" height="128" viewBox="0 0 128 128" fill="none" xmlns="http://www.w3.org/2000/svg">
<path fill-rule="evenodd" clip-rule="evenodd" d="M63.6003 13L108.201 38.75V90.25L63.6003 116L19 90.25V38.75L63.6003 13Z" fill="url(#paint0_linear)" fill-opacity="0.19"/>
<path fill-rule="evenodd" clip-rule="evenodd" d="M59.6003 15.3094C62.0755 13.8803 65.1251 13.8803 67.6003 15.3094L104.201 36.4406C106.676 37.8697 108.201 40.5107 108.201 43.3688V85.6312C108.201 88.4893 106.676 91.1303 104.201 92.5594L67.6003 113.691C65.1251 115.12 62.0755 115.12 59.6003 113.691L23 92.5594C20.5248 91.1303 19 88.4893 19 85.6312V43.3688C19 40.5107 20.5248 37.8697 23 36.4406L59.6003 15.3094Z" stroke="url(#paint1_linear)" stroke-width="3"/>
<path fill-rule="evenodd" clip-rule="evenodd" d="M67.7298 65.0915C67.7298 66.2909 67.2086 67.3685 66.3803 68.1103C68.134 68.9154 69.4664 70.4803 69.9562 72.3834H68.2634C67.5961 70.4953 65.7954 69.1426 63.6788 69.1426C61.5622 69.1426 59.7615 70.4953 59.0942 72.3834H57.4014C57.8912 70.4803 59.2236 68.9154 60.9773 68.1103C60.149 67.3685 59.6278 66.2909 59.6278 65.0915C59.6278 62.8542 61.4415 61.0405 63.6788 61.0405C65.9161 61.0405 67.7298 62.8542 67.7298 65.0915ZM63.6788 67.5222C65.0212 67.5222 66.1094 66.4339 66.1094 65.0915C66.1094 63.7492 65.0212 62.6609 63.6788 62.6609C62.3364 62.6609 61.2482 63.7492 61.2482 65.0915C61.2482 66.4339 62.3364 67.5222 63.6788 67.5222Z" fill="#9BC456"/>
<circle cx="63.6789" cy="64.9635" r="10.2008" fill="url(#paint2_linear)" fill-opacity="0.19"/>
<circle cx="63.6789" cy="64.9635" r="9.35485" stroke="#9BC456" stroke-width="1.69196"/>
<path fill-rule="evenodd" clip-rule="evenodd" d="M45.7705 86.2283C45.7705 86.9664 45.4498 87.6295 44.9401 88.086C46.0192 88.5815 46.8392 89.5444 47.1406 90.7156H46.0989C45.6882 89.5537 44.5801 88.7212 43.2776 88.7212C41.9751 88.7212 40.867 89.5537 40.4563 90.7156H39.4146C39.716 89.5444 40.5359 88.5815 41.6151 88.086C41.1054 87.6295 40.7847 86.9664 40.7847 86.2283C40.7847 84.8515 41.9008 83.7354 43.2776 83.7354C44.6544 83.7354 45.7705 84.8515 45.7705 86.2283ZM43.2776 87.724C44.1037 87.724 44.7733 87.0544 44.7733 86.2283C44.7733 85.4022 44.1037 84.7325 43.2776 84.7325C42.4515 84.7325 41.7818 85.4022 41.7818 86.2283C41.7818 87.0544 42.4515 87.724 43.2776 87.724Z" fill="#9BC456"/>
<circle cx="43.2774" cy="86.15" r="6.27743" fill="url(#paint3_linear)" fill-opacity="0.19"/>
<circle cx="43.2774" cy="86.15" r="5.57743" stroke="#9BC456" stroke-width="1.4"/>
<path fill-rule="evenodd" clip-rule="evenodd" d="M87.3584 86.2283C87.3584 86.9664 87.0377 87.6295 86.528 88.086C87.6071 88.5815 88.4271 89.5444 88.7285 90.7156H87.6868C87.2761 89.5537 86.168 88.7212 84.8655 88.7212C83.5629 88.7212 82.4549 89.5537 82.0442 90.7156H81.0024C81.3039 89.5444 82.1238 88.5815 83.203 88.086C82.6933 87.6295 82.3725 86.9664 82.3725 86.2283C82.3725 84.8515 83.4887 83.7354 84.8655 83.7354C86.2423 83.7354 87.3584 84.8515 87.3584 86.2283ZM84.8655 87.724C85.6916 87.724 86.3612 87.0544 86.3612 86.2283C86.3612 85.4022 85.6916 84.7325 84.8655 84.7325C84.0394 84.7325 83.3697 85.4022 83.3697 86.2283C83.3697 87.0544 84.0394 87.724 84.8655 87.724Z" fill="#9BC456"/>
<circle cx="84.8653" cy="86.15" r="6.27743" fill="url(#paint4_linear)" fill-opacity="0.19"/>
<circle cx="84.8653" cy="86.15" r="5.57743" stroke="#9BC456" stroke-width="1.4"/>
<path fill-rule="evenodd" clip-rule="evenodd" d="M45.7705 43.8557C45.7705 44.5938 45.4498 45.2569 44.9401 45.7134C46.0192 46.2089 46.8392 47.1719 47.1406 48.343H46.0989C45.6882 47.1811 44.5801 46.3487 43.2776 46.3487C41.9751 46.3487 40.867 47.1811 40.4563 48.343H39.4146C39.716 47.1719 40.5359 46.2089 41.6151 45.7134C41.1054 45.2569 40.7847 44.5938 40.7847 43.8557C40.7847 42.4789 41.9008 41.3628 43.2776 41.3628C44.6544 41.3628 45.7705 42.4789 45.7705 43.8557ZM43.2776 45.3515C44.1037 45.3515 44.7733 44.6818 44.7733 43.8557C44.7733 43.0296 44.1037 42.36 43.2776 42.36C42.4515 42.36 41.7818 43.0296 41.7818 43.8557C41.7818 44.6818 42.4515 45.3515 43.2776 45.3515Z" fill="#9BC456"/>
<circle cx="43.2774" cy="43.7774" r="6.27743" fill="url(#paint5_linear)" fill-opacity="0.19"/>
<circle cx="43.2774" cy="43.7774" r="5.57743" stroke="#9BC456" stroke-width="1.4"/>
<path fill-rule="evenodd" clip-rule="evenodd" d="M87.3584 43.8557C87.3584 44.5938 87.0377 45.2569 86.528 45.7134C87.6071 46.2089 88.4271 47.1719 88.7285 48.343H87.6868C87.2761 47.1811 86.168 46.3487 84.8655 46.3487C83.5629 46.3487 82.4549 47.1811 82.0442 48.343H81.0024C81.3039 47.1719 82.1238 46.2089 83.203 45.7134C82.6933 45.2569 82.3725 44.5938 82.3725 43.8557C82.3725 42.4789 83.4887 41.3628 84.8655 41.3628C86.2423 41.3628 87.3584 42.4789 87.3584 43.8557ZM84.8655 45.3515C85.6916 45.3515 86.3612 44.6818 86.3612 43.8557C86.3612 43.0296 85.6916 42.36 84.8655 42.36C84.0394 42.36 83.3697 43.0296 83.3697 43.8557C83.3697 44.6818 84.0394 45.3515 84.8655 45.3515Z" fill="#9BC456"/>
<circle cx="84.8653" cy="43.7774" r="6.27743" fill="url(#paint6_linear)" fill-opacity="0.19"/>
<circle cx="84.8653" cy="43.7774" r="5.57743" stroke="#9BC456" stroke-width="1.4"/>
<path d="M53.1789 55.0618C53.3441 55.227 53.6119 55.227 53.7771 55.0618C53.9423 54.8966 53.9423 54.6288 53.7771 54.4636L53.1789 55.0618ZM50.3393 51.201C50.1057 51.201 49.9163 51.3904 49.9163 51.624L49.9163 55.4309C49.9163 55.6645 50.1057 55.8539 50.3393 55.8539C50.5729 55.8539 50.7623 55.6645 50.7623 55.4309L50.7623 52.047L54.1462 52.047C54.3798 52.047 54.5692 51.8576 54.5692 51.624C54.5692 51.3904 54.3798 51.201 54.1462 51.201L50.3393 51.201ZM53.7771 54.4636L50.6384 51.3249L50.0402 51.9231L53.1789 55.0618L53.7771 54.4636Z" fill="#9BC456"/>
<path d="M53.1789 74.8655C53.3441 74.7003 53.6119 74.7003 53.7771 74.8655C53.9423 75.0306 53.9423 75.2985 53.7771 75.4637L53.1789 74.8655ZM50.3393 78.7263C50.1057 78.7263 49.9163 78.5369 49.9163 78.3033L49.9163 74.4963C49.9163 74.2627 50.1057 74.0734 50.3393 74.0734C50.5729 74.0734 50.7623 74.2627 50.7623 74.4963L50.7623 77.8803L54.1462 77.8803C54.3798 77.8803 54.5692 78.0697 54.5692 78.3033C54.5692 78.5369 54.3798 78.7263 54.1462 78.7263L50.3393 78.7263ZM53.7771 75.4637L50.6384 78.6024L50.0402 78.0042L53.1789 74.8655L53.7771 75.4637Z" fill="#9BC456"/>
<path d="M74.9637 55.0618C74.7985 55.227 74.5306 55.227 74.3655 55.0618C74.2003 54.8966 74.2003 54.6288 74.3655 54.4636L74.9637 55.0618ZM77.8033 51.201C78.0369 51.201 78.2263 51.3904 78.2263 51.624L78.2263 55.4309C78.2263 55.6645 78.0369 55.8539 77.8033 55.8539C77.5697 55.8539 77.3803 55.6645 77.3803 55.4309L77.3803 52.047L73.9963 52.047C73.7627 52.047 73.5734 51.8576 73.5734 51.624C73.5734 51.3904 73.7627 51.201 73.9963 51.201L77.8033 51.201ZM74.3655 54.4636L77.5042 51.3249L78.1024 51.9231L74.9637 55.0618L74.3655 54.4636Z" fill="#9BC456"/>
<path d="M74.9637 74.8655C74.7985 74.7003 74.5306 74.7003 74.3655 74.8655C74.2003 75.0306 74.2003 75.2985 74.3655 75.4637L74.9637 74.8655ZM77.8033 78.7263C78.0369 78.7263 78.2263 78.5369 78.2263 78.3033L78.2263 74.4963C78.2263 74.2627 78.0369 74.0734 77.8033 74.0734C77.5697 74.0734 77.3803 74.2627 77.3803 74.4963L77.3803 77.8803L73.9963 77.8803C73.7627 77.8803 73.5734 78.0697 73.5734 78.3033C73.5734 78.5369 73.7627 78.7263 73.9963 78.7263L77.8033 78.7263ZM74.3655 75.4637L77.5042 78.6024L78.1024 78.0042L74.9637 74.8655L74.3655 75.4637Z" fill="#9BC456"/>
<path d="M42.2966 65.1602H48.1817M38.5693 65.1602H39.5502" stroke="#9BC456" stroke-width="1.26897" stroke-linecap="round"/>
<path d="M85.0614 65.1602H79.1763M88.7886 65.1602H87.8077" stroke="#9BC456" stroke-width="1.26897" stroke-linecap="round"/>
<path d="M63.6792 43.5812L63.6792 49.4663M63.6792 39.854L63.6792 40.8348" stroke="#9BC456" stroke-width="1.26897" stroke-linecap="round"/>
<path d="M63.6792 87.327L63.6792 81.4419M63.6792 91.0542L63.6792 90.0734" stroke="#9BC456" stroke-width="1.26897" stroke-linecap="round"/>
<defs>
<linearGradient id="paint0_linear" x1="63.6003" y1="13" x2="63.6003" y2="116" gradientUnits="userSpaceOnUse">
<stop offset="0.481514" stop-color="#9BC456"/>
<stop offset="1" stop-color="#9BC456" stop-opacity="0"/>
</linearGradient>
<linearGradient id="paint1_linear" x1="63.6003" y1="8.59437" x2="63.6003" y2="120.406" gradientUnits="userSpaceOnUse">
<stop stop-color="#9BC456"/>
<stop offset="1" stop-color="#345FFA" stop-opacity="0.6"/>
</linearGradient>
<linearGradient id="paint2_linear" x1="63.6788" y1="54.7627" x2="63.6788" y2="75.1644" gradientUnits="userSpaceOnUse">
<stop offset="0.481514" stop-color="#9BC456"/>
<stop offset="1" stop-color="#9BC456" stop-opacity="0"/>
</linearGradient>
<linearGradient id="paint3_linear" x1="43.2774" y1="79.8726" x2="43.2774" y2="92.4274" gradientUnits="userSpaceOnUse">
<stop offset="0.481514" stop-color="#9BC456"/>
<stop offset="1" stop-color="#9BC456" stop-opacity="0"/>
</linearGradient>
<linearGradient id="paint4_linear" x1="84.8653" y1="79.8726" x2="84.8653" y2="92.4274" gradientUnits="userSpaceOnUse">
<stop offset="0.481514" stop-color="#9BC456"/>
<stop offset="1" stop-color="#9BC456" stop-opacity="0"/>
</linearGradient>
<linearGradient id="paint5_linear" x1="43.2774" y1="37.5" x2="43.2774" y2="50.0549" gradientUnits="userSpaceOnUse">
<stop offset="0.481514" stop-color="#9BC456"/>
<stop offset="1" stop-color="#9BC456" stop-opacity="0"/>
</linearGradient>
<linearGradient id="paint6_linear" x1="84.8653" y1="37.5" x2="84.8653" y2="50.0549" gradientUnits="userSpaceOnUse">
<stop offset="0.481514" stop-color="#9BC456"/>
<stop offset="1" stop-color="#9BC456" stop-opacity="0"/>
</linearGradient>
</defs>
</svg>
