<svg width="128" height="128" viewBox="0 0 128 128" fill="none" xmlns="http://www.w3.org/2000/svg">
<path fill-rule="evenodd" clip-rule="evenodd" d="M63.6003 13L108.201 38.75V90.25L63.6003 116L19 90.25V38.75L63.6003 13Z" fill="url(#paint0_linear)" fill-opacity="0.19"/>
<path fill-rule="evenodd" clip-rule="evenodd" d="M59.6003 15.3094C62.0755 13.8803 65.1251 13.8803 67.6003 15.3094L104.201 36.4406C106.676 37.8697 108.201 40.5107 108.201 43.3688V85.6312C108.201 88.4893 106.676 91.1303 104.201 92.5594L67.6003 113.691C65.1251 115.12 62.0755 115.12 59.6003 113.691L23 92.5594C20.5248 91.1303 19 88.4893 19 85.6312V43.3688C19 40.5107 20.5248 37.8697 23 36.4406L59.6003 15.3094Z" stroke="url(#paint1_linear)" stroke-width="3"/>
<path d="M39.4804 44.5153C53.5731 46.093 61.2846 39.9958 63.3788 36.75H63.422C65.5162 39.9958 73.2277 46.093 87.3204 44.5153C87.5668 52.404 88.6754 80.507 63.4219 92.2166H63.4004H63.3788C38.1254 80.507 39.234 52.404 39.4804 44.5153Z" fill="url(#paint2_linear)" fill-opacity="0.19"/>
<path d="M40.5438 45.2833C54.0101 46.8003 61.3788 40.9376 63.38 37.8167H63.4006H63.4213C65.4224 40.9376 72.7911 46.8003 86.2574 45.2833C86.4928 52.8685 87.5523 79.8906 63.4212 91.1499H63.4006H63.38C39.2489 79.8906 40.3083 52.8685 40.5438 45.2833Z" stroke="#9BC456" stroke-width="2.5"/>
<path d="M57.207 64.621L60.4623 52.2339H69.5941L64.8591 60.2242H69.5941L57.207 77.0926L61.7306 64.621H57.207Z" stroke="#9BC456" stroke-width="2"/>
<defs>
<linearGradient id="paint0_linear" x1="63.6003" y1="13" x2="63.6003" y2="116" gradientUnits="userSpaceOnUse">
<stop offset="0.481514" stop-color="#9BC456"/>
<stop offset="1" stop-color="#9BC456" stop-opacity="0"/>
</linearGradient>
<linearGradient id="paint1_linear" x1="63.6003" y1="8.59437" x2="63.6003" y2="120.406" gradientUnits="userSpaceOnUse">
<stop stop-color="#9BC456"/>
<stop offset="1" stop-color="#345FFA" stop-opacity="0.6"/>
</linearGradient>
<linearGradient id="paint2_linear" x1="63.4004" y1="36.75" x2="63.4004" y2="92.2166" gradientUnits="userSpaceOnUse">
<stop offset="0.481514" stop-color="#9BC456"/>
<stop offset="1" stop-color="#9BC456" stop-opacity="0"/>
</linearGradient>
</defs>
</svg>
