<svg width="128" height="128" viewBox="0 0 128 128" fill="none" xmlns="http://www.w3.org/2000/svg">
<path fill-rule="evenodd" clip-rule="evenodd" d="M63.6003 13L108.201 38.75V90.25L63.6003 116L19 90.25V38.75L63.6003 13Z" fill="url(#paint0_linear)" fill-opacity="0.19"/>
<path fill-rule="evenodd" clip-rule="evenodd" d="M59.6003 15.3094C62.0755 13.8803 65.1251 13.8803 67.6003 15.3094L104.201 36.4406C106.676 37.8697 108.201 40.5107 108.201 43.3688V85.6312C108.201 88.4893 106.676 91.1303 104.201 92.5594L67.6003 113.691C65.1251 115.12 62.0755 115.12 59.6003 113.691L23 92.5594C20.5248 91.1303 19 88.4893 19 85.6312V43.3688C19 40.5107 20.5248 37.8697 23 36.4406L59.6003 15.3094Z" stroke="url(#paint1_linear)" stroke-width="3"/>
<path d="M88.8869 42.2116V50.4559V60.5027L86.1925 62.2886L84.8724 64.2298L85.3383 70.6746H88.8869L90.3855 71.2958L91.6279 73.3147L90.7737 75.3335H92.2491L94.8891 76.4206V78.2842L93.5691 80.1477H90.7737L91.6279 82.5548L90.7737 84.5737L87.5901 85.0396V86.9032V88.5283L86.1925 89.3103H67.9451L66.3145 87.9902L64.218 85.7384H58.3167L57.3103 91.6658L53.15 92.512L51.634 95.6145L48.9898 94.8741L48.1789 91.4543L47.1917 92.1946L44.477 91.4543L43.7366 88.8101L42.896 88.5283H40.1412L38.8435 86.2103V69.3834L40.1412 67.7522L42.896 65.1767V58.5458H37.8055L36.1889 56.3898L36.7875 53.7547L33.254 53.096L32.895 50.7603L36.1889 48.3648L36.7875 46.2088L38.2247 44.3523L40.1412 43.4539L39.7818 42.5556L40.8599 39.8606H59.7247L62.5993 42.9748H69.7862V38.8425L71.4364 37.5398L74.1846 36.578L75.2839 33.9673H78.444L79.6807 38.3643L80.6426 37.5398L83.3907 38.3643L84.3526 41.1124H86.8259L88.8869 42.2116Z" fill="url(#paint2_linear)" fill-opacity="0.19"/>
<path d="M92.5581 74.567H92.0586C92.0654 74.5528 92.072 74.5385 92.0785 74.5244C92.2801 74.084 92.3803 73.614 92.3763 73.1273C92.3615 71.3277 90.8605 69.8635 89.0304 69.8635H85.9818V63.8015L88.0022 62.3811C89.0262 61.6612 89.6375 60.4842 89.6375 59.2326V54.4193C89.6375 53.9004 89.2169 53.4797 88.6979 53.4797C88.1789 53.4797 87.7584 53.9004 87.7584 54.4193V59.2326C87.7584 59.8731 87.4456 60.4755 86.9215 60.8439L84.5018 62.5449C84.2516 62.7208 84.1027 63.0076 84.1027 63.3135V69.8635H74.0776L75.7803 65.3185C76.1153 64.4242 76.0595 63.4229 75.6273 62.5713C75.1954 61.7197 74.4202 61.0835 73.5009 60.8258C72.6539 60.588 71.7627 60.8785 71.2168 61.5496L61.8337 55.7478C61.7278 55.6725 61.6806 55.5397 61.7159 55.4139C61.8337 54.9935 62.1132 54.6531 62.5025 54.4557C62.8915 54.2582 63.3313 54.2337 63.7402 54.3869L69.5543 56.5649C69.8427 56.6729 70.166 56.6328 70.4192 56.4572C70.6724 56.2817 70.8234 55.9932 70.8234 55.685V39.377C70.8234 38.5745 71.4517 37.9166 72.2237 37.9102C72.4363 37.9094 72.6349 37.9513 72.8229 38.0375C73.0771 38.1539 73.2897 38.3415 73.4373 38.5803C73.5751 38.8024 73.6479 39.0591 73.6479 39.3225V47.275C73.6479 47.7939 74.0685 48.2145 74.5875 48.2145C75.1065 48.2145 75.527 47.7939 75.527 47.275V39.3224V35.8494C75.527 35.0469 76.1551 34.3888 76.927 34.3825C77.1341 34.3809 77.3383 34.4236 77.5263 34.5097C78.0275 34.7393 78.3515 35.2437 78.3515 35.7947V39.3224V47.2749C78.3515 47.7938 78.772 48.2144 79.291 48.2144C79.81 48.2144 80.2306 47.7938 80.2306 47.2749V39.3224C80.2306 38.5437 80.8641 37.9102 81.6426 37.9102C81.8481 37.9102 82.0455 37.953 82.2299 38.0375C82.7311 38.2671 83.055 38.7714 83.055 39.3224V42.85V47.2748C83.055 47.7936 83.4755 48.2143 83.9945 48.2143C84.5135 48.2143 84.934 47.7936 84.934 47.2748V42.85C84.934 42.086 85.5551 41.4525 86.3187 41.4381C86.6858 41.4343 87.0373 41.5745 87.3098 41.8419C87.5949 42.1216 87.7585 42.5084 87.7585 42.903V50.3246C87.7585 50.8435 88.1791 51.2642 88.6981 51.2642C89.2171 51.2642 89.6376 50.8435 89.6376 50.3246V42.903C89.6376 42.0071 89.2689 41.1314 88.6259 40.5006C87.9904 39.877 87.1601 39.5421 86.283 39.5593C85.8017 39.5684 85.3448 39.6829 84.934 39.8805V39.3223C84.934 38.0385 84.1798 36.8636 83.0126 36.329C82.5811 36.1312 82.1202 36.031 81.6426 36.031C81.1375 36.031 80.6588 36.1454 80.2306 36.3496V35.7947C80.2306 34.5111 79.4763 33.336 78.3088 32.8012C77.8688 32.5998 77.3961 32.5007 76.9116 32.5035C75.112 32.5184 73.6478 34.0193 73.6478 35.8494V36.3488C73.6338 36.342 73.6196 36.3355 73.6055 36.329C73.1654 36.1273 72.6972 36.023 72.2082 36.0311C70.4085 36.0458 68.9442 37.5468 68.9442 39.3769V42.245H63.2027L61.7822 40.2246C61.0623 39.2007 59.8852 38.5894 58.6336 38.5894H42.3041C41.4081 38.5894 40.5325 38.9582 39.9016 39.6012C39.278 40.2367 38.9438 41.0688 38.9603 41.9441C38.9695 42.4254 39.084 42.8822 39.2815 43.293H38.7234C37.4398 43.293 36.2647 44.0473 35.7299 45.2144C35.5323 45.6457 35.432 46.1067 35.432 46.5844C35.432 47.0895 35.5464 47.5684 35.7506 47.9966H35.1957C33.912 47.9966 32.7371 48.7508 32.2022 49.9184C32.0007 50.3583 31.9006 50.8282 31.9044 51.3154C31.9193 53.115 33.4203 54.5792 35.2503 54.5792H35.7497C35.743 54.5934 35.7363 54.6077 35.7298 54.6219C35.5283 55.0623 35.428 55.5323 35.432 56.0188C35.4468 57.8185 36.9478 59.2827 38.7779 59.2827H41.8265V65.3447L39.8063 66.7649C38.7822 67.4848 38.1709 68.6619 38.1709 69.9136V86.2431C38.1709 87.1391 38.5395 88.0147 39.1826 88.6456C39.8181 89.2693 40.6459 89.6059 41.5255 89.5869C42.0068 89.5778 42.4637 89.4633 42.8744 89.2656V89.8238C42.8744 91.1076 43.6287 92.2825 44.7959 92.817C45.2274 93.0148 45.6883 93.1151 46.1658 93.1151C46.6709 93.1151 47.1498 93.0007 47.578 92.7965V93.3514C47.578 94.6351 48.3323 95.8101 49.4997 96.3449C49.9312 96.5427 50.3917 96.6428 50.8687 96.6428H50.8968C52.6965 96.628 54.1607 95.1272 54.1607 93.2969V92.7975C54.1747 92.8042 54.1889 92.8108 54.203 92.8173C54.6432 93.019 55.113 93.1173 55.6003 93.1153C57.3999 93.1005 58.8642 91.5996 58.8642 89.7695V86.9016H64.6058L66.0263 88.922C66.7461 89.9458 67.9231 90.5571 69.1749 90.5573H72.2793C72.7983 90.5573 73.2189 90.1366 73.2189 89.6177C73.2189 89.0988 72.7983 88.6782 72.2793 88.6782H69.1749C68.5343 88.6781 67.9319 88.3652 67.5635 87.8412L65.8625 85.4217C65.6867 85.1716 65.3999 85.0226 65.0939 85.0226H58.8644V74.8169L63.4093 76.5194C64.3035 76.8544 65.305 76.7988 66.1564 76.3667C67.008 75.9347 67.6443 75.1596 67.9022 74.24C68.1558 73.3353 67.8075 72.38 67.0357 71.8492L72.6598 62.7533C72.7351 62.6475 72.8681 62.6002 72.9936 62.6356C73.4139 62.7533 73.7542 63.0327 73.9517 63.422C74.1493 63.8114 74.1737 64.2511 74.0206 64.66L71.8425 70.4739C71.7345 70.7625 71.7747 71.0856 71.9501 71.3388C72.1256 71.5921 72.4143 71.7431 72.7223 71.7431H89.0304C89.8329 71.7431 90.491 72.3712 90.4972 73.1432C90.499 73.3527 90.4561 73.5544 90.3701 73.7424C90.2536 73.9966 90.0659 74.2092 89.8271 74.3571C89.6052 74.4948 89.3485 74.5676 89.0849 74.5676H81.1327C80.6137 74.5676 80.1931 74.9882 80.1931 75.5071C80.1931 76.026 80.6137 76.4466 81.1327 76.4466H89.0849H92.5581C93.3604 76.4466 94.0185 77.0749 94.0249 77.8466C94.0266 78.0564 93.9838 78.2581 93.8977 78.446C93.6681 78.9472 93.1636 79.2711 92.6126 79.2711H89.0849H81.1327C80.6137 79.2711 80.1931 79.6918 80.1931 80.2107C80.1931 80.7296 80.6137 81.1502 81.1327 81.1502H89.0849C89.8636 81.1502 90.4971 81.7837 90.4971 82.5624C90.4971 82.768 90.4544 82.9654 90.3699 83.1496C90.1403 83.6508 89.6359 83.9747 89.0848 83.9747H85.5575H81.1328C80.6138 83.9747 80.1932 84.3954 80.1932 84.9143C80.1932 85.4331 80.6138 85.8538 81.1328 85.8538H85.5575C86.3217 85.8538 86.9549 86.4749 86.9694 87.2384C86.9765 87.6051 86.833 87.9571 86.5657 88.2296C86.286 88.5147 85.8993 88.6783 85.5045 88.6783H76.3741C75.8551 88.6783 75.4346 89.099 75.4346 89.6178C75.4346 90.1367 75.8551 90.5574 76.3741 90.5574H85.5045C86.4003 90.5574 87.2761 90.1886 87.907 89.5456C88.5307 88.9101 88.8649 88.078 88.8483 87.2027C88.8391 86.7214 88.7246 86.2644 88.5271 85.8538H89.0852C90.3688 85.8538 91.5439 85.0995 92.0787 83.9324C92.2763 83.5011 92.3765 83.0401 92.3765 82.5624C92.3765 82.0573 92.2622 81.5784 92.058 81.1502H92.6129C93.8966 81.1502 95.0716 80.396 95.6064 79.2284C95.8079 78.7885 95.908 78.3186 95.9042 77.8314C95.889 76.0311 94.3882 74.567 92.5581 74.567ZM37.3114 56.0032C37.3096 55.7937 37.3525 55.592 37.4385 55.4041C37.555 55.15 37.7427 54.9374 37.9813 54.7896C38.2036 54.6519 38.4601 54.5791 38.7237 54.5791H46.6759C47.1949 54.5791 47.6155 54.1584 47.6155 53.6396C47.6155 53.1207 47.1949 52.7 46.6759 52.7H38.7237H35.2505C34.4482 52.7 33.7901 52.0719 33.7837 51.3001C33.782 51.0903 33.8248 50.8885 33.9109 50.7007C34.1405 50.1994 34.645 49.8755 35.196 49.8755H38.7237H46.6759C47.1949 49.8755 47.6155 49.4549 47.6155 48.936C47.6155 48.4171 47.1949 47.9964 46.6759 47.9964H38.7237C37.945 47.9964 37.3115 47.363 37.3115 46.5843C37.3115 46.3787 37.3542 46.1813 37.4387 45.9971C37.6683 45.4959 38.1727 45.1719 38.7238 45.1719H42.2511H46.6758C47.1948 45.1719 47.6153 44.7513 47.6153 44.2324C47.6153 43.7135 47.1948 43.2929 46.6758 43.2929H42.2511C41.4869 43.2929 40.8537 42.6718 40.8392 41.9084C40.8321 41.5416 40.9756 41.1897 41.2429 40.9172C41.5226 40.6321 41.9093 40.4685 42.3041 40.4685H58.6337C59.2743 40.4685 59.8767 40.7814 60.2451 41.3054L61.946 43.7249C62.1219 43.9752 62.4087 44.1242 62.7147 44.1242H68.9442V54.3299L64.3992 52.6274C63.5052 52.2925 62.5038 52.3481 61.6522 52.7801C60.8006 53.2121 60.1643 53.9873 59.9064 54.9068C59.6528 55.8115 60.0012 56.7668 60.7729 57.2976L55.1488 66.3935C55.0736 66.4993 54.9407 66.5467 54.815 66.5112C54.3947 66.3935 54.0544 66.1141 53.8569 65.7248C53.6593 65.3354 53.6349 64.8957 53.788 64.4868L55.9661 58.6727C56.0741 58.3842 56.034 58.061 55.8585 57.8079C55.683 57.5547 55.3943 57.4036 55.0863 57.4036H38.7782C37.9756 57.4035 37.3176 56.7754 37.3114 56.0032ZM66.0928 73.7321C65.975 74.1526 65.6956 74.4929 65.3062 74.6903C64.9172 74.8878 64.4775 74.9123 64.0685 74.7591L58.2544 72.5811C57.9658 72.473 57.6426 72.5134 57.3895 72.6889C57.1364 72.8644 56.9853 73.1529 56.9853 73.4611V89.7692C56.9853 90.5717 56.3571 91.2296 55.585 91.236C55.5809 91.236 55.5769 91.236 55.5727 91.236C55.3674 91.236 55.1701 91.1933 54.9857 91.1087C54.7315 90.9922 54.5189 90.8047 54.3712 90.5661C54.2334 90.3439 54.1607 90.0872 54.1607 89.8238V81.8713C54.1607 81.3524 53.7401 80.9318 53.2211 80.9318C52.7021 80.9318 52.2816 81.3524 52.2816 81.8713V89.8238V93.2968C52.2816 94.0993 51.6535 94.7574 50.8814 94.7636C50.8773 94.7636 50.8733 94.7636 50.8692 94.7636C50.664 94.7636 50.4665 94.7209 50.2821 94.6363C49.7809 94.4067 49.4571 93.9024 49.4571 93.3513V89.8237V81.8712C49.4571 81.3523 49.0366 80.9316 48.5176 80.9316C47.9986 80.9316 47.578 81.3523 47.578 81.8712V89.8237C47.578 90.6023 46.9444 91.2358 46.1658 91.2358C45.9604 91.2358 45.763 91.193 45.5786 91.1086C45.0773 90.8791 44.7535 90.3746 44.7535 89.8237V86.296V81.8713C44.7535 81.3524 44.333 80.9318 43.814 80.9318C43.295 80.9318 42.8744 81.3524 42.8744 81.8713V86.296C42.8744 87.06 42.2533 87.6935 41.4898 87.708C41.1229 87.713 40.7711 87.5715 40.4987 87.3042C40.2135 87.0245 40.0499 86.6376 40.0499 86.243V69.9135C40.0499 69.2728 40.3629 68.6704 40.887 68.302L43.3064 66.601C43.5567 66.425 43.7056 66.1383 43.7056 65.8324V59.2824H53.7307L52.028 63.8274C51.6931 64.7217 51.7488 65.723 52.181 66.5746C52.6129 67.4262 53.3881 68.0623 54.3075 68.3201C54.5047 68.3755 54.7043 68.4022 54.9015 68.4022C55.5511 68.4022 56.1729 68.1112 56.5917 67.5965L59.221 69.2221C59.375 69.3173 59.5456 69.3627 59.7143 69.3627C60.0291 69.3627 60.3367 69.2044 60.5143 68.9171C60.7873 68.4757 60.6507 67.8967 60.2093 67.6239L57.596 66.0081L62.3693 58.2881L70.2122 63.1375L65.4389 70.8575L63.6922 69.7776C63.2511 69.5046 62.6717 69.6411 62.399 70.0826C62.1261 70.5239 62.2626 71.1029 62.7041 71.3758L65.9748 73.3982C66.0808 73.4736 66.128 73.6064 66.0928 73.7321Z" fill="#9BC456"/>
<defs>
<linearGradient id="paint0_linear" x1="63.6003" y1="13" x2="63.6003" y2="116" gradientUnits="userSpaceOnUse">
<stop offset="0.481514" stop-color="#9BC456"/>
<stop offset="1" stop-color="#9BC456" stop-opacity="0"/>
</linearGradient>
<linearGradient id="paint1_linear" x1="63.6003" y1="8.59437" x2="63.6003" y2="120.406" gradientUnits="userSpaceOnUse">
<stop stop-color="#9BC456"/>
<stop offset="1" stop-color="#345FFA" stop-opacity="0.6"/>
</linearGradient>
<linearGradient id="paint2_linear" x1="63.892" y1="33.9673" x2="63.892" y2="95.6145" gradientUnits="userSpaceOnUse">
<stop offset="0.481514" stop-color="#9BC456"/>
<stop offset="1" stop-color="#9BC456" stop-opacity="0"/>
</linearGradient>
</defs>
</svg>
