<svg width="128" height="128" viewBox="0 0 128 128" fill="none" xmlns="http://www.w3.org/2000/svg">
<g clip-path="url(#clip0)">
<path fill-rule="evenodd" clip-rule="evenodd" d="M56.2517 21.806C58.7269 20.3769 61.7765 20.3769 64.2517 21.806L100.852 42.9372C103.327 44.3662 104.852 47.0073 104.852 49.8654V92.1278C104.852 94.9859 103.327 97.6269 100.852 99.056L64.2517 120.187C61.7765 121.616 58.7269 121.616 56.2517 120.187L19.6514 99.056C17.1762 97.6269 15.6514 94.9859 15.6514 92.1278V49.8654C15.6514 47.0073 17.1762 44.3662 19.6514 42.9372L56.2517 21.806Z" stroke="url(#paint0_linear)" stroke-width="3"/>
<g filter="url(#filter0_d)">
<path fill-rule="evenodd" clip-rule="evenodd" d="M63.8518 8.30598C66.327 6.87692 69.3766 6.87692 71.8518 8.30598L108.452 29.4372C110.927 30.8662 112.452 33.5073 112.452 36.3654V78.6278C112.452 81.4859 110.927 84.1269 108.452 85.556L71.8518 106.687C69.3766 108.116 66.327 108.116 63.8518 106.687L27.2515 85.556C24.7763 84.1269 23.2515 81.4859 23.2515 78.6278V36.3654C23.2515 33.5073 24.7763 30.8662 27.2515 29.4372L63.8518 8.30598Z" fill="#FAFFF2"/>
</g>
<path d="M63.3343 44.2566C59.7169 45.9846 58.2327 48.7355 57.189 49.7904" stroke="#9BC456" stroke-width="3"/>
<path d="M55.5642 58.0727C56.7807 62.5732 57.2206 62.5552 57.7676 63.9237" stroke="#9BC456" stroke-width="3"/>
<path d="M78.0464 48.5313C74.1328 45.0491 73.2732 45.3459 71.9841 44.6109" stroke="#9BC456" stroke-width="3"/>
<path d="M77.6704 64.278C80.1652 60.8904 79.9386 58.9398 80.4478 57.5459" stroke="#9BC456" stroke-width="3"/>
<path d="M64.0385 68.2229C68.5014 70.0981 72.946 67.2437 74.43 67.2357" stroke="#9BC456" stroke-width="3"/>
<path d="M64.7535 30.0125V26.905L71.854 25.5649L72.0763 30.4573L73.633 32.3634L74.7767 34.1743L75.2532 36.9064L76.2063 39.9562L74.2366 40.2421L72.7752 39.9562V43.546L72.1716 46.0558H70.1384L68.7724 47.5807L67.3428 46.3417L66.1356 46.0558L64.7535 44.9756L63.6671 44.6579L62.0693 44.1179V42.0211V38.05L62.6017 33.293L63.6671 31.6158L64.7535 30.0125Z" fill="url(#paint1_linear)" fill-opacity="0.19"/>
<path d="M76.6139 38.4961L75.911 34.9815C75.6181 33.517 74.9151 32.2283 73.8608 31.1739L72.6892 30.0024V25.3748C72.6892 24.9062 72.3377 24.5547 71.8691 24.5547C71.4005 24.5547 71.049 24.9062 71.049 25.3748V30.3539C71.049 30.5882 71.1662 30.7639 71.2833 30.9396L72.7478 32.3455C73.5679 33.1656 74.0951 34.1614 74.3294 35.2744L75.0323 38.789C75.0323 38.9062 75.0323 39.0819 74.9737 39.199C74.9151 39.3162 74.798 39.3748 74.6223 39.4334C74.3294 39.4919 74.0951 39.3162 74.0365 39.0233L73.685 37.5589C73.5679 37.0317 73.0992 36.7388 72.572 36.7974C72.0449 36.856 71.6348 37.266 71.6348 37.8518V44.7053C71.6348 44.9982 71.4005 45.174 71.1662 45.174C70.9319 45.174 70.6976 44.9982 70.6976 44.7639V41.1907C70.6976 40.7221 70.3461 40.3706 69.8775 40.3706C69.4089 40.3706 69.0574 40.7221 69.0574 41.1907V44.7053C69.0574 44.7639 69.0574 44.8225 69.0574 44.8225V45.9355C69.0574 46.2283 68.8231 46.4041 68.5888 46.4041C68.2959 46.4041 68.1202 46.1698 68.1202 45.9355V44.8225C68.1202 44.7639 68.1202 44.7053 68.1202 44.7053V41.1907C68.1202 40.7221 67.7687 40.3706 67.3001 40.3706C66.8315 40.3706 66.48 40.7221 66.48 41.1907V44.7639C66.4214 44.9982 66.2457 45.174 66.0114 45.174C65.7185 45.174 65.5428 44.9396 65.5428 44.7053V43.4752C65.5428 43.4166 65.5428 43.358 65.5428 43.358V41.2493C65.5428 40.7806 65.1913 40.4292 64.7227 40.4292C64.2541 40.4292 63.9026 40.7806 63.9026 41.2493V43.4166C63.844 43.6509 63.6683 43.8267 63.434 43.8267C63.1411 43.8267 62.9653 43.5924 62.9653 43.358V40.4292V38.4375V35.9773C62.9653 34.4543 63.5511 33.0484 64.6055 31.9354L65.5428 30.9982C65.7185 30.8225 65.7771 30.6467 65.7771 30.4124V27.4632C65.7771 26.9946 65.4256 26.6432 64.957 26.6432C64.4884 26.6432 64.1369 26.9946 64.1369 27.4632V30.061L63.434 30.7639C62.0281 32.1698 61.2666 33.9857 61.2666 35.9773V38.4375V40.4292V43.358C61.2666 44.5296 62.2624 45.5254 63.434 45.5254C63.6683 45.5254 63.844 45.4668 64.0197 45.4668C64.3126 46.3455 65.1327 46.9313 66.07 46.9313C66.3043 46.9313 66.5386 46.8727 66.7143 46.8141C67.0658 47.6342 67.8273 48.1614 68.7059 48.1614C69.6432 48.1614 70.4047 47.5756 70.6976 46.8141C70.8733 46.8727 71.1076 46.9313 71.3419 46.9313C72.5135 46.9313 73.5093 45.9355 73.5093 44.7639V40.8392C73.9779 41.1321 74.5637 41.3078 75.0909 41.1907C75.6767 41.0735 76.2038 40.7806 76.4967 40.2534C76.5553 39.7262 76.731 39.0819 76.6139 38.4961Z" fill="#9BC456"/>
<path d="M80.4494 80.8371L82.102 84.8695L87.0678 78.616L86.0406 76.4536L86.3653 73.5807L84.7636 69.831L81.3619 64.1085L79.4881 63.8818L78.6069 64.3131L77.4419 63.8818L76.3236 63.8818L76.0218 65.0187L75.0656 63.8818L73.4345 64.3131L72.9086 66.7894L71.664 67.768L72.9086 69.5387L75.0656 73.9565L72.0834 73.5807L72.0834 75.5033L75.5121 79.2311L77.8981 80.2273L80.4494 80.8371Z" fill="url(#paint2_linear)" fill-opacity="0.19"/>
<path d="M71.4588 75.7513L73.8019 78.4458C74.7977 79.5588 76.0278 80.3203 77.4337 80.7303L79.0739 81.1404L81.417 85.1822C81.6513 85.5923 82.1785 85.7094 82.5885 85.4751C82.9986 85.2408 83.1157 84.7136 82.8814 84.3036L80.3626 79.9688C80.2454 79.7931 80.0697 79.6174 79.8354 79.5588L77.8437 79.0316C76.7308 78.7387 75.7935 78.1529 75.032 77.2743L72.6889 74.5797C72.6304 74.5797 72.5718 74.404 72.5718 74.2868C72.5718 74.1697 72.6304 73.9939 72.7475 73.9354C72.9818 73.7596 73.2747 73.7596 73.4504 73.9939L74.5048 75.1069C74.8563 75.5169 75.4421 75.5169 75.8521 75.2241C76.2622 74.9312 76.3793 74.3454 76.145 73.8768L72.7475 67.9605C72.6304 67.7261 72.6889 67.4333 72.9232 67.3161C73.1576 67.1989 73.3919 67.2575 73.5676 67.4333L75.3249 70.5379C75.5592 70.9479 76.0864 71.0651 76.4965 70.8308C76.9065 70.5964 77.0237 70.0692 76.7894 69.6592L75.032 66.6132C75.032 66.5546 74.9735 66.5546 74.9735 66.496L74.3877 65.5002C74.2705 65.2659 74.3291 64.973 74.5634 64.8559C74.7977 64.7387 75.0906 64.7973 75.2078 65.0316L75.7935 66.0274C75.7935 66.086 75.8521 66.086 75.8521 66.1446L77.6094 69.1906C77.8437 69.6006 78.3709 69.7178 78.781 69.4835C79.191 69.2492 79.3082 68.722 79.0739 68.3119L77.3165 65.2073C77.1994 64.973 77.3165 64.7387 77.5509 64.6215C77.7852 64.5044 78.0781 64.563 78.1952 64.7973L78.8396 65.9102C78.8396 65.9688 78.8981 65.9688 78.8981 66.0274L79.9525 67.8433C80.1868 68.2533 80.714 68.3705 81.1241 68.1362C81.5341 67.9019 81.6513 67.3747 81.417 66.9646L80.304 65.0902C80.1868 64.8559 80.304 64.6215 80.5383 64.5044C80.7726 64.3872 81.0655 64.4458 81.1827 64.6801L82.6471 67.2575L83.6429 69.0149L84.873 71.1236C85.6345 72.4123 85.8103 73.9939 85.4588 75.4584L85.1074 76.6299C85.0488 76.8642 85.1074 77.0985 85.1659 77.2743L86.8061 80.5502C87.0404 80.9603 87.5676 81.0774 87.9776 80.8431C88.3877 80.6088 88.5048 80.0816 88.2705 79.6716L86.8061 76.6885L87.0404 75.7513C87.5676 73.8768 87.2747 71.8851 86.2789 70.1278L85.0488 68.019L84.053 66.2617L82.5885 63.6843C82.0027 62.6299 80.6555 62.2784 79.6011 62.8642C79.4253 62.9814 79.2496 63.0985 79.1324 63.2157C78.4295 62.6299 77.4337 62.5128 76.6136 62.9814C76.4379 63.0985 76.2622 63.2157 76.0864 63.3914C75.3835 62.8642 74.4463 62.7471 73.6847 63.2157C72.9232 63.6843 72.5132 64.563 72.6304 65.3831C72.396 65.4416 72.2203 65.5002 72.0446 65.6174C70.9902 66.2031 70.6387 67.5504 71.2245 68.6048L73.1576 72.0023C72.6304 71.9437 72.0446 72.1195 71.576 72.5295C71.1073 72.9395 70.8145 73.4667 70.8145 74.0525C70.873 74.7554 71.0488 75.3412 71.4588 75.7513Z" fill="#9BC456"/>
<path d="M51.748 77.6168L49.6411 82.238H56.9808L58.3399 80.2672L60.9903 79.1119L63.4368 75.85L65.9512 69.2581V68.3066L64.728 67.763L64.3882 66.7436L63.8445 65.5204H62.8251V64.569L61.7378 63.1418L59.6311 63.7535L58.3399 63.1418L56.9808 64.2292L54.7382 68.3066L53.6508 67.1513H51.748L50.3209 72.7239L51.0005 75.1024L51.748 77.6168Z" fill="url(#paint3_linear)" fill-opacity="0.19"/>
<path d="M50.7226 67.8434L49.9025 71.358C49.5511 72.7639 49.6682 74.2869 50.1954 75.6342L50.7812 77.2158L48.8481 81.4333C48.6724 81.8434 48.8481 82.3706 49.2582 82.5463C49.6682 82.7221 50.1954 82.5463 50.3711 82.1363L52.4214 77.6258C52.5385 77.4501 52.5385 77.2158 52.4214 76.9815L51.7184 75.107C51.3084 74.0526 51.2498 72.881 51.4841 71.8267L52.3042 68.312C52.3628 68.1948 52.4214 68.0777 52.5385 67.9605C52.6557 67.902 52.7728 67.8434 52.9485 67.902C53.1829 67.9605 53.3586 68.2534 53.3 68.4877L53.0071 69.9522C52.89 70.4794 53.1829 70.948 53.7101 71.1237C54.2373 71.2994 54.7645 71.0651 54.9402 70.5379L57.8691 64.3287C57.9862 64.0944 58.2791 63.9773 58.5134 64.0944C58.7477 64.2116 58.8649 64.4459 58.8063 64.6802L57.3419 67.902C57.1661 68.312 57.3419 68.8392 57.7519 69.0149C58.1619 69.1907 58.6891 69.0149 58.8649 68.6049L60.3293 65.4417C60.3293 65.3831 60.3879 65.3831 60.3879 65.3245L60.8565 64.3287C60.9737 64.0944 61.2665 63.9773 61.5009 64.0944C61.7352 64.2116 61.8523 64.5045 61.7352 64.7388L61.2665 65.7346C61.2665 65.7932 61.208 65.7932 61.208 65.8517L59.7435 69.0149C59.5678 69.425 59.7435 69.9522 60.1536 70.1279C60.5636 70.3036 61.0908 70.1279 61.2665 69.7179L62.731 66.4961C62.8481 66.3204 63.141 66.2032 63.3753 66.3204C63.6096 66.4375 63.7268 66.7304 63.6096 66.9647L63.0824 68.0777C63.0824 68.1363 63.0239 68.1363 63.0239 68.1948L62.1452 70.1279C61.9695 70.5379 62.1452 71.0651 62.5553 71.2409C62.9653 71.4166 63.4925 71.2409 63.6682 70.8308L64.5469 68.8392C64.664 68.6635 64.9569 68.5463 65.1912 68.6635C65.4255 68.7806 65.5427 69.0735 65.4255 69.3078L64.1954 72.0024L63.3753 73.8183L62.3795 76.0442C61.7352 77.4501 60.6222 78.5045 59.2163 79.0317L57.9276 79.4417C57.6933 79.5003 57.5762 79.676 57.459 79.8518L56.6389 81.6677C56.4632 82.0777 56.6389 82.6049 57.049 82.7806C57.459 82.9564 57.9862 82.7806 58.1619 82.3706L58.8649 80.9062L59.7435 80.5547C61.618 79.8518 63.0824 78.5045 63.9025 76.6886L64.8983 74.4626L65.7184 72.6467L66.9486 69.9522C67.4172 68.8392 66.9486 67.5505 65.8942 67.0819C65.7184 67.0233 65.4841 66.9647 65.3084 66.9061C65.4255 66.0275 64.8983 65.0902 64.0783 64.6802C63.9025 64.563 63.6682 64.5045 63.4339 64.5045C63.4925 63.6258 62.9653 62.8057 62.1452 62.4543C61.3251 62.1028 60.3879 62.2785 59.7435 62.8643C59.5678 62.7471 59.3921 62.5714 59.2163 62.5128C58.1034 62.0442 56.8147 62.5128 56.346 63.5672L54.7059 67.1405C54.413 66.6718 53.9444 66.3204 53.3586 66.1446C52.7728 65.9689 52.187 66.0861 51.6598 66.3789C51.1326 66.6718 50.8398 67.2576 50.7226 67.8434Z" fill="#9BC456"/>
<path d="M42.5671 45.8628L39.1067 45.0661L36.5441 52.7164L39.0916 53.6689L42.3039 56.8711L45.2786 58.3819L52.6909 60.6481L54.3917 59.4544L55.7125 57.8153L57.1728 56.5742L58.0986 55.5964L59.253 54.3688L58.402 52.7164L58.0983 49.6004L51.6519 47.5703L52.9738 46.8149L53.5403 45.0661C52.5966 44.6315 51.027 43.7472 51.0562 43.9119C51.0853 44.0766 47.8277 43.9119 45.8181 44.4386L42.5671 45.8628Z" fill="url(#paint4_linear)" fill-opacity="0.19"/>
<path d="M55.7602 59.5254C55.8187 59.2911 55.8187 59.0567 55.8187 58.881C56.8146 58.8224 57.6932 58.1195 57.9861 57.1237C58.0447 56.8894 58.1033 56.6551 58.0447 56.4208C58.3376 56.3622 58.689 56.3036 58.9233 56.1279C59.5091 55.835 59.8606 55.3078 60.0363 54.6634C60.2706 53.6676 59.9192 52.6718 59.1576 52.1446C59.2748 51.9689 59.392 51.7346 59.4505 51.5003C59.6263 50.8559 59.5091 50.2116 59.2162 49.6844C58.9233 49.0986 58.3961 48.7471 57.7518 48.5714L53.6514 47.3413C54.12 46.9312 54.4129 46.3454 54.4715 45.7011C54.53 45.0567 54.2957 44.4124 53.8857 43.8852C53.4756 43.358 52.8313 43.0651 52.1869 43.0651L48.2037 42.7722C46.5635 42.6551 44.9819 43.0651 43.5761 43.8266L41.9359 44.7638L39.0656 44.0023C38.597 43.8852 38.0698 44.1781 37.9526 44.6467C37.8355 44.9982 37.9526 45.291 38.1869 45.5254C38.3041 45.6425 38.4212 45.7011 38.597 45.7597L41.8773 46.6383C42.1116 46.6969 42.3459 46.6969 42.5802 46.5212L44.5133 45.4082C45.6263 44.7638 46.8564 44.471 48.0865 44.5881L52.0698 44.881C52.2455 44.881 52.3627 44.9396 52.4798 45.0567C52.597 45.1739 52.6556 45.3496 52.597 45.4668C52.597 45.7597 52.3041 45.994 52.0112 45.994L50.3125 45.9354C49.7267 45.9354 49.2581 46.3454 49.1409 46.9312C49.0823 47.517 49.4338 48.0442 49.961 48.2199L57.3418 50.2701C57.4589 50.3287 57.5761 50.3873 57.6932 50.5044C57.7518 50.6216 57.8104 50.7973 57.7518 50.9145C57.6932 51.0316 57.6346 51.1488 57.5175 51.2659C57.4003 51.3245 57.2832 51.3245 57.166 51.3245L53.3585 50.2701C52.8899 50.153 52.3627 50.4459 52.2455 50.9145C52.1284 51.3831 52.4212 51.9103 52.8899 52.0275L56.6388 53.0233C56.6974 53.0233 56.756 53.0233 56.8146 53.0818L57.9861 53.3747C58.279 53.4333 58.4547 53.7262 58.3961 54.0191C58.3376 54.312 58.0447 54.4877 57.7518 54.4291L56.5802 54.1362C56.5217 54.1362 56.4631 54.0777 56.4631 54.0777L52.7141 53.0818C52.2455 52.9647 51.7183 53.2576 51.6012 53.7262C51.6012 53.7848 51.6012 53.8434 51.5426 53.9605C51.5426 54.2534 51.6597 54.4877 51.8355 54.6634C51.9526 54.7806 52.0698 54.8392 52.2455 54.8977L56.053 55.8936C56.2874 56.0107 56.4631 56.245 56.3459 56.5379C56.2874 56.8308 55.9945 57.0065 55.7016 56.948L54.3543 56.5965C54.2957 56.5965 54.2371 56.5379 54.2371 56.5379L51.9526 55.9521C51.484 55.835 50.9568 56.1279 50.8397 56.5965C50.7811 56.8894 50.8397 57.2408 51.074 57.4752C51.1911 57.5923 51.3083 57.6509 51.484 57.7095L53.8271 58.3538C53.9443 58.4124 54.0028 58.471 54.0614 58.5881C54.12 58.7053 54.1786 58.881 54.12 58.9982C54.0614 59.2911 53.7685 59.4668 53.4756 59.4082L50.1367 58.5295L45.392 57.2994C43.7518 56.8894 42.4045 55.835 41.5844 54.3705L40.8815 53.0818C40.7643 52.8475 40.53 52.7304 40.2957 52.6718L37.0154 51.7931C36.5468 51.676 36.0196 51.9689 35.9024 52.4375C35.7853 52.789 35.9024 53.0818 36.1367 53.3162C36.2539 53.4333 36.371 53.4919 36.5468 53.5505L39.4171 54.3705L39.9442 55.3078C41.0572 57.1823 42.8145 58.5295 44.9233 59.1153L47.5593 59.8183L49.4924 60.3454L49.6681 60.404L52.8313 61.2241C54.12 61.5756 55.4087 60.8141 55.7602 59.5254Z" fill="#9BC456"/>
<path d="M95.3656 53.8825L98.6579 52.5521L96.9579 44.7177L93.7397 45.4937L89.3421 44.0525L85.7945 44.7177L78.4773 46.898L77.886 49.5218L77.2578 51.6652V53.476L76.4814 54.5108L77.886 55.989L78.6621 57.1715L80.7686 57.8367L86.7183 56.9128L85.7945 58.7975L86.0529 60.3127C87.0753 60.1279 89.0906 59.7288 88.9723 59.6105C88.8541 59.4923 91.9534 57.7628 93.5179 56.9128L95.3656 53.8825Z" fill="url(#paint5_linear)" fill-opacity="0.19"/>
<path d="M77.0231 48.5129C77.0817 48.7473 77.1988 48.923 77.2574 49.1573C76.4373 49.7431 75.9687 50.7389 76.2616 51.7933C76.3202 52.0276 76.4373 52.2619 76.5545 52.4376C76.3202 52.6134 76.0859 52.8477 75.9101 53.1406C75.6172 53.7263 75.5001 54.3707 75.6758 54.9565C75.9101 55.9523 76.7888 56.5966 77.726 56.7138C77.726 56.9481 77.726 57.1824 77.7846 57.4167C77.9603 58.0611 78.3704 58.5297 78.8976 58.8812C79.4834 59.174 80.1277 59.2912 80.7135 59.1155L84.9311 58.0025C84.7553 58.5883 84.7553 59.2326 85.0482 59.8184C85.3411 60.4042 85.8097 60.8728 86.4541 61.1071C87.0984 61.3414 87.7428 61.2828 88.3286 60.9899L91.9018 59.2326C93.3662 58.5297 94.5378 57.4167 95.3579 55.9523L96.2951 54.3121L99.1654 53.5506C99.634 53.4335 99.9855 52.9063 99.8097 52.4376C99.6926 52.0862 99.4583 51.8519 99.1654 51.7933C98.9897 51.7347 98.8725 51.7347 98.6968 51.7933L95.4164 52.6719C95.1821 52.7305 94.9478 52.9063 94.8307 53.082L93.7177 55.015C93.0733 56.128 92.1361 56.9481 91.0231 57.5339L87.4499 59.2912C87.3327 59.3498 87.157 59.3498 86.9813 59.2912C86.8055 59.2326 86.6884 59.1155 86.6298 58.9983C86.5127 58.7054 86.6298 58.4125 86.8641 58.2368L88.3286 57.4167C88.8558 57.1238 89.0901 56.5381 88.8558 55.9523C88.6214 55.4251 88.0357 55.1322 87.5085 55.2494L80.1863 57.241C80.0691 57.2996 79.8934 57.241 79.7763 57.1824C79.6591 57.1238 79.5419 57.0067 79.5419 56.8309C79.4834 56.7138 79.5419 56.5381 79.6005 56.4209C79.6591 56.3037 79.7762 56.2452 79.8934 56.1866L83.7009 55.1908C84.1696 55.0736 84.521 54.5464 84.3453 54.0778C84.2281 53.6092 83.7009 53.2577 83.2323 53.4335L79.4834 54.4293C79.4248 54.4293 79.3662 54.4293 79.3662 54.4878L78.1947 54.7807C77.9018 54.8393 77.6089 54.6636 77.5503 54.3707C77.4917 54.0778 77.6675 53.7849 77.9603 53.7263L79.1319 53.4335C79.1905 53.4335 79.2491 53.4335 79.3076 53.3749L83.0566 52.3791C83.5252 52.2619 83.8767 51.7347 83.7009 51.2661C83.7009 51.2075 83.6424 51.1489 83.6424 51.0904C83.5252 50.856 83.2909 50.6803 83.0566 50.6217C82.8809 50.5632 82.7637 50.5632 82.588 50.6217L78.7804 51.6175C78.4875 51.6761 78.2532 51.5004 78.1947 51.2075C78.1361 50.9146 78.3118 50.6217 78.6047 50.5632L79.952 50.2117C80.0106 50.2117 80.0691 50.2117 80.1277 50.1531L82.4122 49.5673C82.8809 49.4502 83.2323 48.923 83.0566 48.4544C82.998 48.1615 82.7051 47.8686 82.4122 47.81C82.2365 47.7514 82.1193 47.7514 81.9436 47.81L79.6005 48.4544C79.4834 48.4544 79.3662 48.4544 79.2491 48.3958C79.1319 48.3372 79.0147 48.2201 79.0147 48.0443C78.9562 47.7514 79.1319 47.4586 79.4248 47.4L82.7637 46.5213L87.3327 45.2912C88.9729 44.8811 90.6717 45.0569 92.1361 45.9355L93.4248 46.6385C93.6591 46.7556 93.8934 46.8142 94.1277 46.7556L97.4081 45.877C97.8767 45.7598 98.2281 45.2326 98.0524 44.764C97.9353 44.4125 97.701 44.1782 97.4081 44.1196C97.2323 44.0611 97.1152 44.0611 96.9394 44.1196L94.0691 44.8811L93.1319 44.3539C91.2574 43.241 89.0315 42.9481 86.9227 43.5339L84.2867 44.2368L82.3537 44.764L82.1779 44.8226L78.7219 45.5841C77.4917 45.9355 76.6716 47.2242 77.0231 48.5129Z" fill="#9BC456"/>
</g>
<defs>
<filter id="filter0_d" x="13.2515" y="7.23413" width="99.2006" height="110.525" filterUnits="userSpaceOnUse" color-interpolation-filters="sRGB">
<feFlood flood-opacity="0" result="BackgroundImageFix"/>
<feColorMatrix in="SourceAlpha" type="matrix" values="0 0 0 0 0 0 0 0 0 0 0 0 0 0 0 0 0 0 127 0"/>
<feOffset dx="-5" dy="5"/>
<feGaussianBlur stdDeviation="2.5"/>
<feColorMatrix type="matrix" values="0 0 0 0 0.74829 0 0 0 0 0.8875 0 0 0 0 0.51401 0 0 0 0.2 0"/>
<feBlend mode="normal" in2="BackgroundImageFix" result="effect1_dropShadow"/>
<feBlend mode="normal" in="SourceGraphic" in2="effect1_dropShadow" result="shape"/>
</filter>
<linearGradient id="paint0_linear" x1="60.2517" y1="15.0909" x2="60.2517" y2="126.903" gradientUnits="userSpaceOnUse">
<stop stop-color="#9BC456"/>
<stop offset="1" stop-color="#345FFA" stop-opacity="0.6"/>
</linearGradient>
<linearGradient id="paint1_linear" x1="68.4879" y1="45.8253" x2="73.841" y2="26.8949" gradientUnits="userSpaceOnUse">
<stop offset="0.481514" stop-color="#9BC456"/>
<stop offset="1" stop-color="#9BC456" stop-opacity="0"/>
</linearGradient>
<linearGradient id="paint2_linear" x1="70.9374" y1="68.3618" x2="87.4751" y2="77.9099" gradientUnits="userSpaceOnUse">
<stop offset="0.481514" stop-color="#9BC456"/>
<stop offset="1" stop-color="#9BC456" stop-opacity="0"/>
</linearGradient>
<linearGradient id="paint3_linear" x1="57.7961" y1="63.1418" x2="57.7961" y2="82.238" gradientUnits="userSpaceOnUse">
<stop offset="0.481514" stop-color="#9BC456"/>
<stop offset="1" stop-color="#9BC456" stop-opacity="0"/>
</linearGradient>
<linearGradient id="paint4_linear" x1="56.3695" y1="56.7739" x2="38.812" y2="48.1258" gradientUnits="userSpaceOnUse">
<stop offset="0.481514" stop-color="#9BC456"/>
<stop offset="1" stop-color="#9BC456" stop-opacity="0"/>
</linearGradient>
<linearGradient id="paint5_linear" x1="77.799" y1="52.8538" x2="97.1432" y2="49.8778" gradientUnits="userSpaceOnUse">
<stop offset="0.481514" stop-color="#9BC456"/>
<stop offset="1" stop-color="#9BC456" stop-opacity="0"/>
</linearGradient>
<clipPath id="clip0">
<rect width="128" height="128" fill="white"/>
</clipPath>
</defs>
</svg>
